<mxfile host="app.diagrams.net" agent="Mozilla/5.0 (Windows NT 10.0; Win64; x64) AppleWebKit/537.36 (KHTML, like Gecko) Chrome/131.0.0.0 Safari/537.36 Edg/131.0.0.0" version="25.0.3" pages="3">
  <diagram name="Page-1" id="GM049z0ZjErSzE4kdJYQ">
    <mxGraphModel dx="1426" dy="781" grid="1" gridSize="10" guides="1" tooltips="1" connect="1" arrows="1" fold="1" page="1" pageScale="1" pageWidth="827" pageHeight="1169" math="0" shadow="0">
      <root>
        <mxCell id="0" />
        <mxCell id="1" parent="0" />
        <mxCell id="8EiXPBe6yDVJfnOFMUdu-15" value="" style="group" vertex="1" connectable="0" parent="1">
          <mxGeometry x="20" y="120" width="750" height="340" as="geometry" />
        </mxCell>
        <mxCell id="8EiXPBe6yDVJfnOFMUdu-13" value="" style="rounded=0;whiteSpace=wrap;html=1;" vertex="1" parent="8EiXPBe6yDVJfnOFMUdu-15">
          <mxGeometry width="750" height="340" as="geometry" />
        </mxCell>
        <mxCell id="8EiXPBe6yDVJfnOFMUdu-4" value="" style="rounded=0;whiteSpace=wrap;html=1;" vertex="1" parent="8EiXPBe6yDVJfnOFMUdu-15">
          <mxGeometry x="30.25" y="80" width="120" height="200" as="geometry" />
        </mxCell>
        <mxCell id="8EiXPBe6yDVJfnOFMUdu-1" value="" style="sketch=0;pointerEvents=1;shadow=0;dashed=0;html=1;strokeColor=none;fillColor=#005F4B;labelPosition=center;verticalLabelPosition=bottom;verticalAlign=top;align=center;outlineConnect=0;shape=mxgraph.veeam2.data_file;" vertex="1" parent="8EiXPBe6yDVJfnOFMUdu-15">
          <mxGeometry x="76.25" y="170.75" width="28.000000000000004" height="39" as="geometry" />
        </mxCell>
        <mxCell id="8EiXPBe6yDVJfnOFMUdu-5" value="CSV file" style="text;html=1;align=center;verticalAlign=middle;whiteSpace=wrap;rounded=0;" vertex="1" parent="8EiXPBe6yDVJfnOFMUdu-15">
          <mxGeometry x="60" y="240" width="60" height="30" as="geometry" />
        </mxCell>
        <mxCell id="8EiXPBe6yDVJfnOFMUdu-6" value="Data Source" style="text;html=1;align=center;verticalAlign=middle;whiteSpace=wrap;rounded=0;" vertex="1" parent="8EiXPBe6yDVJfnOFMUdu-15">
          <mxGeometry x="60" y="110" width="60" height="30" as="geometry" />
        </mxCell>
        <mxCell id="8EiXPBe6yDVJfnOFMUdu-7" value="" style="image;aspect=fixed;html=1;points=[];align=center;fontSize=12;image=img/lib/azure2/analytics/Data_Lake_Store_Gen1.svg;" vertex="1" parent="8EiXPBe6yDVJfnOFMUdu-15">
          <mxGeometry x="650" y="157.75" width="64" height="52" as="geometry" />
        </mxCell>
        <mxCell id="8EiXPBe6yDVJfnOFMUdu-8" style="edgeStyle=orthogonalEdgeStyle;rounded=0;orthogonalLoop=1;jettySize=auto;html=1;entryX=0.016;entryY=0.428;entryDx=0;entryDy=0;entryPerimeter=0;" edge="1" parent="8EiXPBe6yDVJfnOFMUdu-15" source="8EiXPBe6yDVJfnOFMUdu-4" target="8EiXPBe6yDVJfnOFMUdu-7">
          <mxGeometry relative="1" as="geometry" />
        </mxCell>
        <mxCell id="8EiXPBe6yDVJfnOFMUdu-9" value="ADLG 2" style="text;html=1;align=center;verticalAlign=middle;whiteSpace=wrap;rounded=0;" vertex="1" parent="8EiXPBe6yDVJfnOFMUdu-15">
          <mxGeometry x="654" y="240" width="60" height="30" as="geometry" />
        </mxCell>
        <mxCell id="8EiXPBe6yDVJfnOFMUdu-10" value="" style="strokeColor=#dddddd;shadow=1;strokeWidth=1;rounded=1;absoluteArcSize=1;arcSize=2;" vertex="1" parent="8EiXPBe6yDVJfnOFMUdu-15">
          <mxGeometry x="350" y="96" width="110" height="44" as="geometry" />
        </mxCell>
        <mxCell id="8EiXPBe6yDVJfnOFMUdu-11" value="Scheduled&#xa;Tasks" style="sketch=0;dashed=0;connectable=0;html=1;fillColor=#757575;strokeColor=none;shape=mxgraph.gcp2.scheduled_tasks;part=1;labelPosition=right;verticalLabelPosition=middle;align=left;verticalAlign=middle;spacingLeft=5;fontSize=12;" vertex="1" parent="8EiXPBe6yDVJfnOFMUdu-10">
          <mxGeometry y="0.5" width="32" height="32" relative="1" as="geometry">
            <mxPoint x="5" y="-16" as="offset" />
          </mxGeometry>
        </mxCell>
        <mxCell id="8EiXPBe6yDVJfnOFMUdu-12" value="" style="shape=image;verticalLabelPosition=bottom;labelBackgroundColor=default;verticalAlign=top;aspect=fixed;imageAspect=0;image=data:image/png,iVBORw0KGgoAAAANSUhEUgAABLAAAASwCAYAAADrIbPPAAAgAElEQVR4XuzdB5Rc2Xkf+K8z0mBy5gw5M8ykGEWRFINIRVKyLSsny5IVbNnHlrXrXWt9ju0jn931ruSzRz6WLdGSTAWbsmQlK1KkmNOQHOYhJ3ECBzODQRxkNBqd9n7v1QUKNd1ANdANvAZ+P/KbqnpVHfH63Xf/de99I4uLiwEAAAAAXTU6uAEAAAAAukSABQAAAECnCbAAAAAA6DQBFgAAAACdJsACAAAAoNMEWAAAAAB0mgALAAAAgE4TYAEAAADQaQIsAAAAADpNgAUAAABApwmwAAAAAOg0ARYAAAAAnSbAAgAAAKDTBFgAAAAAdJoACwAAAIBOE2ABAAAA0GkCLAAAAAA6TYAFAAAAQKcJsAAAAADoNAEWAAAAAJ0mwAIAAACg0wRYAAAAAHSaAAsAAACAThNgAQAAANBpAiwAAAAAOk2ABQAAAECnCbAAAAAA6DQBFgAAAACdJsACAAAAoNMEWAAAAAB0mgALAAAAgE4TYAEAAADQaQIsAAAAADpNgAUAAABApwmwAAAAAOg0ARYAAAAAnSbAAgAAAKDTBFgAAAAAdJoACwAAAIBOE2ABAAAA0GkCLAAAAAA6TYAFAAAAQKcJsAAAAADoNAEWAAAAAJ0mwAIAAACg0wRYAAAAAHSaAAsAAACAThNgAQAAANBpAiwAAAAAOk2ABQAAAECnCbAAAAAA6DQBFgAAAACdJsACAAAAoNMEWAAAAAB0mgALAAAAgE4TYAEAAADQaQIsAAAAADpNgAUAAABApwmwAAAAAOg0ARYAAAAAnSbAAgAAAKDTBFgAAAAAdJoACwAAAIBOE2ABAAAA0GkCLAAAAAA6TYAFAAAAQKcJsAAAAADoNAEWAAAAAJ0mwAIAAACg0wRYAAAAAHSaAAsAAACAThNgAQAAANBpAiwAAAAAOk2ABQAAAECnCbAAAAAA6DQBFgAAAACdJsACAAAAoNMEWAAAAAB0mgALAAAAgE4TYAEAAADQaQIsAAAAADpNgAUAAABApwmwAAAAAOg0ARYAAAAAnSbAAgAAAKDTBFgAAAAAdJoACwAAAIBOE2ABAAAA0GkCLAAAAAA6TYAFAAAAQKeNLC4uDm4DALgUjCxzf5jHS1nuNcOcbA2+5nSPB58DALjoCbAAgPVkudBpufBoKXnyU2s9yp+11rCWC8DW6+8AALjECLAAgK4YDKTq43o/T1oWerUaJkttLLWhV/l4qRorNRHt0gt5m4/He1Xl95evXcrxODUomuvVfKnZ3nP5mnyct0vVsV5N9x6vhvx5survtn6Pg+Gek0UA4IITYAEA50P/qKEaTNWgZKWBVIYum+Jk+JS3WVtKXdWry0tt7VXev6J3/7LeazNsyjCq3mbVUCprqZDqfOgPt+r9rAy6sjK8qrcZZh0qdbDU/lIHevez8v5TvTrce21WDcGOxtn93uv6qacLvAAAVp0ACwA4V4MjpQYNE1LV0U1Tpa4pdX2vrus9zspgKoOowUAqK4OstbRUWDN4EjX4uBr8nSz1+xp8zWrL4CrDrsHAK28z5NpbanepXaV29mpPqZloA7Nh/v2W+hlO9/sCABiaAAsAGNZg8JKVJxI5WuhMcnTUYCB1Y69u6t3m87k9Q6w6ZW9Yw4Rk/ZYKW9Jy26szPb9SZzoRW+755bYvZblwaTn5e8zQKsOrDLEyzHqy1OO92hFt0JVVQ69hpjXmqLa6zwi2AIAVEWABAINq4FHDhgw0TnfCkK/PEVFX9uqZpZ5V6tbe7c295+u0vuXWilpK/dr9X79+b/V+/y1LGwyLlvudriQ0PBInpyzmSK7H+mpbqUdL7etVPn+6gLF+7f6A63SvBwAuMQIsALg01cBiMPhZbjRVhgs5MuqGUs8udUep20s9I04dSZXT+c4kTz76v85y38vgY86PwZPDGij1bx92bbCcsrg92hFcdRTXw6UeKvVgtKO5cqTXcmFVjtrqt9T3AgBcAgRYAHDx6w+I6giX5YKqlCOnamVIlYFVDa1yhFUGWctZbrRWDaMGb1mf6r/x4G2/OqpqORlc5eisGmZlZbiVo7dqLWep6YhLfQ8AwEVCgAUAF5f+6X8ZJi03siWvxJfrUeW6U88v9VWlXhjt9L+re5XrUC2n/3MPBmRQLRUw5T56umAr19/KReWzMsT6Uqm7S90X7XpcueZWXklxKfVz16+33P4PAKwzAiwAWJ+WCoyW67BvjnYk1UtKvSja0VS39SqDquXkKK38nINfS0jFaqgnof0BV+5bg9MG+2Wo9UivcsRWhltfiHbkVq7JNagGutVgmAYArBMCLABYHwZHOc2d+vQJuSbVc0s9J9oRVS+ONrS6KpYeUTU45a8/pBJUcSH0B0yD++ZSI7dyxNZT0YZZX+zdZrj1QLRrbi0l1/DqD7OcEANAxwmwAKCb+qdCLbVeVY5Syav7ZWD1slJfHe0Iq7qg+lLhU36uGljVMGCp10FXDbsP5/N14fgcofWpUp+LNtB6Ipb/m8rPdbqptwDABSLAAoALr39kVRocFZW2RLtWVQZVGVi9oFfX9r+oTx2h1d/BX6qjz4DmFz/42z9F++TTXvK0DT0Dv/WTD0/zzzFy2mc5Vf3N13ArLXeVxN2l7u1VBloZbOXaWof7XxQnw7GUn7cWAHCBCLAA4PyrYdXpRlhlWJVT/3Jx9VeXenmpa+Lp6wMNhl2DYdgl48Qv4ZRTm8WopzpLBlM1KGpu2wdd+cXV73ex/c/pv/+8W3+QvucGtlxKauA0+LcxOAUx//b2lPpsqU9Eu1h8TkHMUGtQ/witwc8NAKwxARYArL3acc7bpdauyvWpbo12dNUboh1hlVMDc/ugOr2p/3NelE4ET4tNhHMyLuiFNiMjI73QZvXNLyzG/HyvmvsLUW6axwv1uYWTs8zye52dW3h6pFG+v4nx0VO+z7HR0RgbG4nR0ZEYH2t/hrGxsq08zu1Nja7ND5bf5+l+n83DtfnSXZE/dQ2g6jTdQbmeVk41zBFaH452lNa23vZBdS2twSAZAFhlAiwAWH2DwdLgCKutpV5a6vXRjqzKUVY54mpQDasummmAJ0dDZZJy6nNVBig1TBlGDY+aYKnU7OxCHJ+dj2Mz8zF9bD4OH52Lg4eOx4HDs3Hw8PE4cmSuTRwW+8KoUnNNLcTcXNZi8zmPl8/VbJ+b7922YdZsuT1enq/fZZ5P5dcb/JHy+Q1TYyd+nnx+cnw0JsYzqGpvM8iamBhrwqzJidw2GuNl+3jejmWdDLbytaMZ3JXPs3nzeGzdMhmXb5mIrZdNxpZN47Fxw1jz9SbL55uYaEOx5vMPhGhn0oRcgz9M1QRebeq1gk/ZVfWnrCHUcqFWjsjK0Vk5UusjpT5f6uAprzh1dGT9fADAKhFgAcC5y3581nJTAq8u9YpoR1blCKvXRDsdsL//39/hrZ9vXeYDgyFV87j8JE3wsoKf6Nix+Th4ZDYOHDoeT+2fiYOHZ5uAaub4fBydnotD5XGGUvsPHI/dTx2Lw0fzYnRtMLW4cDKgysrwqX9EVfNt9L6X5hfdpGYn77chWu9+s639T+9lJ17TL3++peT30a9/FFTzVC8sau/27ve9pv0d9u7Xx5EjuU4GWxlyNeFWDbhGT34/WzZNxLVXbYgrLm/DrstKbdo4HlOTY83nyMdXleeu2DoVWzdPxIYNg7NUl5e/2/rjtb+j/H/7dZf5dawHzT9Fr9JgIJ3bc9rhx6MdoZUjtT5Tam/fa5IphwCwigRYAHB26kiNOkqqX4ZTzyn1xlJvinax9Wf2v6Ang65siJcb9dFZJwKW/O5HMixpQ50zyQDpUC+UmpldiJlj87G/3N+191hs33U0tu882ox6ylFOx48vxPTMfBw9NhdHjs7FdLntD5RGemHN6Gg7Be+UWXcDQUobPDX/eXqw0ncq9LSzol5YtMQzJ4KblXra12/0vtuB5055OPBcG37l/0+GXs32k990o536mCPUarh3amC2YWo8tmwej00bxmNjjt6azCmOo81osJuu3xQ3XbcprrtmQ1y5dTI2TI41AdcVW3PE18TJL3Ia+TXye8gv2P5bPD38Wwfq33l+50slfI9GuzD8B0p9qNSXow25+p3umAEAnIEACwCGUwOm7MBm49nfAZ2MNqT6+mhHV72y1B19z1e5/lV+/OCIjs5pA45Tg5BUA4jl5OioDKAycNq971g8tv1IPP7kkTiWYdSxuSa42rNvJnbtmW5eu9znql8nRxSN5Wii3uiiE/q+tfZU5jRT3i5x7a/4ZGjUe3hCE2z1pl+2I6qW/13mc5s3TcSN122Mq6/YEJdtHo/JqbHYNDUez7p5S7P9qiumymvGmwAsR3ktZ8mvk//ufd9rh9VjQN4udcXDh0p9OtpRWu+LNtw63vd8PQbU34BACwDOQIAFAMurYVManBaYAdWrop0S+I2lbo9TO7K1c5vy89TqnBoA9Y+SOSUsGpDT8fZmOPXkkWZqX46S2ltuH99+JB5+7FAcOz7fTOHLNaRqoJXaMCrXdqprMi3/NU4GVL3/Ol1ZUyf/KZYeCdbIf4ORNuzKdcZyP6hTNPPjp3L0VrN+12gzhTFHa91+y2XxjJs2x9VXTDWjuzLcuuXG8vjKDc20x+WcmJqY+2LvGzrd7nKB9f5yTvl77x9RmcH1w6XeE+2Uw7uiDbj61aSv/7gBAPQRYAHASf0dz8HAKqcF5iirb4g2sHpeb1u/OjWok1MCm1FVvVEvZwqpMqDIEVSHj+TC57NNWHXfgweabRlM5fYMrXKkVTuNrw2mctHxdvRUVoYO7RS/Ri+UWnLkDevKiXXCmgfR/MM20xN7t82/9WKGne2C+E3QtZijt8abMGvL5okmxLz2yg3x/Gdf3oRaW7dMNNtzWy5Av5wabp3cxwZf0QmnOxbk1ML7ow203hvt6KzB6YYCLQAYIMAC4FLXP51vMLS6pdQ3RbuO1WtLPfuUZ0+uYVU7m53oSrf5QS8t6lmuoz/Tm9q3c8903PfwgXhix9FmgfQ9+47FI48fbq7eNzhSKh/2X0Gv0Qss6npM0AZcvf2ut5s0o7d6V3Ic3E/ynDSvpvisZ2xpQqxcaP7mGzbF82+/PK6/ZmNs3JALzw9mQb39rv+T9X/dbqjfXB4v8rsanFf5YKk7o10/669LPXbKsydfn5/HVEMALlkCLAAuRdmJXGqkVXYUv7bU60p9S6mvKbWp7/k6GqJ2jZ/em74Aage+jkpZbmRVjqR6eNuhJqw6cGg2Hnn8UNz30IEmsJpfWCi3883Iq1wcPcOpyYmx5gp3p/zESVDFOajB1uA+lY9zkf/js/MnRm3lSKxNG8p+OJ634/H8Oy6P255xWVx+2UQTat1+62XNyK2ldHikVg2h6l9W/3HkaKlPlnpXqY+W+lg8/RiVjMwC4JIjwALgUlGn8uR6NP2uL/WSUt8e7UirnBrYv5ZVNpTZgVxqKtB5l812M0WryPWklpJrUuUi6XXq32e+uLeZ+nfs2Hzs3HssDh0+3oRcOYWrXYuq7eDn58u1i+rgreZqdYOfHNZQ7tEZoDZ7dmanC9EsLl8D2py+mpXh1GVbJuP6qzc0V0XMEVuvePHVJ6YiXnd1jtgaHOjUys+XcuprR0KtOt0wv+H+7yiPVTnV8AOl/qTUF0rt7Hs+5bGqfjwAXNQEWABcrJq+cK+ysevv4F1X6i2lvrnU60s9s++5lB3HOrXwgnVxB6dGLTWKJBdMP3RkNh569GB88YH9ceDg8Xhi59F4aNuhOD5wlb8cTZWBVR1V1YRUvWAAuu7ESKrmQTtaK8OsvK1yf56cHIs7br0sbr5+U1y+dTJe/Nwr4o5nbo3LNk80C8v3e/rfWPs1LqDmzzLa49Xg1Q0fLfWRaKcZvrPUrr7n6vGqfry/agAuOgIsAC422YnLXmpdn6p6bqk3lnprqa8vdUXfc3WKTn/odd7VznTe5gippfrRO3dPxwNfORh7983Eg9sOxt3372tGVmWQNT0913znOfUv1wo6pSPeBFbCKi4uTeCUO33/rl528lzbLaci5n6/ceN4E1xtmBqLFz/vynjOM7fG1VdOxXOftTWuv3bjyQ888fHt9MMTgdkSf4fnyWAY1Z++7S/1/lJ/WepDpR7oe265YyAArGsCLAAuBstND8zQKq8Y+F2lXlrq6r7nsgG8oFMDm45y+U/2Npdat2rPvpnYu+9YbNt+JO76/O5m+t/Bw8fjyV3TMTe/GJMTvSmAo+10qDqlsH5euFT1Tw/MKYPNFRIX2imIx2cXYnxsJG68bmNs3TIZ1129Ib7mZdfGrTduboKta67ccOoni956WnHBpx0uN9XwqVKfL/UH0V7ZsD/MSqYZAnBREGABsF7VKTOpf5HjO0r97WiDq68r1T/EIgOuJi/q3Z5XTajUa3YHR3bkNKiDR2bj/ocPxOfveSqeOjATDzxyMHbsPnrKSKrx8dEmuMpN/SO2gNPrH1GVfzMZZM3Nncx08m/phms3xnNvuzyuunwqXvrCq+J5t18eWzdPtNNuT7yufW1jpA21LoD8BupC7v1TDadLfTDaIOt/lnqo7zlXMwRgXRNgAbCe1PBpsANWR1p9Z7RrWk31PVfDrfMeWrV5VTvyo78DXOXVAPMqgI/vOBqf/uLuePzJo02n+sj0XDMiK6c85QirE+rn03TDOWsCrTr9MP+mRtoRWsdm5psRV5s3jjdh8TNu3BSvfPG18YwbNjVXQcyrHw7KADpHQubnuwB5Vv/xsH+a4Uy0a2b9UTx9ZFY9HtYQDAA6T4AFQNctF1o9K9oRVj9Q6lWlrup7rnbKznto1Uw1Wlw6sNq+62g8uSvDqr1x74MHYv+BmbJtuhmZlWFVfkwzFbC3yHoz7UkzDedNhk/NiKqRNpTKv8G8zVArt9903ca44vKpeMGzL49XvvjquPG6TWXbpsFP0wZa+bmWmBq8xupxsh43q5xmeFep/x7tCK2v9D0nzAJgXRBgAdBF2Zmq1T898PJS3xYnpwhe2ffcBblyYP8UvsHO6uGjc/HwtoPxic/tiSd3H417vrw/9h88fuJ1OR1waqIZtnEi+AK65UQQVf4+Z/qmHebf7BVbJ+OFz7kibrx2U7z6ZdfE7bdujS2bTr14YL4u1SmM51F+4Rpo9X9T+0q9N9ophn9e6kDfczmCq36cIxIAnSLAAqBLsneXHaj+xdgnS31Dqb9R6jtK3dj33AWZHphNZ3ZKB68UmNvvf+hAPPzYofjcfXvj8/fsa6YkHT4y27x244bxE6Or8ru1fhWsLydCqN7fcI60mj421xwPtmyeaKb8vvSFV8bLnn913H7LZfG8Oy5/2jFiqWPHeVCDrNQ/zfDJUn9c6i+inWZ4vO+5DL1cyRCAzhBgAXCh1dBqsKP08lLfE21o9fy+7fmafO3glbjWTNPpXOxNCRrodeYVAR/fcSQ+8umd8eAjh2LPU8diz/5jMTU51qyfkx3VvDpgM5yhdyUz4OKQR4ORDKOid7XDUrmO3czx+bjmig1xzVUb4tm3XRave+X1ccsNm5srH/ar04TP89UNlzuG3hdtmPX7pT7bt325YzQAnFcCLAAuhKbf16v+KYI3lfquUt8e7airarkO15rpv2Jg/9TA7Jzu2D0dH75rRzzy2OH40oP7Y9/+mRMjKiYnxmJ8fKRZuL35HMAlpQmjRiPm5jLMmj8x6urKK6biRc++Im67ZUu84VU3NFc8zJC7qlMN8wg3GJSvoeWOrTnF8E9L/UGp7X3bTTEE4IIRYAFwPmUHKXts/YsF5xUDv6XUd5f6W9Guc1Vlx6o/7FpTdaTV4GiII0fnmoXXH2rWs9odu5+aiSPTs83rN/VPC8zPkf/TtMIlr5luWA9bI+10w6PH5prtmzdOxLVXTcWrX3Zt3HHr1mZB+M19a2ctdyxaQ/2hVP8Uw1wfqwZZ74r2yoZpqWM5AKwpARYA50PtEPWPtnphqe8r9b1x6hTB2iHq70StmTrqYXAB9id2Ho1HHjsU779zRzz25OHY9uSRWCgd0A0bxmJsdLQJrfIjXCkQGEadgpyHiwyz5hcW4tix+Rgtx5Jbb9wct9y4Jd782hvitlsui5uvP/XKhssdp9ZQffOg/0qGOcXwf5T6vVL39G1f6vgOAKtOgAXAWqmdn2xo6uLBl0W7plWGVt9caqK3vb5mzRdjb2YG9tq+XIy5jm7IDmVODfzIp3bG/Q8fiC99eX8cONReMTDXsJqaGhNYAaumP9CamZk/sYbW5ZdNxouec0U87/bL4/VffX0z1bAZ5RnLH7/W0FLH5tlS7442zMorGR7sba+vMSoLgDUhwAJgtWUnJqv/SoKvKvWdpX6o1C1928/bFMFs7xZKt6p2BKsvPrAv7n3wQNz52V3x6BOH4+h0rlmzGBs3jjfBVXbDsqXUXgJrpQmjmjvtYvDT0znVcCQ2bRyLZ968JV778uvi+XdcHl/1vCtP+bgM3kdH249fY81hsFf9o2MfK/WOUn9U6q6+7TkfMoOs+uYFAJwzARYAqyF7T4ProVxd6htL/Xip15eql99a6h39NbHUtJtchD2nBuZaVnd9YW9s33U09h+cKR3F8Rgfa6cG9n8swPlWj1kZUM3NL8TR6bm4YutU3HTdpnjVS65u1s7KqYZLLQJ/HqYZLnUMny71kVJvL/WeUnt625dqGwDgrAiwADgXtQPTv/bJ80r9SLSLsj+nb3uOyBq80tWqaqbX9IZM9U+vmZ1biK88fig++Imdcd/DB+KeL+9vtufzU5NjMT420ox60CQCXZPHqRwNOje/GDPH26saphc+54p4/u2Xx9e9+vp41jMui4nxNsw6Mc1wJP+/5tMM87vJ4//JFegjvhztou+/Ver+vu31CoZGZQFwVgRYAJyNweAqOyZvLfXDpb492isLpvr8mo62yqYs16Zqpvz1yemBd9+/Pz581854cteRODI9Xzp5I7FxQ6+v1Qu8NIVA1+XRrZkq2DvMTR+bi9m5xdi8cSxuum5zvP5V18dXPe+KePFzB6YZLpyXqxn2B1N1imFesfBPSv3XUu+MU9sLQRYAKybAAmBYS00FeUap7yr1Y6Ve0tuWlrqC1apaLrR6aNuh+NTde+IjTWg1HfsOzsTmTRPNKKt8bdNrMj0QWOdyqmDzLsJCTjNcjCNHZ+PKrVNx43UbmzDrq7/qmrjj1rxuxknnKcyqbUT/WllfKPUb0Y7Mery3bak2BQCWJcAC4ExqJ6N/muDLog2tvqfUDb1t9R31NRttdWJqTJy6zsuuvcfiI3ftiM986an4wn1PNVMGc6TChqmxZk2rDKw0d8DFKgOpPCbmmlnHZtoLUeSUwpc8/6p4+Yuuije86oa47uoNJ15fQ/w1vpLhUm3CjlK/H+1aWZ/rbUsZdgmyADgtARYAy8kOR3Yq6tUEsxPyN0r9vVLfVmqit33NryS41GirA4eOx2e+uDc+/rnd8dkv7Y3DR+eaTlsuxt5Ms8mwy/RA4BLSzjBs/tMcD3Px9zwebtk0Hi9/0dXxmpddG6948dVx+WWTJz7mPIzKyqNwrToqa7bUX0Q7KuvP4+R0wpzfnW2KIzcATyPAAmDQ4Pok15b6jlI/Verl9UXRdjLWdLTVYGiVa77c//DB+OuPbI97H9ofT+w82nS8Nkzl1QPb2YqmBwK0Tl7NcCGOzSw0x9Sbr98UL7jjivim198Uz7t968k1AfN15yfMyralf3rhZ0r9aqk/KrW7t21wnUUAEGAB0MiOQl2vqnYYbot2muAPlrq9t22pzseqWWqKYD587Mkj8f47n4xPf2lPfPmRg82IgpwauGFyzJpWAEOoa2YdOz7fTDXMY+1zbtsar3zRNfHm19wYt9y0+URwdZ6mGA6+CfJwqd+JdnrhI71tta0xvRAAARYATQeh/13u10Q7TfAHStUVgNd0muBSo632Hzwen/j87vjQJ3Y2o62mj803z2/Y0PZnsv3ShAGsTDPNsJdKHSvH1Rx1tbEcV3NU1htffX28+qXXxhVbz9sUwzyK16ph1eFog6zfKPXx3rY02FYBcIkRYAFcmvJd76y6vlV2Tb6+1D8u9ZZSdbXfNb2aYL7L3/8Ofy6+/sDDB+O9dz4Zn/3Snti+a7q5euDU5Fg7IqsXdAFw7jKYyiN8Hotnjs83VzO86bqN8fIXXRPf8Nob47m3b20Wg091hGz/BTRW2eDVC4+V+qtS/7HU+3rPpZzzmK+t09wBuEQIsAAuLYPrikyV+v5SfzfaAKsanNqxaurIqf5O0J59M/GBjz8Zd352d9z74P5m24kpgkIrgDVXR1nVKYbpBc++Il778mvjTa+5Ma65MpuLVvvmw8mRXKssv/jgVPUMsH671O+WmultG1yvEYCLnAAL4NIwGFzdXOr7ol2Y/Tm9bfXd7zUJrpoQaiC4+vTde+MDn2iDq+npueaL51UEkymCAOdffzDVXMWw3G4sx+UMsr7u1TfEV3/VNSde26yVNdIbybX6ajiVn7yOAv5yqf8cbZD1RG9bBlnWyAK4BAiwAC5ueeKfVd+hfm6pf1jqe0vd1Nu21Lvdq6KOnupf22rHnun42Kd3NYuy5+Ls0zPzsWnDeDPiKlmQHaAbTl7FcDGOHpuLDVNjccuNm5tF31//1dfF9ddsPPHaNV4ra3BU8PZSv1fqF0s91tsmyAK4yAmwAC5O9R3rOuLqhaX+12ivKFh7HLn+VZ7wr3p3Y3CaYGZSX3pgX7z3Y9ubUVe79h5r1lWZmhpt3ukXWgF0Wx7P89g+M7PQrFd43dUb4hUvvjq+8XU3xYuec2V5vn3deZhemO1aO1Q3Ykep34x2nSwjsgAucgIsgItPdiPqiKvrSv3LaKcKTvS2rdnC7IMdl8NH55rRVu+7c3vc8+D+mDm+EBunxmJ8fPTEgsAArB/1whtzcwvNCNqpydF44bOviK9/7U3xta3hY5AAACAASURBVK+8NrZsapuawTcyVtnggu97Sv1yqf9UaldvW39bCMBFQIAFcPHoH3WVPYifKPUvSt3Se35NRlzVIKq/k/KVxw/Hez66PT72mV2xfdfRZgphXkkwb3NKoaYHYH3LECunDObUwbyCYd7edN2meO0rrotvet1N8axnbDnx2sErzq6ibE36p8DndML/p9Svl5rtbTcaC+AiIcACuDj0v9P86lK/UOqNvcdrFFyd+u56rpHyuXufaoKrT929Jw4eno3JidEmuMqugysJAlyc+q9geHx2IbZumWgWe8/phS97wVWnrHG4RtMLB6cWfqjUPy/1id5jo7EALgICLID1L0/YM6TKta1yxFWetOf1ztdkquBgcHX46Gx8+K6d8a4PbY+Hth2M2dJ5ySsJ1vVSNDMAl4YaTmVQlVcwnJgYjTtu3Rrf8sab4g2vuv7E9MI1DLL6pxbOlPp3pf5tqek42VYCsE4JsADWrzzzz8oT9pdFu4jt63rPZXi1qlcVzA5H/zTBnBr4gY/viPd//Ml4bPuRZl2rXAvFouwAnFj0/fhCs17WLTdtjje/+oZ402tvbKYaVoNtyyrpbwM/Wuofl/pctG/oZAOlkQJYhwRYAOtT/3SIH432UuJXxCpPF1xqfav7Hz4Q7/rwE/HRT++K/QeOx+RkO02wvhYAqrr2Va6Tdfz4Qlxx+WS87pXXxbe84eZ43u2Xn3jdGqyT1T+tcH+p/yXaKxYmUwoB1iEBFsD6kwFVnpTnlMFc6yrfWU6rNuoqm4ZcsyoXXa/u+sKe+KsPPRGfvntPTB+bb6YJ5rompgkCcCZ1ymCul5jTCzduGItXftU18ZY33hyvesk1J16Xi8HXNbVWSX/bmCOVc5p9TimsbSkA64QAC2B9qSfcebb/26Xe2nuc7yaf8+n+4PpWR0on467P746//MATce9D+5tpIBs3jLuaIABnJYOpevXC6WNzzfTzF9xxRXzrm26OV7302ti8sV2HfZXXycrWql6t8K9K/XCpPb3HQiyAdUKABbB+1AVoX1jq90q9uPe4XnXprA0GVwcPzTZXE3zPx3Jh9kMxYX0rAFZZ/zpZs3MLccetl8U3fu1NzdULt162Jgu+1zbzi6W+r9Q9vccWdwdYBwRYAOtDPcH+6lJ/WOrWWIUpg9kE9K9x9cTOo/H+O59sgqsdu6ZjfHwkNk6NR2ZW2gsA1kKGU9kMTc/MxdzcYtxw3cYmyHrza2+Mm69vF3xfxTWyatv5aKnvLPWZEGIBrAsCLIDuq1Mc3lDqj0tdHec48iqn/43k/3odgW3bD8efvvex+Nind8Wep2Zi48axZtRVTrrI1wLAWsuphTkZPkdjTU/PxzVXTcXXvuK6+Nvf/Mx4xg2reuXCGmLtjjbE+kjvsemEAB0mwALotnpC/TWl/jLa8OqsR14Njrh68NFD8Wfv3dZcUfDwkdmYmhqLyYnRpnOgeQDgQmjWySrt1PHZhZiZmY/LL5uMN7zq+njr1z0j7njmZc1r2j7MOY3Iqm3p3lLfVuoTvcdCLICOEmABdFc9kX5JtIvO3th7fFbhVf871l95/HD80bsfjY/ctbO5GlReUbCuRaJZAKAL6tpX8/MLzdVvt2wej5e+4Or4jm9+Zrz4uVc0r8nF4PuvmLtCtU19stRbSn2h91iIBdBBAiyAbqon0LeVek+p23uPVxxe5WG+vkO9Z99M/PG7Hm3WuDpw8PiJ4MrC7AB0VQ2ysq06NjMfU5Nj8ebX3BDf8623xY3XbTzxxstZjsaqbevDpb6x1CO9x0IsgI4RYAF0z2i0l/y+stQ7o50+eFZrXvWPunrXh56I3/3zR+KJnUdi88aJGBsTXAGwvtQ3XY5Mz8WN126KH/ibt8W3vPHm5rlzWBurtrGfLPXWUvuiWY0rFvpfBMCFJcAC6J4aYP2PUt8d5xhePXVgJn7tdx9ori7YrHE1PtoszO7wD8B6ldMGj8+1a2Tl1Qp/8vufG1ddPrUaIdYflPreEGABdI4AC6Bb6qW8/3Wpf9O7fxbhVb5LHfHAIwfj3//ml+LhbYdjy6Zxa1wBcNGoUwsPH52L22/dEj/zoy+K59629UQbeBZqm/tz0bbBtU0GoAMEWADdUdfcyKsh/UlvW56Cr+it5Pn5xWZ64Ifv2hn/4bfuaRa+3bhhrNkOABebbPNqW/fTP/LC5oqFtS1coWwo66irby/1F2E9LIDOEGABdEMGVXnSfEO0a3Dc0nu8oveQ69SJv/zA4/G2d9zf3J8YH2mu0gQAF6ucUjg7t9i0gz/1Q8+Lb33TM852OmFtex8v9apSO3qPTScEuMBW1DECYM39crThVb7bu6JjdD1R//P3PRa//N/ua955zhJeAXCxy7autnu/8o774i/e/9jZXmU3295sg58RbZsMQEesqHMEwJrI6Qn5zu6PlPqOOHlJ76HlVIk8Uf/T92yLt/3O/TE5Mdqs/2GULQCXimzzsu2bGB+NX3nH/fEnpU3MtvEs3sip0wazTc62OdvoFbXLAKw+UwgBLqx6xcGbop06mFMIc77D0HMe6sirv3j/4+WE/d6YnBhrFrZ1eAfgUpSzBjOzOj47H//wh14Q3/bms5pOmK1oVk4h/JpS28OVCQEuKCOwAC6sPBnOE+T/K9oQK+8PfYZdT8j/+iPb422/c19MCK8AuMRleJVtYbaJ2TZmG3kW0wlr+5xtc7bRK2qfAVh9AiyAC6dOUfi6Uj/Uuz/0cbmGV5/8/J74T//13hgfG43RcsYuvALgUpdtYbaJ2TZmG/nJz+8+mxCrroeVbfSbevdNJQS4QIbuKAGw6uqVjv7PUhOxgqmDef6dJ+Lbdx6NX/qte8oJeXsZcdPCAaCVbWK2jdlG/offurdpM9sQa/CVy6rtcrbR2Va7GiHABSTAArgw8h3cTJu+s9Qb4mSYdUaZUY2UDz1+fD5+8e1fir37Z2JycnSl7yoDwEUv28ZsI58qbWW2mTMz8zEysriS0co1tHp9tG12fqRRWAAXwFCdJQBWVV1XY2Op/713f6hT6fZFi+XkeyTe/gcPxt3374tNG8eFVwCwjGwjs63MNvM3/vDBpg3NtnQFLWdtp7PNzrY77w81YhqA1SPAAjj/6ru53xbtlY2Gvjx3TofIE++7H9gX7/zA4+WEfCIWhVcAcFrZVmabmW1ntqHZlq5g2n220dlWZ5udbffQo6YBWD0OvADnX51+8DODT5xOO3VwJI5Oz8V//p37e4u4Dzl0CwAuYdlWZpuZbWe2oUen55s2dfgM64Rsu+syAACcRwIsgPOrvov75lKv7t0f6ljcBFgjEe/84BPx0KOHYmpqzNRBABhStpnZdmYb+pcffKxpU1cQYNXR09l2v6l3f6jR0wCsjqE6TQCsmnr1oh8vNR5DrqPRXA68HLFzEdo/fe+2mJwYXcnUBwAg2qn42Yb+2Xsea9rUZiTzcM1pXb8y2+6f6G1zRUKA80iABXD+1JPfZ5b6m71tQx2Ha1j1P9+zLXbuno6JJsAaeBEAcFrZdmYbunPPdNOmttuGblBrm/23om3Lh3oTCoDVMVTHCYBVUaca/ECpzaXmY4gT34XFXOtqJLbvOhrv++j22DA1ZuF2ADhL2YZmW5pt6vZd000bm23tELLNzrZ7U7RteTKNEOA8EWABnB/1pHey1N8YeO70eufUf/WBJ2LPvpl29NWprwAAhpRt6MT4aNOm5lUJT2xcmbwaYbbpQ70ZBcC5E2ABnB91+uDzo10ANu+f8V3bdu2rkXKSfSw+dNeOmJq0cDsAnKsccZVt6odL25ptbLa1ww3COnEFwtdE26abRghwngiwAM6PenKb79jmArArWvj1fXc+2azXYe0rADh3/WthZRu7QtmGZ1teR1QLsADOAwEWwPlRY6e3nrL1DPIS37OzC/HBT+yI8THhFQCslmxTs23NNjbb2mxzV+gtvVutM8B5IMACWHt5rM13a28r9aLetjOeJtepgp+9Z288tv1Ib/SVc2QAWA3Zpmbbuq20sdnWpiGn6dc2PNv0bNuzjdevAlhjDrQAa68ea3Ptq6tiiBPdzKlGRtqrIn3g4ztidm6hWZ8DAFg92bZmG/v+0tZmdpVt7xDvFdU3prJNz7a9bgNgDTnQAqy9ut7VKwYen1ZOZdh34Hh88YH9MTk5ZvQVAKyybFs3lDb2S6Wt3XdgZiXTCGtb/sqBxwCsEQEWwNrLk9o8JX5t7/EZj701rPrsF/fG7n3Hmst9y68AYHU162CVNjbb2s98sZ1GOOQbRrUtz6sRZhsvwAJYY2fsRAFwTup7uVeWesnAtjO66+49w78YADgr2dZmm7sCtXnOtj3b+P5tAKwBARbA2qons88vtaX/ieXkG7+5Jsf+Q8fjoW2HYnxsqPU4AICz0F6NcCQeLm3ugdL2Zhu8gnY32/Zs45MAC2ANCbAA1lY9mX1xtMfcPCU+7QlunbqwY/d0HDw0G2Nj9cMAgNW32LS12eY+WdreZsuZE6xsy/NF2UhnG1+3AbBGBFgAa6seZ5/bu52vTyynnjPv3nssDh45Xk6qV/ROMACwAtnGZlubbe6e0vbWbUOobXpt4/WtANaQgyzA2qqLut58ytbT6b1/+9SBmZibW1zJFZEAgLOQbW22uXtL29tuOPX5M6htvIXcAdaQAAtg7eTpb747m8fa6/u2ndZo7xV7njpm9BUAnAd1FFa2vam2xWdQX5VtfLb12eYP95EArJgAC2DtbY0VBFgjvSFXe/fNxNiQZ9AAwLnJNnfv/nYEVm2Lz6A/wLqs/wkAVp8AC2Dt1BPbjdGGWCty+OhcO33QCCwAWFuL7TTCw0fmBp8ZRrbxm3r3h0q+AFg5ARbA2usPsIY6sZ2fX4xDR2ZjtJxNL0qwAGBNZVubbW62vdkGD6m26dnGZ1sPwBoSYAGsvTyprVMLhguwFhbjyPRcjJhCCADnRba5R0vbm23wCm0pNTW4EYDVJcACWDs1fcqT2rw/9NWJFjLAMoUQAM6r47PzK7l4Sm2ls081MfAcAKtMgAWw9mqQNfwpceQVkRZPnBkDAGsnQ6sc9DxzfKFpf5ttA69ZRn1zqgZYhk4DrBEBFgAAAACdJsACAAAAoNMEWAAAAAB0mgALAAAAgE4TYAEAAADQaQIsAAAAADpNgAUAAABApwmwAAAAAOg0ARYAAAAAnSbAAgAAAKDTBFgAAAAAdJoACwAAAIBOE2ABAAAA0GkCLAAAAAA6TYAFAAAAQKcJsAAAAADoNAEWAAAAAJ0mwAIAAACg0wRYAAAAAHSaAAsAAACAThNgAQAAANBpAiwAAAAAOk2ABQAAAECnCbAAAAAA6DQBFgAAAACdJsACAAAAoNMEWAAAAAB0mgALAAAAgE4TYAEAAADQaQIsAAAAADpNgAUAAABApwmwAAAAAOg0ARYAAAAAnSbAAgAAAKDTBFgAAAAAdJoACwAAAIBOE2ABAAAA0GkCLAAAAAA6TYAFAAAAQKcJsAAAAADoNAEWAAAAAJ0mwAIAAACg0wRYAAAAAHSaAAsAAACAThNgAQAAANBpAiwAAAAAOk2ABQAAAECnCbAAAAAA6DQBFgAAAACdJsACAAAAoNMEWAAAAAB0mgALAAAAgE4TYAEAAADQaQIsAAAAADpNgAUAAABApwmwAAAAAOg0ARYAAAAAnSbAAgAAAKDTBFgAAAAAdJoACwAAAIBOE2ABAAAA0GkCLAAAAAA6TYAFAAAAQKcJsAAAAADoNAEWAAAAAJ0mwAIAAACg0wRYAAAAAHSaAAsAAACAThNgAQAAANBpAiwAAAAAOk2ABQAAAECnCbAAAAAA6DQBFgAAAACdJsACAAAAoNMEWAAAAAB0mgALAAAAgE4TYAEAAADQaQIsAAAAADpNgAUAAABApwmwAAAAAOg0ARYAAAAAnSbAAgAAAKDTBFgAAAAAdJoACwAAAIBOE2ABAAAA0GkCLAAAAAA6TYAFAAAAQKcJsAAAAADoNAEWAAAAAJ0mwAIAAACg0wRYAAAAAHSaAAsAAACAThNgAQAAANBpAiwAAAAAOk2ABQAAAECnCbAAAAAA6DQBFgAAAACdJsACAAAAoNMEWAAAAAB0mgALAAAAgE4TYAEAAADQaQIsAAAAADpNgAUAAABApwmwAAAAAOg0ARYAAAAAnSbAAgAAAKDTBFgAAAAAdJoACwAAAIBOE2ABAAAA0GkCLAAAAAA6TYAFAAAAQKcJsAAAAADoNAEWAAAAAJ0mwAIAAACg0wRYAAAAAHSaAAsAAACAThNgAQAAANBpAiwAAAAAOk2ABQAAAECnCbAAAAAA6DQBFgAAAACdJsACAAAAoNMEWAAAAAB0mgALAAAAgE4TYAEAAADQaQIsAAAAADpNgAUAAABApwmwAAAAAOg0ARYAAAAAnSbAAgAAAKDTBFgAAAAAdJoACwAAAIBOE2ABAAAA0GkCLAAAAAA6TYAFAAAAQKcJsAAAAADoNAEWAAAAAJ0mwAIAAACg0wRYAAAAAHSaAAsAAACAThNgAQAAANBpAiwAAAAAOk2ABQAAAECnCbAAAAAA6DQBFgAAAACdJsACAAAAoNMEWAAAAAB02sji4uLgNrgUjAzcVoOP4VyMlZov9YpSn+zdz21ndGxmPn7i//hoHD02F6OjdktYV8qp1YLzK1h3FhYWY9PG8Xj7z78+NkyN5Z/yMCeGtW3/mlKf6d3PbbBaBhuU+nhwO1z0BFhcCvLco1aOOlwIJxacXy8odU+sMMD6wZ/5YBydFmDBepSdX2B9OccA64Wl7h14DtZS7ne1b5O7ay24aAmwuBjlgbwezLOWks9fVmpTqY2lpkqNR9sQ6HWwWuq7sBlg/ddo98ehpm4fP74Q/+aXPhfHjMCCdaf0gePRxw8bhQXrzFkGWLVt/+FoAywjsFhNuRvOlporNVNqutTRUofi9P2cM/WFYF0SYHEx6B9hlTt0/4E6t11Z6nmlXlzq+aVu7NW1pS4vtbXU5hBcAbBKjKCE9ecsAyw4HzIUPVLqYKkDpXaXerJX95X6YqkHSu2LU/tCGWTVPpIRWqx7AizWszwYZ+iU70j0u6PUq6Jdd+i1pV5SakuceeSLAztrpU5fXZE8kQbWn2YNu3/xUQEWrDPnGGDVaVywmvrfqD+d3P8Ol7q71MeiXY/trlIP9b8o2hknGYbZV1mXBFisRxla9Z8k5IH4q0q9tdRboh1llaOrBuXr65Du/oZg8BYAzloGWD/2sx8RYME6c44BFqyl2u/pv633s2+01K6ao7RydNZflXpntOFWfeO/vrlquivryopHBMAFUkdb5W191+DWUj9b6n3Rvsvwf5d6Q7ThVb4mD9D9ixrmx2bYVde6qvPDh3lXAwAA4EKo/ZXaf8m+TO3X5Pba38m+T/aBsi+UfaLsG2UfKftK2WfKvlP2oeob+/19LOg8ARbrQR5U60E2b78p2gWxc673/xvtgbk+n5UH7npQF1ABAAAXs/6Aq75Zn32i2j/KvlL2mbLvlH2o7Etln6q/j2U9YDpPgEWX1YNoHlTzKoHfW+pDpd5d6u9EexXBelCu7x7UkVUAAACXqjpSq38WS1b2obIvlX2q7FtlHyv7WvlcEmTRWTr6dFEdGluDqTyovr/U70X7zkHqf6fAQRYAAGB5td9UR12l7FtlHyv7WtnnqkFX7Y9Bp9gp6Zoc8prDXbPeVOo90R5U82qCeTCta1rVdxIAAAAYTp25UtfMyj5W9rWyz5V9rzf1tmdl3ww6Q4BFV9S1qnLRwZtL/Xqp95b6+jj5LkGdHii4AgAAOHt1zazsY9XZLdn3yj5Y9sWyT5Z9s/o6uODsiHRBHjTryKofKXVnqR+Pdv/M7fVdAgAAAFZXnd2Sfa/sg2VfLPtk2TerI7X0x7jgBFhcaDXxf2apPyz1m6Vu6W3Lg+V530fziwIAwPDyDFKpta41l32v/ELZF8s+2W9G20d7Vm+bEIsL6ryHA9CT+15WHgj/dqmPlvrOODnfelXXuFosh+GFhcWY79VibljGqn1RAC5Jo6NaErj05N+9UmtdPYulu7Q416v6vv+qyS9UZ8hkZR/tI9H22SzwzgU1crqOPKyROjUw/atSP9fblnOsV22hwNy36+59us7E/PxiLORrsx3I//mTAOAcHJuZj3/0r++Mo9Nzp21/gG7JNzs3bRyPt//862PD1FgTCQz9Fzw/nf+JFXwEnEHdA0s3aSRrrNRpukpNkJXKx4wMBF7npvbRsv/2c6X+z972/j4dnBcCLM63OmXwylK/Vuq74uSY2FVJ8vPkY6QctJvjds+BQ8djx+7p2LX3WDx14HjseWo69u4/HoePzDZ19NhcHJ9daMKs2TnHYQDOTYZYwPpyVgFWhgYjYzF71zfH4r47Szd/a1+QAOcoA6vRqbKLbSj71mWlroqRyVJTN8bIxlsi8nbDrRGbbi/br+37wMV2lFaGXqujrkuclVMKf7LUvjjZt4PzQoDF+VQPcM8q9d9Lvab3OIOrM54fnE7uxrkv97/TnWHV5+7ZG5+6e288/NihOHR4tgmy5uYXY2xspHltvny0F3Zl6JX6gy8AOBtGXsH6c04B1p1f2wuwtgiwWEW99/mbPnve5r7VTBtpN2UfZiJDratjZOvLYvTat8TI1d8QIxuf2fcpMsjKO+c8ViC/Yl3q5eOlfqDUV3qP7fScFwIszpccdprDT19Z6vdL3VZqttRE/4tWqk4TrB2F2dn5+Ow9T8UHPrEjvnDfvtiz71gTUGVgNT422txmQHVit8+Df3MsPsmfBADApeecAqyPvzEW932knPFeLsBijWRa1butj5vOTOlSLZRq1sMqjzfeHKNXfV2M3vSD5fYbInL0Vmr2y/wc5xxk1T7cI9HOpvlsnOzrwZoSYHE+1ANajrj641I3xDlexWJwxFWOtvrgJ54stSO2PXkkZmcXYmpyLMbHR08JqezuAAAs5dwCrDcIsLhAMpTqC7UWjpeaLncnY2TLC2P0pu+L0Rt/MEY23tq+pNlnz3kCTO3LbS/1HaU+GUIszgMBFmutDil9Xak/i3btq7MOrwaDq+27puOdH3gsPnzXzti5Z7oJrCYnRpvpgP2LuAMAwOkIsLg49EZZ5dTBhWPN6KyRjc+KkRu/J8Zu+fsxsvnZ7cuaqYW5h59xL19O7dPlWlh/M9qryptOyJoSYLGW6gHsFaXeWeq63uOzCq/ypKIGV3v3zcSfvGdbvO9jTzbTBHO01cTEqNAKAICzIsDi4pNXL8xRWTOlF3YsRjbcGKM3/XCMPuuny/2b25f09uGzVPt2u0q9tdRneo/9EbAmznkCLCwj9608cD231P+MNryqi/6tSJ481HWuDh+diz9451fin/3bT8b/+ItHyuPZ2LJ5IsbHR5qTDuEVAABAygXfM6CaiJi4PBZn98f8w78Qcx9/fSyU28XZfb3wKrtpZ9WRqmFV9vWyz5d9v3wsZ2BN2LFYC7lf5VHw+mgXbL8lzvJAtrC42LzzlW8cfP6+p+Jf/MKn4r/8/pdj34HjcdnmiWZRdsEVAADAcnIdlgyyxtsga+bJmLv/Z2Puk98QC3vfHycuCp/TCleuhljZ58u+X/YB8xOtuO8HZ2KnYrXVidSTpX671EuiXcxvxSOvmimDIyMxMzsfb3vHffGvf/Gz8cjjh2PzxvFmxNW84AoAAGBINciabKa7Lh66O+Y+9a0xd88/iZjPhd9z7ayzmv2Xfb3s82XfL/uA2Rc8pwW2YCkCLFZbnTr4C6W+OdoDWV6RYkXqelfbdx6Nf/n/fSb++K+3xXh5nOsRGHEFAABwtnpB1timZlTWwlf+Y8ze9S2xeOTL7ZTCswux6lUIsw/47+IsZ+DA6dihWE11+OiPlvqnvftnHV59/HO74p///KfiSw/sb6YLZmaVzwEAAHCOmimDIxETV8Tivo/G3CffHAs7//RcQ6z8wJ+Otk+Y91c8EweWI8BitdSRVy8s9e+jXQVwxfvX/HwbXr3rw0/Ez7/t7jh4eLa5GozgCgAAYLXlaKy5iPHLYnFmd8x97vtj/vG390KsHFC14n5YXQ85+4QvCiOxWEV2JFZDnd+8qdSvl7o82oPWiuY8Z0iVi7L/+fsfi1/6rXsjP3xyYlR4BQAAsJaaKYUbI6+eNf/Fn4qFbb/STC9sR2mtqD+WfcD8gOwT/lq0fUTrYbEqBFishjr66mdLvTbOYtH2Om3wT9+zLd72jvub4CofC68AAADOg3qlwtGpmLvnp2P+K7/UG4m14qsT1kXds2+YfUSjsFgVdiLOVQ2vXlHqn0ebtq8ovKrTBv/i/Y/Fr/7uA014NZJXcbVSOwAAwPlT18Ua3RDz9/1MzG/75TbEWsg8akWyT5gduuwjZl9RiMU5swNxLuow0LxM6i+W2hArnDpYpw2+84NPxNt+5/6YHK/h1eArAQAAWHu95YxHN8X8PT8TC4/9Wrmf0wlXtLB79gmzb5h9xOwrZp+xboezIsDiXNQF+n6k1BtjhVeZqNMGP3zXzviVd9wbExlejQqvAAAALqw6Emsy5r70T2Jhx+/3phOuKMSqV6nPvmL2GfOTyiA4a3YezlbuOxk1XVfqX/buD52m1/DqwUcPxX/4zXtidGSkKeEVAABAFyy2odXIaMzd/ZOxePDTZxNi1UXd/1Wp63v35RCcFTsOZ6sOCf1HpW6NFcxpzpAqw6uDh2fjF//Ll2J6Zi7Gx0djQXoFAADQHbkm1uhkxNzhmPvCj0Uc39OGWE1XcCh1zeRbSv3DWOGSM9BvqMABBuQBJw9CN5b6x9Gm6ENPHcyX58Ltb3vHffHQY4di49S4qw0CAAB0UY64Gr8sFg9+Iebu/afl8VzbAxxeXdA9+47Zh8y+pBCLFRNgcTbqfvPPSl0dK0jRM6gaGRmJ9935ZLy31JZN4zEvvAIAAOiuDK0mLo+FJ36n2tmwUQAAIABJREFU1H9rphWuYCphnb2Tfcf/rfdYFsGK2WlYqbpw++2lfqp3f6j9qE4d3L7raLzjTx6KDVNj1rwCAABYF0rnbWxjzD/4c7F49MGzmUqYL/4H0fYlh+5HQmWHYaXqInw5/HNz7/5Qo68WFxebwOoP3vmVeHL3dExOjDbbAAAA6LhmPaypWDz6aMw//O/ax8P352o/MvuQdRmaofqRUAmwWImamj+j1N+JFRx06lUH731wf7z/zh2xOacOzg99sAMAAOBC662HldMIF/bf2Y7CWtlUwuwEZl8yF3U3CosVsbOwEvWA8/2lro0VHHBy3av0x+9+NGaOz8Vo7zEAAADrxWK7/tXCsVh4+BfaUVj5eDh1QMQ1pb4vVjAgAtLQexqXvHrlwQ3RXv40DbX/5KjSzKsefeJwfO6ep2JqasxVBwEAANajHHE1tjkWdr87Fva+L5quYgZZw6l9yH8Ubd/SFQkZ2lABBMTJfeW74uSie0MdaGpU9SfveSwOHZmN8VG7HQAAwLpVR2Ftf0fvcf5nqEEK+crsS95W6rt723QQGYodhWHUqYMTpf5+b9tQR6dcpD0/eNv2I/HBT+yITRvHY2H4hf4AAADomhxxNb4lFnb+USwevidWOAorO4RZ2bfMPqaphAxFgMUw6lzl15d6Xe9+XjP1jOr0wT9777Y4Mj0bY6MjK7hQBQAAAN2THb3SJZw9GPOP/sdo86ehM6jsS2avMPuWb4gVrK3Mpc1OwjBq5PQzcfJgc0Y5+iqvPLhj93R89DO7Y2pyzOgrAACAi0GOuBrbGAs7/jgWjz7UTitc2SiszCOyj1kfw2kJsDiTGlh9dalvirNIx9/z0Sdjz1PHYnJi1OgrAACAi0Lp3I1ORRzbEQtP/Nbgk2dSZ/l8Y7R9zewpDjXLh0vXioIILkl1fvI/KLWxd/+MY0PbqYMjcfDQ8XjPR5+IjVNjMT8vvQIAALho5BUJxzfE/OO/HYvHd7frxww3mKq+MPuY2des/U5YlgCL06mp+DNLfV/ftjPK6YPpfR/f0UwhnJgY6sMAAABYN3qjsKa39a5ImIu5zw++aDm1k5h9zexzrni2D5cWOwenU0da/USpy0rlkejMo69K5dpX08fm468/8kSMj1u4HQAA4OKU02/GY/6x34iYO9Qu7j7cYKrsW2YfM/ua9Wr3Z+xvcukSYLGcOvrq6lJ/N4acOpgWF9qD1Sc/vzsefPRQbNwwfmJEFgAAABeRXLh9fHPEoS/Ewq4/j3YU1tCLudephH8n2r6nUVgsy47BcuqB5LtL3RorOJDk2lcLC4vx5+97LMbHRldw7AIAAGD9WWhGXs1v++V2CmFekXC4UVh14ET2ObPvOfTACS49QwUSXHLygJEHkQ2lfiqGPPKkDK5y3b5Pf3Fv3PfwgdgwNVo+eOgPBwAAYL3JGTdjm2Jx/6diYc+7Y4WjsFJ2GrPvmX3Q/EAhFk8jwGIpddLyN5V6Se/+UPtKrn2V0wX/6oOPx9zcQjMay+xBAACAi9liO+pqYSYWHvvVNrxqRmENpQ7Xyr5n9kHzfvZJ4RRD71FcUuplI34yTh5MzpiAL/SSqgcfPdiMwMq1r3JEFgAAABe5nDo4vjkWdr87Fg9+prdtqFFYdfma7HtmHzQNfSlDLh0CLAbVwOqlpd7Suz9c+t3Lqt75gSeaKxCOjZ0x8wIAAOBikVcgnD8a89t+NR/EiU7imdVZQNkHXdEsIC4ddggG1dTpJ0pNRDv/+Ixy9FVOH3xy19H46Kd3xaZNYzE/P/TBCgAAgPUuR1yNbY6FnX8Yi0cfagOt4UZhpXxh9kHrKCwjIjiFAIt+uT/kUM0bSn1vb9twB41eVvW+O3fEgUPHY3zUrgUAAHBpKR3D0YmI40/FwhPvOLltOLXv+T3R9kmzb6pjyQl2BvrVA8b3l7ouhjxgNGM7R0fi8NG5+OAnnoyJiVELtwMAAFySFkoHcTIWtr8jYnZfOwpruBCrDqi4vtT39bYNN6CCS8IZwwkuGXlgyCGbk6V+rG/bGS32Fmr/8F07Y9v2IzE1OXZiQXcAAAAuIc00wo2xeOShWNjxBye3Daf2QX882r5pfuBQ/VIufgIsqrov5GVLXxjtgWKo/WN0ZCTmFxbjXR96IsbHc/SV8AoAAOCSlX3C0dGYf+zXy/25iJGhupYpX5h90eyTZt+0bgM7AifkQSKTp78XJ68AcUbN4KuRiC/c+1Q8+OiBZvSV/AoAAOBSlqOwNsTigc/Gwt73RzuIKmcHDiV7lNknzb5p3h96+BYXNwEWqV7f9Lmlvq23bch9Y7H5/7s/vD3m5hZj1OBOAAAAMoNanI2Fx98ebb9x6M5i7Ytm3zT7qL1hE1zqhgwpuMjV/eBHS22INho/4wFiYSEDq5F49InD8am798SmjePNVELg/2fv3p4kOc87vz+ZWdXVp5npOWIG5yNJABQJiuAJpCiSoi2uZVlaUSFSEY5dR9h/wMauIzb2emMVtvfWd76wtV6HRFmSxZXXQUoURVEgQIAgAVE4EMT5NMeenp6ZPlZVZjqfzHyma5Loyjd7eiqzqr6fiGRVvVWlC2RlC78f3vdNAAAAYMrFSaxsLUp04VsSr72QJEzPdS8sm66l2fS/y8foLsCPANf+OCzJzp0eKvnOE6fl6npPgqC08wIAAAAATIU4SZstkd6qRO/+oews/Knk65JlVadJFphsFFiw38CvJ8e9kq0v1vXGQ+k+V57vpcXVD358XtptXyKnMh0AAAAAMB2SkOjPSHT2z0V6K/lm7k4llmZSTZj3JMdX8jH6iynHDwD21+N/yJ87/TXROw1q/f3kT87L6fMb+ebtTl8FAAAAAEwDXTIYzEu88aZE5/5C0klUbssIleXT/37gNaYYBdZ0s1b7Y8nxWD7m9JvwfU/CMJa/efKMBMlzuisAAAAAwC+K0v2vwvf+o0jcz2dhObEPalbVzOq0WgiTy/mXg4mme1/NS/YHoXRdsW7erl56bVVeeuUys68AAAAAAO8vnYU1J/GlJyRafVIqzMLSbKof1Ky6p/2aMVkosKaXbd5+IDn+23ys0u/hrx8/Ldu9MJ2BBQAAAADA+9LN3MNtid75P/IB5wkQllE1s2p2ZTP3KVapsMBEsamXv5Uct0n2F6T0D4FOtNLlg+eWN+Unz1+UuU4gEbOvAAAAAAC7iUOR1pzEF78l8eYbSfK03WxK2a0LNbP+dj7GMsIpRYE1nWz2lZ7/35fsD4K+LmVLBfXOg+dXttK7D9JfAQAAAAB2pzMhOhJvns7uSJgOOQdJzar64a9LlmGZhTWlKLCmk9279IPJ8cV8rLTFTqdo6eZ7YSx/++QZabd8iZxKcwAAAADAdNPN3AOJrtvM3anEsqyq2fVDkn2JLmMKcdKnmzbYc+K4eXscxXrzCHn2pRV5+8y6dGac/+AAAAAAAKaZzrgK5iVef1Wi5e/IHjZz1+yqGRZTigJr+gxe/HYnh9LySunsK/2b83c/PCNb2+G11wAAAAAADBdns67CNYlO/1H+2imKKvvg70l2V0KnSRiYLBRY08emTX05OR6Q7MIv/R1oUaV/Wy6ubsmTz16Q+dmWRBHtFQAAAADAkc64CuYlOv9NibdOy048LaUf1OyqGfbXhGWEU4kTPn1sjqbOvnL+a2Gbt3/vh2dlY7MvAb8cAAAAAEAlOjOiLdLXWVj/Vz7ktIxQWWllK4mcv4jJQA0xXewWpCeT4zfzsdLfgHZXvu9JtxvJk8+ezwbdp3oCAAAAAJBJo2Qs0blvioSbVTZzt+yqWfaUZF8imE6R0vICE8Xu3vC7yXFQHNcN2+yrV968LC+9elnm51g+CAAAAADYgzgUaR2QePUJiS4/k485Taay/Zw1y2qmVZZxMQUosKZL8pdC2snx1fx1pRbqb548UxwCAAAAAGAPPIlO/8f00WFehbEM+zuSZVvNuJgSFFjTw+ZlPpwcn8ufl7bVtnxw9UpXfvL8RQkC7jwIAAAAALgRUboXVrz8bYm3z1VZRqgZVj+omVazre2LhSnAiZ4eVmnrhnctcdzwLsrbqqeeuyBnzm/KbCe4tqQQAAAAAIDKNFMG8xJvvCXR+b/Mx5wnU2mW1Uxrm7k7T9/CeKPAmg62Vng+Of5p4b2hfM9LS6zv/+ictFrJc6faCwAAAACAYXQWVkuiM3+S7YHllS4QKtJsqxnXaW9njD8KrOlg8zE/nxwPSHaBl557LcX1ZoPvnd2QF1+5JJ0ZZl8BAAAAAPZBul9NR+LVH0i8/nI+6DRjQrOsflCzrWZclhFOCU7ydLDW6bdlp8wqbaitrPqbJ87I1laY7oUFAAAAAMCN0wKrJdLflPC9/1PSiOo2YUKDqZVWmnGV0xcx3iiwJp8tHzwkOxd36XlP/xr4nmxuhfKTFy6KH/j8SQAAAAAA7CNd9hNIvPzXIv21fBmhU/C0TKsZV7MuywinQGmRgbFn5/g3kuMWcZ19FWV/NF5+/bK8+uYVmZsNrm3oDgAAAADADdO9r1oLEl95RqLVp3QgGytns7A042rWVfQbE44TPNnsola2ebvzrR3UX/3gdHEIAAAAAIB9Fb33v0sWYUvnWxjLtr+TPzpN1sD4osCabLZ88I7k+FI+Vnprh3QvPd+Ty1e78rNXVyUIPMelyAAAAAAAVKHLCNsSrT4h0r2QPLdtm0tZtv2iZJmXZYQTjgJrstnF++XkOCJZQ116QUf58sEfP39R3ju7LrMd7j4IAAAAALgJdMlgsCDx+tsSLf9VPua0cEizrX5Qs65mXhvDhKLAmmzWOn1t4HkpnX2lhdVTz11IN293W4IMAAAAAMBexJKkUInOfTNbEpRu5u5Ms+7XB55jQlFgTS49t1o9PZAcnxbHxcTp34rkU8uXtuXZFy7K7AybtwMAAAAAbiKdcRXMSnTxryXeekeu3855KMu5n5Is+2oGpueYUJzYyWVl1X8p2W1FdWpl6fm2survnjora+t9CfzSzgsAAAAAgBvjt0V6VyU6843stdtSIM24mnU182r2VYTYCVVaaGAs2VpgpXcfdKqu083bPU/6YZTOvorTzfSKnwIAAAAA4CaII4mWvyMS9aTCZu5KP6jZVznt/YzxQ4E12e5Njs9JdvGWnmstrHT54Nvvrcs//nxV5uda1zZ0BwAAAADgptFlhK1FiVe+J/HaC5LGWLftbDTraubV7KsZGBOqtNTAWLId734rOTriejvR/G/Dj356QXq9SDxtswAAAAAAGAWddRV3Jbrwn/MBpwJLg6tmXs2+v52PVdoFHuOBAmvy2MXbSo5/ko85LR7WwkoL7sefOS9+pdmaAAAAAADcKA2hvkRn/yzbAytdRujEMu9XJMvCbpM4MFacfw0YG1Zg3ZMcn5HsL0Bp+6xLBXXC1YuvrsqZ8xsyMxNke2ABAAAAADAKOqMimJd4/S2JV5+QbBmhbe88lGZeDbCagTULU2BNIAqsyWMXqd6BYVEqXrg//dmKXLrSlXaQzcYCAAAAAGA09EZibZHuikQrf1t8cxibyKEZmLsRTigKrMljtdPvDDwfKp2k6XvS70fy9z86JwvzLQnZvB0AAAAAMGrpZu4zEp35U5GoK+KVLigapEFWs7A9xwShwJosej61dX4gOX5Zssa5tHW2mVavv7smZ85vSovZVwAAAACAWujeVzMSb7wq8ZWf7oyVs/yrWVgzsX6JzmOCcDIni90+9FeTYyk5dLFw6TmO89lW33/qrGxs9iUISr8CAAAAAMDN4bdE+psSnv3j7LVu6F5Og6xmYM3CX5AsGxNuJwgnc7Loxapt1H9VfGM36R55gSdb26H87PXL0mp5jn8bAAAAAAC4GXQvLF/i1R8mKXc9X0ZYaZmQZmL9gtMO8BgPFFiTQ9tlvUBPJMeX8rHS8xvnawXfOr0mL76yKnOzLYlYPwgAAAAAqEu6D9aixJd+IPHVFySNu24zLSwDf1GybKzhtnRbHYyH0oIDY8PO5VeS45BUvFCfem65OAQAAAAAQK2iC39ZHBrGJnZoJtZsrOg9JgQncjIMFlW/nj+WTpVMGy7PS2dc/einF5L/I9pqFz8FAAAAAMCoZXMyovP/bzb7ynOuLywLWzZWzpM70FzOvwA0nl6kx5Ljc/nr0nMbRbF4yWX84quX5fS5DZnp+MmfCBosAAAAAEDN0g2bFyRef0viS09ItoywdJ6Gsiys2VgzstOX0HylJQfGgp1HvV3oneJ4u1CroF965ZKsXulKK/DSvxEAAAAAANRLN3Jvi3QvSbT6g+Kbw2gW1kys2Vgzso1hzHESJ8tv5o9ONZTve9IPI3ny2QsyP9dKZ2QBAAAAANAI6WbubYnO/YVI1K1yN0L7kGVkTAAKrPGnE6m0Xe7Izt0HS9lMq7MXtuStd9ek1fKZfQUAAAAAaJAk6vozEl99XuLNN4tvutCMrFlZMzP7YI05Cqzxp+dQq6ePJ8d9+fPS82qzrR5/5pxsbIcS+FzLAAAAAICG8Voi4aZEZ/80e+2+D5aGXs3ImpWdcjKajRM4OT4vWbOsV/PQNiq9cv1sv6tX3ricbeZe/BAAAAAAALVL0moUSrT6o/yl0zJCjbiajTUja1bGBKDAGn/FW4SWn9M4u/vgueVNef7nq7Kg+1+xfhAAAAAA0DQ646q9IHLp+xKvvyLZ3Qid8qtlY8vKTlO30FzlZQeazCZO3ZEcnyqM7cqu9dfeuiKXr3avzcYCAAAAAKBZ4vRuhHF3ReIrz2Wvy2dgKcvGmpVvL4xhDFFgjTedO6l+LTnmJLuKnS/I7/7wbFpeAQAAAADQXFpiiYRn/kiyyOuUY/VDmpE1K385H7MMjTFEgTXerHa2uw+WTom0/a/WN3ry9um1bPN2p/IaAAAAAIA6aIHVEll7QaS3mjy3PdpLWUa2zOz0JTQTBdb40nOnF+Ph5PjswNhQUZhdr888vyLvnFmXTidg/ysAAAAAQHPFkUiwINH66xItfzsfK52/oSwja2Y+IlmGLs3NaCZO3PiyOZMPJ8e9yZFc0eXn05YMvv72lezug04zLwEAAAAAqJMnXtTP98HSl6XxV+mHNCtrZn4oHyMFjymnM45Gs7W8TtOotLDq9SJ56rkLMquzryKnrwEAAAAAUJ90FtaMROf/k0i0JVmd4ZRn7UOWnTGmKLDGV+WL0FYKnjm/KRdWtiTwfe4+CAAAAAAYA0l49dsSb74r8cbrO2PuKk3+QPNQYI0nmwZ5X3I8ODA2lM22evyZc7K+0ZcgYOYkAAAAAGAc5Bu599ckOvun+ZDG4lKWlTU7a4Z22n4HzcNJG0923j4p2UZ0bletn1XNr71zNX2kvgIAAAAAjA8vLa2yfbA01QbFD+xGM7NmZ83Qii5kDHHSxpMVVr+SP5b2UXqnQc/z5Oz5TXnx55dkYa4lIftfAQAAAADGhd55sD0v0aXHs2WEuslz+SwszcoWfi1Dl34JzUOBNZ70Ymsnx5fy1+XnMb9c3z27LpeudK/djRAAAAAAgPGgywhnRLYvSLz+8s5YOcvMvyZZlqbAGkPlxQeaZnD97v2Db7jQ/a8orwAAAAAA40lLLE+is39WfMNFpX2k0SycsPFj5+yLki341ea4tJHS0ko3cX/1ravpLEu3khoAAAAAgCbJdtCJL/84W1LoaSwuDbiagjU764c1Syv6kDHDCRsvdtGpx/LH0qmPdvfBn79xRS6sbMlM20/3xAIAAAAAYKxolvXnJN56R+LLz+RjpbFYvV+WLp0MguagwBo/dveEj+evS8+hdVWvv31VLl7aklar9CsAAAAAADSQFlgzEm+tSHzl2Z2xchaENUtrpnZqvdAcNBnjxc7XB5PjXskuuNJzGAReWmI999KKdDqBYzkNAAAAAEATReIFvkQXv5s+z5YRltLsrGlYs7RmahvDmOBkjR+d4vir+WNpzWyzr9Y3+vIPP1uRmRbLBwEAAAAAY0xnZfidrMDqXRbHeKyyDbR2MjXGCAXW+NEL7gvFwTJvvHNVev2IOxACAAAAAMafzrqKtiW6+tPsdbWJGlpgVfoC6keBNT60eQqT42hyPDQwNpRt4P7D587L2lovXU4IAAAAAMD4SnKu1xLprUl0/pv5mMblUhaIH5YsW+uXCMljggJrfNi5eiQ5TsnO1MddpTdn8HX/q1hOX9gUP98LCwAAAACA8aYlVvK/669nSwq10CqfVGVrDTVTa7ZW9CJjghM1fvSOCXpl9qWkwFJe8olzF7bkpVcuy9xsKy2zAAAAAAAYa1pateZFLv1A4s03JWuzSvOuZmjN0pqpNVtjjFBgjQ+bD/m5/LH03FlZ9d65DVm9si1BOhur8CEAAAAAAMaOzsCakbi7LPH6Kztj5SxLW7Z2WnuI+pWWIGgEm2l1IDk+nT93Pnc/eeFiWl4BAAAAADA5tMTyJFr+VvGNYSxLa7bWjK0IzGPAuQRBrexi0jW6xwbfGEaXD6oXX11166EBAAAAABgz8eoP82eVKg7N1h/Ln1NgjYFKZxe1sfP0WckurCh/3JUuFfQ8T84tb8rq5W1ptXz2vwIAAAAATI70zmUzEm+fkXjzjXwWh8blofRDdvfBx/IxupExwElqvsEr0DaZK70ioygrq1569bK8d35TOm0tsAofAgAAAABgbCXR2J+TeP0diS/ls7B0c/dylo4HM/bQSSKoHwXWeNCL6XByfCR/XXrebPnge+fWs5lXXIoAAAAAgAnkJZE5Xn85f1Ual5V9SDO2Zm2n1gv1cjqzqJVVT3clx/2SNcWl5833PQnDWH78/EWZnQmuzcgCAAAAAGBi6IyroC3R8reT5/0kQWtcLs2/9iHN2Jq1FdM+Gq60CEHt7CL6pGTnq7QZtqWCV9d78u7ZDQlaHssHAQAAAAATSFcctSVe/7lId6X45jCarTVjfyJ/TYHVcBRY40M3cHcS523zS69dlm43lMDWEwIAAAAAMFG0wApEwk2JVp/Mh0rnfQz6XHEAzUSB1Xx65SVXozySvy5to+xa/YeXVmR9o58uJwQAAAAAYCJpgdXflGjlu/mAU4FlQVmztmZupy+hPhRYzTa4LvfOfGxoG5VukJUXViur2xIEXvnqXwAAAAAAxlkSg+OtM/nzljjsg2XZWrO2837TqA8np9ns/DyUHEvi0gjr7MnkMry4ui2vvHFZOp2A/a8AAAAAABMsFAlmRS4/I/H2e1Iy72OQZmzN2pq5FR1Jg3Fyms2qp4/lj3pxDb0S47ytWr64LWeXt6Td8q+NAQAAAAAwcTTz+h2JN94Q2Xw3Hyud/6HZ2j5kmZvw3GAUWM0W5o96B0LlfL7ePr2WzsQCAAAAAGAqJBk4WnuxODqMZWzL3JbB0UDOhQhGzuqnRamwgbt5+h8vFIcAAAAAAJho8YX/XBwaxjK2zsDS7D04hoahwGouu2g+lBzHB98YxsunXZ1f3spmYDEBEgAAAAAw8bI92OONt7LnXqW645hk2VtRYDVUpTOKkbJz82j+XK/GoRdSFMdpaXV2eVOurPUkCJKLlwYLAAAAADDp0n2w2hL3liXefFPS+Oy+D5Zmbs3eip6koTgxzWfLB0vX4tpe7a+8cUXOnN+QmbZu4H79ZwAAAAAAmDxaYM2mM7Di1R/lY6UFlrIPWfZGQ1FgNZO2wP3kaCXHgwNjQ9kHLl7aln4/m40FAAAAAMB08MSLY4m3T1977cA+pNm7LVkWd/oiRosCq5nsYjkpOwVW6bny/exrr7x1Rdo6+8qpbAYAAAAAYBIkITjJxfHlH2cv3fbBsg9p9r4lf06B1UBOZxMjZxfLnZJt4K5VlNMFtN2N5PmfX8qWD7L/FQAAAABgWqT7YHUkWvm+SLghWYwuzcW2D5Zm77sGxtAwFFjNZmtwS6842+vq6lpXtrbCtGhm/ysAAAAAwHRJwnC4LnFvpfjGMJae2QerwSiwms3uglAqztuqV9++KtvdUHw2wAIAAAAATJU4WzYYbuwsI6y2t87HiwNoDgqsZrIr7CPXjQ5hs62ef/mSbGyFEgQUWAAAAACAKeO1RPqbEl36+3yg0tIky+CVWi+MBgVW8+g50SvstvxQpW2UTbi6fLWbPal0jQIAAAAAMEG6F/InpXFa2Ycsh2uipi9pGE5I89iF8wHJNpHTC2foFZfuU+d7srUdynvnNtIN3CMKLAAAAADA1NE7EQYSr78iEq4laToQhxkettu7ZvAPDoyhQSiwmscukgeSQ6+0cGDsfdndBs8tb8prb1+Vzox/bU8sAAAAAACmhu55FcxLfOUnEm+8mY+V5mPN3Jq9NYNrFrcxNAgFVvPYWtsPXzc6TH4tXlnrSbcbiccG7gAAAACAaaUbuUfbEvcu5gOlBdagh/NH9sFqGAqs5tGLRBsoK7Ccz9Hbp9eu7YUFAAAAAMA0i9deKg4NY9lbs7gmawqshnEuRzASVj/Ny07r61xJPfvCSnEIAAAAAICpFC9/pzg0jGVvzeKayQfH0AAUWM1iF8d9yXF08I1hbMng8qWtbKDS7EgAAAAAACZJdi+0eOvt7KUuKXSnWVwzuaLAapBKZxE3nV0cvyTZ5nFOdyDU/kr3v9rcCiUIvGubugMAAAAAMHXSJN0S6a9J3F3WF+KwIlA/pN/ULK6Z3MbQEBRYzTK45laVXmF2t0G9+6DehbDd4pQCAAAAAKZZkpP9jsSbb4lceS4fcproYRnctvQhYDcIJ6NZ7GK5P38svcLsGjy/vClX13vZDKzSbwEAAAAAMKl0qVJb4t6GxJtv7oyVsw9ZJg/tDdSPAqs5dGqiXhxzyXF3PlZ6fuyug1fWuuL7vuM1CQAAAADAJIvTvBx3L+avnVYDWga/W7JsrpNMnL6Im6+0IMHI2EVxPDnuHXxjGN3AXTur199Zk3Yrew4AAAAAwHTLNoyO1/4he1ltI3fdxF2zuaLAaohKZxA3lV0UJ5P7e+exAAAgAElEQVTjiGRNb+n50Ua51wvlpVdX0/2vbE8sAAAAAACmVpxE6mBGopUnRcJN2dmjfSjN4JrFNZNrNlcUWA1RWpBg5B7KH0uvLOuq1jdD2doOs+mRpd8CAAAAAGAaBCLhmsThleIbw1iqtmyOhqDAah6724Ez3cC914/S5YQAAAAAAECyJUtxV2Tjjex1tRkfHy4OoF4UWM3j3PJG+cX38uuXZXMrFN+nwAIAAAAAINsDKxDpr0m0+nQ+pqsDnT1YHEC9KLCaQZsnvZJayXHXwNhweXn8zpn1dAaW3oQQAAAAAACoJCRHkcTrL+evnWZgWRbXbK4ZnTsRNgSVR3PolXRrchwrvrEbWzGYzr5y2o8OAAAAAIAp07+aPwmuGy6h2VwzOkm7ISiwmsHOw52S3e1ADW14dfWgLhns9SK5sLIlLb0DYfFDAAAAAABMrTQ4S7z1jki0laRsjd6lydmyuGZzWyFFd9IAnIRmsAtEC6x2coQDY+8rzi+6C5e25c331mSmHUgUlV6IAAAAAABMhzgSCeYkvvqPEm+9m4+V5mbN4prJNZvfMTCGmlFgNYNdQfcVXu8u/8TaeleuXO1JEHA9AQAAAACwIwnOXkukd1Gku7IzVq56RsdNR4HVDHYrhAfyR+c26vLV3rW9sAAAAAAAwC+Ke8vFoWEsZVtGr3T7QtwcFFj1s+3X9VzcOzDm5N2z68UhAAAAAAAwIF6zOxE6sUyuGd02znLO6bg5KLCaoyM70xOdL4yXXlktDgEAAAAAgAHx6pPFoWEsk2tG16yOBqDAao5TsnMHwlK2bHB5dfv6NwAAAAAAQC6bPHVtE3f3+SJKM7pmdTQABVb97BzcL9ldDtTQK0pvmuB5nvTDSHr9SHzfc7iRAgAAAAAAU8hLYne0nRzd7Hn5nuyWyTWja1ZX9Cc14wQ0xz2ysx+Wk5VL27K23pcgPYvOXwMAAAAAYDqkUVnvRLgi8dZ7g4NldON2zei21Q9qRoFVv8G1tSq0N3YT59Ot3j6zIRdXt6XV8pmBBQAAAADAL0jCsj8j8fYZkfV8I3e3AG13HtTJJmroSincfBRY9bMr5/brRoewa+3i6pasb/TSJYQAAAAAAKBI9+BpSdzblnj79M6YO8vqlb6E/UeBVS9tnnTGlZ4H2xiuvI3KP7G9HaZ7YQEAAAAAgN3E2X49/fXiG8NY2NasrpldszsBvEYUWM2wJBUKLJtwtXxpWwJ9QQ8MAAAAAMDutP3Ytj2wnKqQwQJLMztq5nTWcNPYBaEXw22FsV3prCtdRvjOmXUJAl8iCiwAAAAAAHYRid59MFp7SbIlhU5ViGVzzepWYJXmddw8TmcNN439+I8kx6Ls3OWgVLcXyZvvXJV2K50IWXwbAAAAAAAonQHizUh89adJ6t6ywes+8j40bGtG16yumd3GUBMKrGa4O38svYJsA/duL5TN7Uh0Cyy3GygAAAAAADClNDzrHljhZvGdYSxt33XdKGpBgdUMlS+GtY2+xLFOg6QABgAAAABgqHT2Ryhx91I+UGkmyN3FAYweBVYzVCiwsotseWVLev3sTgoAAAAAAGA3mqO1wOqKbL+7M+SuQmbHzUKB1QzOF4MtF9QN3LvdSHzOIAAAAAAAw3lBunww28hdVWqwnDM7bh7qj3rZFXP7daNDDBZY271QfJ85WAAAAAAADOeLRKHE6y/nr3V/dmeW2Su1XthfFFj1GbyjQeVbcna7YXEIAAAAAAAME27kT5zit31IM7tmd83wTl/E/qPAqo/96E8mx8HBN4axGVcbW/nsK/pfAAAAAADKaZzuX82fV6pDNLNrdlcUWDWpdMawr+xHf1x2CqyhF4IuH9QbJ4RhLJev9iTwPforAAAAAABKZYE67l5InvYkq0NKE7VldM3smt0HxzBiFFj1O5YcM1JhAe7V9Z5cvLQlrZZ3bU8sAAAAAACwGy2w2iJb70ncWym+OYxmdc3smt1RIwqs+lhraxdB6VraOG+HL1/tytnlTWm3fIlpsAAAAAAAGC5OIrffkXjzDZHt5XysNE9rRrfJJszAqhkFVn3sSjlVeL27/BPdbpQenq4nBAAAAAAA5XTfq2grOTbzgfIYLjsfsj2wnL6E/UeBVR/70d+aPzq3UZvbYboXFgAAAAAAqCburxWHhrH0bdmdAqsmFFj1sWmINgPLuZJavdotDgEAAAAAABfd88WRYYoFlvP+1dhfFFj1sAtA//lXLrDOX7TpjgAAAAAAoIp4863i0DCW1XUJoXUozvkd+4cCq17t5LilOFjmzPmN4hAAAAAAAHAQb7xWHHKh2V0zPGpCgVWvjuzchdC5wX3vLAUWAAAAAAB7EW+8UhwaxrK6ZnfN8KgJBVY97ALQ23A6XwB218FejyW3AAAAAABUo/uvJ7k63MpeVrs7mmZ3zfCq0hexPyiw6lV5CqJebmEUZ9cZ9z4AAAAAAKACT29DKNfKLHd72gII+4cCqx52leiP32kTuDjOyuGtrVC2u1E6G4v+CgAAAACACrwkgoebIv01fSEOM0Msq2t2twJraH7HzUGBVQ/7sZ/IHx3WBGYX1dX1rmxth+L7ThcaAAAAAABQ6cyQQOJwTeLeys5YOcvsluEpsGpAgVUv28C9lF1Sq1d7srHVl4AzBwAAAABARYFI/4pI90LxDRfOGR77jxqkHtbWHs0fS2dgWSm8cmlb1tb74vu+Y1EMAAAAAADSqSF+S6S3KvH26XysNI4r+5AVWMzAqgEFVj2serICq1z+jbX1nmxta4F1/dsAAAAAAKCMLiEMRbr5EsJqjuSPTCepATVIPay9PXTdqIN+GItH2QsAAAAAwN6ldyKszDK807Qt7C8KrNHT9kl/7PrPfmlgbLj8E9u9ML0bIQAAAAAAqCpOM3UcbuSvnQK2fUgzvGZ5zfROX8T+ocCqz7zstLelP3z7wPpmXzy9AyETFgEAAAAA2Jv+5fxJaRxXgwWWZnnUgAJr9OyHP5ccBwffGMZmXekeWGlbfP3bAAAAAACgVJyl8t6e9sA6IFmWV07NF/YPBVZ9Bgus0h++lzdYl6/0xNcZWAAAAAAAoDqdFNK9kD93qkUshGuGtwILI+Z0pnBT6I9e21tncRzLpSvbEvhe+hwAAAAAAFShM7ACibfPJk9tL3bnfD04AwsjRoFVn05+6JXiNKWq14/lwsqWMAELAAAAAIA9SCeDtES23tVpWMV3d6MpXL9oOR41oMAaPaufbPaV8+03oyiW9Y1+uoSQCVgAAAAAAOyB50vcWxWJ+8V3hrHs7rwVEPYXBVZ9jhYHdmNlVRjRWgEAAAAAcOOSfB2FxUEXR4oDGA0KrPocLg6U6fUiZl4BAAAAAHDD4iRfbxcHXVTO8tgfFFj1sWmHzrq9KF1GyERFAAAAAAD2Sm9DGImEm8U3XBwqDmA0KLDqU/lHv7UdpgWWR4MFAAAAAMDeeFZgrecDlZY6VZ6Mgv1BgVWfCgVWdjFtbPaFbbAAAAAAANgrC9V9kd6V64fcVMjy2E8UWPVxbm1t36t1LbCiKC2LAQAAAADAXnjpBu5xf7X4hgsKrJpQYNWn8o/+6lpPwjCmwAIAAAAAYM90CWFf4t5K/rrSFCznySjYXxRY9an8o79ytSv9UC8sGiwAAAAAAPYk3QOrJ9JbzgcqFViVJ6Ngf1Bg1edAcWA3toRw9WqXGVgAAAAAANwQLbBiibfPF99w4Zzlsb8osEbPqt3560Yd6B5Yod6FkAILAAAAAIA90gIreehfzl9XmoE1lz9W+hJuHAXW6NmPvJ0/OtdROhPL+cMAAAAAAGCISh2UxXHL8pW+jBtHgTVa+oPXH3knOWYK75WKaLAAAAAAANgfcZQ/qRS0NcvrwQbVI0aBVY9Z2Wlty+WXRBRR8AIAAAAAsC/isDjiQrO8ZnqMGAVWPfTH7jwDyyrddAN3fUKPBQAAAADAjdE7EaYqTaTSLG/7YGGEKLBGy66KPc3Ayu5AWOnCAgAAAAAA7yfaU4E1OAOr0hdxYyiw6qGNbSt/XvqD9/KP9MMovQMhE7AAAAAAANirfH/pqJ+9TCeKlCZty+6a5Z1XVGH/UGDVQ3/sQXGwjM7AAgAAAAAA+yDuFkdcaJanwKoBBVY99MfutIQwva1B3vP2+tkMLAAAAAAAcGPivS8hpMCqAQXWaNlV4T4DK590FUax9PvsgQUAAAAAwA1L9+fZTo58GaG7wRlYBPQRosCqx+AeWE50+SAzsAAAAAAA2A9JuI60wLJZWM7YA6smFFj10CmHeyyw2MUdAAAAAIC9003c/azAisLim2U0yzttCYT9RYFVD2trnasovQNht8ddCAEAAAAAuHE6A2tL4mozsCyOMwOrBhRY9aj8zz1OLpMooroCAAAAAODG6ewQ3f8qKr7honKmx43jH/po2Q5WNt0wvclg/nyoMIyk14vETzfBosgCAAAAAGBPdIaIZuuwKxJ1bfC6j7yPwTDOJu41oMCqh9sdCAfo9RVWXpoLAAAAAAB+UT4DK85nYJX2V9ehS6mBF2szglHRzd50juLvJcc3kkMrqaFllp4f3bj93PKm/Ks/eFrW1vsSBF5aaAEYD/ofd3yf/zgDAECT6XYd83Mt+d/+4LMy2wnclkrEyb/Oe4H0fvgrEl96PPm3/UPZGICG0/IqFK+9JK3PPCHe3F1ZkaUbuw9nGf5ryfEnspPxMQIUWKNlP+6vJ8cfSYUC6+yFTfmX/+5p2djqS+BTYAHjQsurfj+WtY1Km0MCAIAR0wJrYb4t//f/+kWZm6XAAiZbXmC1DkjrMS2w7q1aYP1+cvyxUGCNFAXWaNmP+58lxx/mz3VsV1FyfnTfq3fOrMu/+LdPUVwBY0TL524vlFtPzMvv/pO7rxXSAACgmVqBJ5//5Ml0xYMTCixgTNl2Vp60H3tavMUPuRZYluH/eXL8h/w5BdaIUGCNFgUWMEV02eD6Rl8++qHD8j/960eLbwMAgHFHgQWMKQqscUSBNVoUWMAU0QJrY7MvD92/JP/zv340XZrAXlgAADSb8+wrRYEFjCkKrHFEgTVaFFjAFLEC6+EHluTf/5tPUGABADBpKLCAMUWBNY5Kzw5uiqGl1fsJw1i6vSjdEBoAAAAAAOxVnJVV0WbydLv45jA2paR93ShGggJrtKx+sn/u5fOp8k/ozI0wObzye6EAAAAAAIAyOmPy2jKn8ng+wII5AX2EKLAAAAAAAADQaBRYAAAAAAAAaDQKLAAAAAAAADQaBdZo2aLaKH8sXy+bf0LvXBYkR1xtXS4AAAAAAHg/XiA7d0orj+cD9rRxFm4MBVY9Kt9mMwg8mWn7O/vLAQAAAACAPfBE4kjEn0uedopvDmMtV++6UYyEF9OIjFJLsvLqnyXHH+bPdWxXUXJ+fM+Td86sy7/4t09RYAFjRGdObmz25eEHluTf/5tPpHcT1TFnceWuGwAAjJLewcwLpPfUFyS+9IPk3+wPZWMAGk7/nVzDtSftx54Wb/FDWaHllc7xsQz/z5PjP+TP+Zf2EaHAGi0KLGCK3HCBBQAAxkLvqS9KvPI9CixgbFBgjSMKrNGiwAKmyA0VWHFfojPfSP4IdCVb7c3FDwBA8+jWtr6Er/8vEm+8KhLMZSEYQMNZgSXSfuxHFFhjggJrtOzH/fXk+KPk0P88E1z3iQI9P57nydkLm/Iv/93TsrHVzzZz57QBjbe3Aiv7L0ESrsn2Xy0lfzF0aULxMwAAoEm89qz+j/AfnIBxoXtgheK1FqX1mSfFm7/XtcCyDP/7yfHHQoE1UhRYo2U/7t9Ljm9IhQLr3PKm/Ks/eFrW1vvphu6cNqD5bqzAWpfu330w+YtxNXmpfzq46AEAaKx030r+fzUwPvICq70krc88Id7cXVULrK8lx58IBdZIUWCNlv24fyc5/kxszvEQenr0rp4rq9vyP/7BM3JxdUtaLQosYBzccIH1vfuSvxhXKLAAAACAfaUFVk+8zq3S+vT3xZu9zbXAsgz/1eT4c6HAGqnSs4ObovLOjlpiBUPnagEAAAAAADc6W6S1U1qV/Xfm67HZXQ0osEbLplD08sedneNKBIEv7bafbupe9coCAAAAAAA5nSGi2TqYEfFnbPC6j7yPwTCud1qyMYwIBVY9Kre1en2VLz0CAAAAAADl8hlYe6tFKmd63Lg9nSncMGtrnRupVuDLTNvP9sQqvgkAAAAAACpIwrU/K156B1FnxRlYGCEKrHroEsJKG73pnQfbLS2waLAAAAAAANg7XUIYifid5Ki82bRmedsWCCNEgVUPbWv3WGAV3wEAAAAAANXoDKyOSLUZWEpvysYMrBpQYI2W1U/6Y3e7E2E+2yrwPWm1vGwGFgAAAAAA2Lt0dZMWWLoPViU6GYVN3GtAgVUP/bE7TTlMb1OYXxLMwAIAAAAAYH94vs2+qhS0NcszA6sGFFj1cJ+BNUCXEQIAAAAAgH3gzRRHXLCEsCYUWPUY3AOrtOqN848EAXchBAAAAADgxugm7smDny8fTJc6lSZty+6DSwgxQhRYo2U/+C1xXEKYyr/VCtgDCwAAAACAfbH3JYSa6VWlL+LGUGDVQ3/szo2tXRG6hDB9XloMAwAAAACAoa7dgbBSD6VZfrM4iJuPAqsee5qB5fs0VwAAAAAA7AsvKI64GJyBhRGiwBotW1i7LRVmYBnfy9fpAgAAAACAG+NZJVIpaGuW10OzfaUv4sZQYI2eTaOyGVjOP3j6KwAAAAAA9kulVU4Wxy3LV/oybhwF1ujZj3zjulEHC3MtCXzdyL34DgAAAAAAcBNnybx1KH9dqYuy/a8qfQk3jgKrPleLA7vRmVdq6cBMtpE7BRYAAAAAAHukBZYn3szx4hsunLM89hcFVn2uFAfKHDzQllbAMlsAAAAAAPZMZ4XoHQivFViVJlNdLg5gNCiw6lP5R39gkRlYAAAAAADcGC2wWuK1j+SvKxVYlSejYH9QYNXH+UdvSwh1Dyzf9ymwAAAAAADYsyRU+4F4raXiGy4qT0bB/qDAqk+FH33WYM1rgVWpGAYAAAAAADssVLdE2gevH3JTIctjP1Fg1cd5BpaZ7fji610I2QMLAAAAAIC9SffA8kWChXygUoNVOctjf1Bg1adyazvTDtICi/4KAAAAAIC9sgJrrviGi8pZHvuDAqs+l4oDZdpt/9p+WAAAAAAAYK80X3eKgy4qZ3nsDwqs+lwsDuzGSquADbAAAAAAANgfflAccbFSHMBoUGCNni0AvJo/Op8DXT64MN+SKIqZiQUAAAAAwF7EkXjtJRGvVXxnGMvutgcWm/uMmHN5gn23nR9aRTn98NstT44fmZXI6dMAAAAAAOA66WyQvkjn9uT5TPHd3WgK1y9ajkcNKLDqsyk7s7CceMmFdvhgR8J0BhZTsAAAAAAAqEZvjBaKN3sy28jdxtxohtcsjxpQYNVHf/TOUw9jvc1n4tDBdrqEEAAAAAAA7IHehHDmeP48uv6992chXDM8BVZNKLBGz374gwVWqby/ksWFdvrcuR8GAAAAAAA5nYGVPLSPFN9wMTgDi5klI0aBVZ+N5FjNn5f+8O0DC3MtiXUGFg0WAAAAAAB70zqUPymN48o+pBleszxqQIE1evrD13/uOk/x8sDYcPknOu3g2mwsAAAAAABQhZetagrm89dOAXuwwNIsr5ne6YvYPxRY9bB/7lZgOQuC5GLjOgEAAAAAYO+8VnHEhWV4upQa8A+9HrYAcOW60WHybxxYaMtspyWR0z5zAAAAAABgRyheEIjMHC6+4cIyPJv61IACqx42hWo5fyw9D15+eRw53JHFBS2womtjAAAAAACgTBKio75Ie0m8zq35WGkcV5a+L+aPLIuqgdOZwk1jBVYpu1qWDrRlfrYlITOwAAAAAACoKBRpHRSZOVF8YxiL5BeuG8VIUWDVw9ra8/mjw3nIrpcDCzMy2wkk0jsRMmsRAAAAAAA3uowp1iWEi+K1j+yMlbPMbhmeGVg1cChOcBPYj/2cZHcwGBx7X+l1lnxidjaQzoyfPI+prwAAAAAAqCJOIngwJ9Ja1BfiMDHEsrpmd83wg2MYIQqseumPv1ccHEYvrcDPbvtZfp0BAAAAAIAdSZhO70CogbpSD6XZ3WZgoQYUWPWwq0TXz24PvjGMzrpS7TanDQAAAACAavLSKpjNXuYZ25Fmd5YQ1ogmpF56AdhG7s4XwG0n54tDAAAAAADAgTd/f3FoGMvqegdC5wko2H8UWPXSKYi2htbZqRMUWAAAAAAA7EXFAsuclYpbAGF/UWDVY3ATOL0IBsdKnTg6VxwCAAAAAAAOvLm7ikPDWFbX7O50EzbcHBRY9bF/9qfzR+cLYOlAuzgEAAAAAABczJwojgxjWd2yOz1KTfgHXx+7h2DlAmuu06q41xwAAAAAAFBea6E4NIyl7zP5o2V5jBgFVn3sR+9+EeSfmJnx08PuSggAAAAAAErEkYg/mxy2r3R5DJe9ZHfcFBRY9bH2ye5CqOdiaCPl5dfJoQMzcvLYnPT6kXge1w4AAAAAAEN5SeSOtsWbu0ekcywfK83TmtGtN7kwMIYaUGDVTwusrlQ4FwcW2nL08Kz0+7HD9QYAAAAAwLRLwnPcE5m9Tbz2keKbw2hW18xuk09QE+fSBPvOWlttca8Uxt6XllW6ajAIPDl0oC1hFDN3EQAAAACAUlmg9maOJ0/1xmh6Q8HSRG0ZXTM7M7BqRoFVH/vR6604rcAqFUXZ1+Y6Qfa89HoDAAAAAABpCm8dyJ9rgeVMM7tmd0WBVRMKrPrYWtq15FgdGHPS6QTFIQAAAAAAMExgG7g7xW/7kGZ2ze6le1fj5qHAqpfNn3r3utEhbM+rO04tSKedz8ICAAAAAABD6B0IA/EWPpi/rlSHWGZnDVSNKp0x3DRvFQd2M1hgzcz4ElWa9QgAAAAAwBSKQ5FgTvzFB/OBSl2Uc2bHzUOB1QxvFwd2l11kxw7PSrtV6YIDAAAAAGAKaXbWPaRnRDq37wy5o8BqAAqsZnizOFBmcaElnudLrLclBAAAAAAAu9Ps7AXizRzOByo1WBRYDUCB1Qxv5o+lV5AtIZxpBzLb0QJrZwwAAAAAALwPDc+thXQZYQWWtt8cHEQ9KLDqZdOnVqTiHQ1m2r7cc8ei9Pr6cRosAAAAAADel876iLviHfhIkrpnbfC6j7wPDdua0TWra2a3MdSEAqteg7fkfK8wtitdNqjX3x2nFiUMI/FLrzsAAAAAAKaVnwTpKN/AXcssp7uhWTbXrK6ZfXAMNaDAaga9GM7kz0sviCj/xLHDHQn1BQUWAAAAAAC7086qc9vAi1KWzc8mx+XBN1APCqx66QURSHb1OBdY9olOJ2ATdwAAAAAAhvLSGO3pHljuLGxrVg8ly+4E8BpRYNXP5k+9e93oELZp+9GlWVmYb0tkU7IAAAAAAMAAXTLYF6/dEa9z686Yu3fyx0pfwv6jwKqftU+v54/a6g7l5Q3W7afm5chSR/r9iDsRAgAAAADwC5KwHHXF65wSWfhgPuQUoK0veSN/ZOZIzSiwmkMLrHRWY/GN3Rxd6siB+ZaE6fJd568BAAAAADAd0qjcF2kfEW/W9sByys/al2hGf634BupBgVU/2z3u1eTo5c+HNrvpHUDjWNotX9ptP11C6FYgAwAAAAAwZfSug34nOWay5+UFlmVyzeia1ZXTzu+4eSiwmkM3hlspDu7G9m4/ttS5/g0AAAAAAJDTsioWb/b2/PXQ+SJFmtHthmuoGQVWc2zLztRE5yvqwQeWikMAAAAAAGCAt/SZ4tAwlsk1o2tWRwNQYNXP9r3S6Yi2kbtzgXX7yUq3AQUAAAAAYOp4i/kG7m4Gb7Zmaw6dczpuDgqsZrDz8Er+6HxhHDrQvracEAAAAAAA/CKvfaw4NIylbMvodCcNwEloBttBzpYQlu4oZ59YXJiRgwfaEoa0WAAAAAAA7NA7oOkdCI+KzBzZGStXPaPjpqPAagZrn96W7C4HwcDY+/Ly6+f44Y7cfduidHuh+D7XFAAAAAAAKc8XCTfFO/BLO5u4e6W5WbO4ZnLN5u8MjKFmFFjNYLfj1ALL7kQ49ALRay6KYmm3fTl+ZFb6/YhKGAAAAACAa9LgLN7snSL+bJKybTuroSyLazZ/K39umR01osBqDr2KTifHcvGN3djeV3OzgUS2FTwAAAAAANjRWsyfhNcNl9BsrhmdpN0QFFjNoPWTnou+7DS8Q2dgpfLL6I5TC9Ju+VosAwAAAACAVBKSfV+8BbsDoVMXNbjFj2Z0zerl+Rw3HQVW87xYHNiNn6/d/eC9h7JZWOk0LAAAAAAApl2Sl+NQJFgUf+mT+VilCsQ5m2M0Kp09jMQLxYEyJ47NpTOwYltTCAAAAADAtNOM7M+IzN+TvS7fwH3Q88UB1IsCq3ms5S29suzaW5gLZLYTpNdmtesRAAAAAIBJlc3A8oKDxTeGsVTNDKyGocBqDps+dVayux3ouSnd1UpLq3Y7kAfvX5Ke3omQBgsAAAAAMO28JFKHXfGPfEYkmJMscpfmZc3gmsU1k2s2Vyx1aggKrOawi+JCcrw++MYwumxQL8F771iUXj97DgAAAADAdNM9sJKMvPiR7GVcOj9kkGZyzeaKAqshKLCaQy+KIDk2k+PNfKz0CrNtrw4uzkiktyGkwQIAAAAATD0v22Zn5lj+2qmHsgz+hmTZnDsQNggFVrPY+Xg1fyyto2zFoG7kfmChLWEYsw8WAAAAAGCK6eyrnnjtefHm7t4ZK2cfskyuk0zQEBRYzWJtr93toPT82J5X9915QG45NpfugwUAAAAAwPRKcnK0Ld7cXSIHH8mHnAosy+Av5I8E7AYpLUgwUjY18R8lvV1C2v4Ona6o16BOizy42Ja52SCbgeXWLAMAAAAAMHnSJN0XaS3mSwg1VpfWH7bLu2ZxzScvbagAACAASURBVOQ2hoYoPYMYKbs4XkuOi4NvDKMbuatjh2ezAforAAAAAMDUyuaCeLN3Zi+rbeC+LFkmVxRYDUKB1Sx2cWzIzpRF5wvmYw8fKQ4BAAAAADCVvKNfLg4NY9n7Rcky+eAYGoACq3nsLge2D5ZzVXznrYvX7koIAAAAAMA08w48WBwaZnBPaqc1hxgtTkjzFDeNK5cvGdR9sGba/rUlhQAAAAAATB1dMuh3xGsfzQcq7bNjWZy+pGE4Ic1j7dMrkm0ep7ftHNpI2abtehfC++46INvd6NrdCQEAAAAAmBqenyTpDfEO/rJ483fnY6X5WDO3Zm/N4JrFbQwNQoHVPHaRvJwcF8TxToRRFMtsJ5DbbpmXbi8Sv/T6BAAAAABg0vhJQA7FW3hAJFhM0rR2UqUBWTO3fkgzuGZxG0ODUGA1j6671QvnvfxQpReOrRo8dGAme1F6fQIAAAAAMKFmjudPSuO0sg9pBj8tWaJ23o8ao0GB1Ux2Xn563egQNiPywx84LPNzLQlDp4sUAAAAAIDJEfdFWnPiH/6VfKDS7A7N4Gzg3lCclGb7cXFgN7bn1f13H5DOTCARG7kDAAAAAKZKkot1A/dgXrxDH8+HKtUezhkco1fpTGLkns0fSytjm4F1YGFGZmeD9Jot36cOAAAAAIBJogXWgnjtI8U3hrH0/Nx1o2gUCqxmsulTb0u2iZyeJ6cpVZ0ZP11GqBu5290JAQAAAACYeOkdzrbFP/L5dBbWzt7sQ9mSQc3ebw2MoWEosJrJLpZzyfFS/rx0Azm9E6F64K6D0tMCi7MLAAAAAJgaegfCeGf5oC5NKmcf0uytGVxRYDUQFUcz6cXSSo6e7BRYpReQfeDo4Y60Wt61OxMCAAAAADD5Yok9T7zOrddeO7APafbWDK5Z3OmLGC0KrOazNbil58r2vHrgnoNy6sR8NgurdLYkAAAAAADjTpcPbok3f5d4hz6Rj5XGaGUfYv+rhnM6m6iFTWN8Jn9eug+W72Wzrk4em5ODi23ph+yDBQAAAACYAun+Vz3x2sfEm79b0vhcvq+O7X+lmVuzt3Jad4jRKz2bqI2VVT9LjuXBN4aJ83WDJ47NZksI6a8AAAAAABNPw2+UzsBKn7vtf2U0c2v2VkMnjqA+FFjNZRfNWnI8Wxgr9clfOl4cAgAAAABgonnHf6M4NIxlbM3cmr0Hx9AwFFjNFuSPT+ePzhXynbcusok7AAAAAGB6JBnYX3yoODqMZWzL3JbB0UAUWM1mCwBtBlbpPlhevmv7saMdOXlsVnp93ciddYQAAAAAgAmV7n+1Ld78PSJzt+djpXWH7X+lLHMTnhus9IyiVtYGv5gcq+JyvnSpb3IZHl3qyAP3HJLt7ZA7EQIAAAAAJlggEm6JHHpUvM5tUjLvY5BmbM3amrmV86onjF55IYI66cWj9dOryfF2Pjb0Sky3rYuyjxxZ6kgYxlTIAAAAAIDJlsRgb/ZU/rwvDpOpLFtr1tbMne0Cj8aiwGo+PUdhcjyXvx5aYCmbKfnRB4/IwnzrWqEFAAAAAMDEiZPI3JoT/8iX8gGnqsOCsmZtzdxOX0J9OEHj4wfFgd14edP84H2HZGYmkJDd3AEAAAAAE0n30QlFgjnxlz6TD1WqOh4vDqCZKp1V1MLaJ70rgk5nLD1ntufVgYW23H5yXsJ+zD5YAAAAAIAJpAVWT7yFD4jMHCm+OYxma83YP8pfM/Oj4UrLENTOLqK3pMK6XF02GASefPzDR2WrG4rv02ABAAAAACaMzrYKe+If+/XkeStJ0LaV9FCD+01r1lYUWA1HgTUe9DxdSo6f5q9LCyxbNXjbLQvi6fQrLkUAAAAAwASKk8jsLXwwf1Ual5V9SDO2Zm26kTHASWo+rZ7sPP04fyytk23G1YP3H5LbTszJdi9iGSEAAAAAYIIkUTnaFG/hDvEOfzobctv/ytKxZWz9EtM+Gs7pzKJ21g4/IdlFFeSPu0onXcWx3HJsTpYOdaTf1wKLBgsAAAAAMCE040Zd8TqnxJu7J1+KVFpzDGZqzdjKadoW6lV6ZtEIVlY9mxzLg28MY8sIP3TfofIpWwAAAAAAjCFvKZ99Va2H0mz9XP586AQRNAMF1niwi+lqcvwwf+58ZT764WMSRlyPAAAAAIBJki49Ev/YV4pvDGNZWrP1lfw5gXkMUGCND53iqB7PH0sLLFsyeNvJeVk62ElLLFYRAgAAAADGn5ZXXfFmjom38MDOWDnL0patLWuj4Siwxo9uMtdPjpY4tMS6jPCWY7Py4AOHZHMrZB8sAAAAAMD4083a+xsihz8r3tzdksbj8ryrGVqztGZq28AdY4ICa3xYS6xrdM9KVi0PLbDS/ezSWVee3Hp8TqKQOxECAAAAACaBzsBK/nfh3qzMirWTKg28mqH1Q2dkZ/+r0tVNaAYKrPFhd0q4mBwvDIwN5fvZBfzpR07I4mJbwrD0KwAAAAAANJsWVu1F8U/8Zj7gtBLQArFmas3WdjdCjAEKrPGjjdT3ioNl7rnzgLRbfjojCwAAAACA8aWzr0IRvyP+gUfyodLZV4P+Thyma6FZKLDGjzZQerHZ1Meh7BpemGvJRz90RLr9SPxqFzYAAAAAAM2hSwajbfGPfkmkfUgc47HSDw1maowRCqzxYmtzX06O1yU7f6XrdXXZoHZWjzx4WLa3w/RaBwAAAABgPPkSh1FWYGks1tlY5TQ7axrWLK2Z2sYwJqgyxo+esxXZuWNC6QVnE67uvfOgHF3qSL9f+hUAAAAAABooCbhRV7zZI+Id/NjOWDkLwpqlNVPTh4wZTth40SmOds6eyB9Lz6Ft5P6Bew7K8aNz0u2xjBAAAAAAMIY0y0ab4s3eId6hR/Ox0lis3i9Ls4xwjDidZTSKtcZ/mxw6T9LpotPN27XIuv+uAxI7Lw8GAAAAAKBJsm2svEMfT54G+fLB0oBrk0H0w9/Lx1iaNGYosMaPXWQvJcdrg2+4+Nyjt3AnQgAAAADAmPJEZ2X4J79afMOFZugX8+cUWGOGAms86XnrJcff5K/LL7y8kL795IIcPjhDiQUAAAAAGDNaXnVFOsfFW/jgzlg5y8zflSxL04WMIU7aeLLz9vf5o90KdFe651Ucx3LyxJw89IHDsr7ZlyDfGwsAAAAAgMbTJYO9DfEPf068+XuTFBy57H81uInO9/PH0i+heThp48na46elwt0TIr22k8f77jhQ3ngBAAAAANAocVpYeQcfkSzdli9Gymlm1uysGVo5fxHN4VR8oHH0YtNzp+t3dS8sGxvK7kb42UdPyMJ8S8KQCgsAAAAAMA50+WBfpLW4s/9V+ewrVdxHWr9Ump/RPE5nG41kUyC/c93oEHq3UXXqxLwcPzIrYRRdGwMAAAAAoLmS8Br1xJu7Xbz5+3bG3Fl2rvQlNAcF1virdBHGschM25dPPXJctrbDa7OyAAAAAABoLJ1tFXbFP/HfiPizkk2icsqz9iG7CRrGFAXW+LL1f3oL0NfFcRqk3X3w3jsPpuWVFloAAAAAADRbLLHfEu/gR/OXpfFX2fY7mplfyMdIwWOKAmt86YUYSLYR3Q8Gxobyg6x8/viHj8gdpxZkW2dhsY4QAAAAANBU6eyrdfEX7hX/2FfyMY3DpSwja2bW7KxfKs3NaCYKrPFmzdN388fSKzi9T0MUy+J8W+68dVFCnZFFfwUAAAAAaKx8A/fFh0XaS/nsK6cgaxnZMrPTl9BMFFjjLcwfdS3vpmQXo/N0yC986qRErCEEAAAAADSaFlgiwanflyzyOuVY/ZBmZM3Ktv+VZWiMIQqs8WZX7TvJ8VRhbFe2YvDeOw/IocWZdEYWqwgBAAAAAM2j5VVPvJkj4h18JHvtNpHKsrFmZc3Mg2MYQxRY48+mRH47fyxfz+tlm7ffdsu8PPyBJVnf7LMPFgAAAACgeXSvq966yOHPi7fwgKQdlFt+tWxsWbl0yx00GwXW5Ph+cmxLdlEObZVtHyz1gXsOZXcjvP4jAAAAAAA0QKx3IxN/6RP5S10FWFpgacTVbKwZWbMyJgAF1viz3et+nByv5c9LZ2FpaaU+9+gtMt8Jss3cAQAAAABoEt28PZgX/+RXs9fudx/U0KsZWbOyU05Gs1FgjT9tnvQ8arNsd1YoZTMuTx6flTtvW5R+P3KchQkAAAAAwCgkUTfqinfgIfHm7im+6UIzsmZlzczM2hhzFFiT5S/zR6cqSpcRtgJfHvvl47Kh+2Dls7IAAAAAAKidzrbq98S/5Z+K+DOuyweVfcgyMiYABdZksKmQP0mOtyU7r6XTI61+fvCBw7J0cEb6IXcjBAAAAAA0gZfefVBmDou/9Nnim8NoFtZMrNlYM7KNYcxRYE0OXQi8nByP569LL9B08/ZY5KH7D8mtt8xLdztK/kTQYAEAAAAAaqazK8J18RbuEu/wY5LdfdB5/yul2VgzstOX0HwUWJNhcC2v8y1CtaqK41j85A/DJz5yPPk/on8Qip8CAAAAAGDU0sQq/on/OnnqJ09L52gYy8KWjRX7X00ACqzJYVfzt5LjstjV7uhTjxwrDgEAAAAAUCv/+G8Wh4bRDKxZWDOxZmPl3Hyh2SiwJoddqOeT42/zsdIL1cs3vbrr1kV56IEl2dzqpzOyAAAAAACoRbp5+5p4hz8r3oGHJVs+6FRfWAbWTKzZuNLEDjSb0y8AY0OnSuoF+v8V39hNuqw4jGW2E8iH7j0k/X7s+HcBAAAAAICbQTdwj8Rb+nSScheq3H3QaCbWL5RurYPxQVUxWbRt1nb5e8mxKtnFWj4Ly8/+EHz+Uydlfq4lYVj6FQAAAAAAbo6on6TZOQlOfi177TbLQoOsZmBdPvg9ybIx4XaCOP0KMDbsdqGvSHa7UL1gS6dL2orBe29flFMn5qQfxtfGAAAAAAAYHd2wvSvewv3iHfzozlg5y7+ahTUT65cosCaI068AY8Wqpz8feD6UfiiKYmm1fPmVT9wi6xt9CfJZWQAAAAAAjEy6/1VX/FO/K+LP5MsHnWmQ1SxszzFBKLAmj824+qvkWJPsHJfOwjIf+dAROXxwRnrMwgIAAAAAjJTufdUTmTki/pEvFt8cRjOvZl/NwN8eGMMEocCaPHbhvpEcT0rWOpdW1r7vSZx886H7l+TUiXnpdsPkizRYAAAAAIARSe8ytiHewl3iLT0mabzVGVnlbJd3zcCahStN5MB4oMCaPFZg9ZPjW/mY03mO42zW1ecePSGRrhSmvwIAAAAAjEy6wY34J7+abdweO29hZZlXM7BmYQqsCeRUbGDs2Iyrv0iObXG9ePPC6hMfOS7ttp8WWgAAAAAAjIQWVt6M+Md/Ix9wmlVhkzi6yfHNfKx0FRLGDwXWZHs9OR6X7IIura51yaB2Vnfetii/9IEl2djsp0sLAQAAAAC4qdLN29fEO/IF8RYflmz5oFMe1ayrmffvk+O1wnuYIBRYk0kvXlso/P+IY22tfxuiOJZW4MnHHj6a7YHFJCwAAAAAwCh4vvjHvizit/Plg05RVukHNfsqzcIk2QlEgTW57ILVuxFeluwiLp2F5ecN969+6qQsLrQkjLjuAQAAAAA3WdQTaR8Q/9TXste6B1Y5zbiadTXzavZVhNgJ5fSLwFjSC1nP7yvJ8UPJLuLSC1n7K11GeOxwJ52FtdUNr5VaAAAAAADsO10+GG6Jf/S/EG/2Dsmiq1MOtZz7lGTZVzNw6cQNjCcKrMlmV/w3Bp6XiiK9G6Enn3rkuERh5Fh8AwAAAACwF54kKVT8W34rn1VRaQ92zbp/PPAcE4pqYrLZjKvvJMeKOK4Fto3bP/7ho3LbyQXZ2g7TQgsAAADA/8/enUBJlp31gf8iMmvvqq7eu6oXtVqtpbXvuxBa0MIuIUBIZrUB48Fmxoyxxz4z4zP2zMFgbIzxgjEgY2SxCBmwMDIWCBCLhECAhIRotKtb6la3equuNTMj5n7vvVsVFZ1VGZmVWfWy8vc7uoqIFy+yqrMi3n33H9+9D1hXWTGxdDgGe26M4ZWv6LbVJZ3Pqq79nGPdHPPWbVykBFgXt/zw5r/xZ0r7zW7bilF2s5j7aByX7t0ej7tlfywtZUXW9F4AAABwrrLiaiGG+58fsf2qWMXi7XVs+65ox7w59hVgXcQEWBe3yYnDk1dkmNkrXnBwehMAAACsq+F13xozLt1c1bHt27rbHPvO/GI2HwHWxa8uYPerpd0VM36oB900wsfefGncctO+OHrMYu4AAACso5w+uHg4BvueGcP9z8kN7baV1WKNHOPmWDdZvP0iN9M7g02tTiPMy4r+UrdtxQ92HglyGuGunXPx9Cdc0SzmPlsVJwAAAMwipw8uxeDKL4mYv6S5P+PAs45pc4ybY13TB7cAAdbWUI8A+eGuE4pX/HDXhdtf9vwDsXPnXBNoAQAAwLkr483RYsT8rpi77hujGaLONuunVl/l2LYWacz0QjY3AdbWUEOr3yntr6L9d1+5CivD8HJouO7a3fH4R18Wx0+4GiEAAADroLl62PEY7H9BDPY8tts4U0SRY9ncMce2OcatYRYXuZneHWx6dRrhkTi1mPtMRuNxs/bVFz3r6lhcLPe9YwAAADhnZXA5Xozhga+LZt2rZvrgquTYNse4pg9uEeKIraN+oH+utMWY8d++Ltz+nKdeHQeu3hXHj2cV1tROAAAAMKscVC4dicHuR8Tw6q/ottWLCq4ox7I5ps2xbRJebREzhRhcFOo0wg+V9rvd/fzQn1VT1Tkax/592+PpT7wiFpfGphECAABwDrLiaiEGV74iBjuuKffrcHVFOYbNHXNMm2Nb0we3EAHW1pKR9kJpv9g9XtW//8ued2B6EwAAAKzBOIYHu8XbZy+iqmPYt0U7tp25bIvNb1UBBptenVT81tIejBnnCteKq0ffdGncesulceToYgyHM6XjAAAAcEpOFVw8FIP9z4/hpc/sts0UTdS1nXMsm2PatOqFs9i8ZnqXcNGolxu9s7T/1m1b8QNfpxFu3z6M5z7t6nZjXp4QAAAAVqMZSg5ieM1XRcztWs30wTp2zbHs56J9kYHpFiLA2nrqv3kueFcvP7qiWoX1kudeG7t3zceSWcYAAACsyqBZ+yrmL4nhwTd2m2YakqbcMUeiPz/xmC3EP/jWU+Pt3yjtr+LUQeCsMr/Koqsr9++M5z3tqjhyzDRCAAAAViHDqqUjMbz6q2Kw82CcGp6uqBZf5Bj2nWHx9i1JgLX11HnDR+JUcj1T2eU4E6xymHjxcw/Ezh1zzWMXJAQAAGBlWRUxipjbE8OD39A9nmkomuqOOYbNsexM6zlzcRFgbW0/W9rRmPHDPxgOmuPL0269PG48sCeOn5g5LQcAAGAry+qHpSMx2PPoGF758miGoLNNH6xFGDl2zTEsW9RM7xYuOjV5+khp7+q2rbyYe7RVWHNzg3jJ8w7EwuIoht5BAAAArKgMHsdLMbzur5XB5fxqFm+vUwVz7JpjWNMHtyjxw9aUCfZctB/6TLDzAJCPV1QXc3/+06+Oqy7fGQsLI9MIAQAAOIsyaBwdj8GugzG89rXdppkHkplb5M45ds0xbI5dV5xBxMVHgLV11YqrXyrtjugKrE49vbw8xoxG47j2ql3xjCdeEUePL8Vw9gMPAAAAW81groxAj8bgilfGYNcjm0qsGeOIHKPmgDPHrDl2TSvOHuLiNNM7hotSrcI6VNrPdNtWVYb5JS88GDu2zcXSaMXcCwAAgK1qvBgx3BHDG76l2zBzEUQdo+aYNceuqq+2MAEW6ediFVdyGA7bg82tj9oftz760jh+Yunk1EIAAAA4KRdqz+qry54fw/3PjzUs3p5j1bz6IFvcTO8aLlq1bvNPSvv9bttMVVg5jTAXc3/Z8w40FVjyKwAAAB4uF28v48fTFm+fSd0xx6rvj3bsavrgFibAokZPP9HdnymKyoqrjMOf9/Sr4+DVu1VhAQAAcLqm+upIDHbfFMNrvipWUX2V6vg0x6r1MVvYzO8cLlo11X5HaZ+IGVPtzKrGo3Hs3bMtXvCMq5urEQ69mwAAADipDBJHJ9orD267oqu+mimHqrOFcoyaY9U0c+kWFyeRA3Ux9/ujXQtr1V7+/INNkLW0tOLyWQAAAGwJWfWwGLFtfwyv/+Y4dUHBVckxao5VLd6OAItGTbJ/qrRjMePBIRdzH43H8YjrLolnPunKOHJ0Mea6Bd4BAADYwgZlWLn4UAyvelUMLnlCsw7WjNMHa5FFjk3f1G1TfYUAi0aNwm8r7Ve7bTMeIAbN/17xooMxP5+B1vTzAAAAbD1LZay4LYbXf2u048aZB4t1LJpj07+Mdqw684u5eAmwqPK9kAeGrMLK+cYzlVI1BVflUPLkWy+PWx5xabeY+/ReAAAAbB25ePuxGFz6tBhe8dI4VVQ1kxxR5pg0x6Z5X25BwxuBqqbc/7O0D0f73pipCiunEebUwVe+6LpYXBy5GiEAAMBWlmPC0Sjmbvgb5f58t3j7THLHHIvmmDTHpnUbCLA4KSPxfD+cKO0nJ7ataNCte/WiZ18TNx7c01RhDYVYAAAAW0+uc7V0NAZ7HhXDa193atts6hj0J6Idm+YLZxqXcvGb+V3EllAPDD9b2uejrfFcMe3OqGo0Gsclu+fjxc85EAsLWYU1vRcAAAAXv2EZIJ6I4cE3Rmy7rIwyZ16hJseeOQbNsWhefTAJrzhJgMWkesC4s7Sf77bNdsDojkcvfd61cene7bE4WjH3AgAA4KKSUwcXIrZfHsPr3nhq22zq2DPHojkmnamggq1DgMW0etD4j6WVI89s75GcMphVWAeu3h0veMbVceTIUszNzXygAgAAYLNrpg8ejuE1XxOD3Y9qq69mnz6YO+YY9Me7x7MVU7BlzPxOYsvIhDuTpz8r7R3d/az5XFmXV736i6+LXTvnYmnJ8QYAAGDLyMBqbnfM3fgd+SBWUX1V5xnmGPQD3X3VV5xGgMVy6vVNM/mugdaKaVRduP2WR+yLZzzxijh6bDGG3QLvAAAAXMQGZRi5eDiGV70iBvue3m2bKXKoSVeOPWv1VR2TwkkzvZvYcmr6nZctXVX6ndMIB4NBvOrF18f8/DDG43w8vRcAAAAXjzLoG5ch43BHDG/4jja4ysezqUUTOfbMMejss4DYUgRYLCcT8HxvHCvt38cq6j4Hw0GMy6uzAutxN18ax4+PyotnfjkAAACbTVYtLB2Jwf5nxvDKV0QzpJyt+qrKQWOOPXMMmi9ccQYQW8+q3lFsKbWM862lfTra98qKEXoz13A8bqYOftlLr4+FpdEqj1sAAABsLllxtRRzN/6tdiphU301UyFD7pgjxhxz5tizGVKetgd0RAucST2QfKG0n4lVHEiyCis9+ylXxaNu3NushZXTCgEAALjIZMXC4uGIvU+K4dVfFqusvqqFE2+Oduw5U+EEW9PM7yq2pBpY/YfSDkW7kN6KIVYefXItrN075+MVL7ouFhesgwUAAHBxKoO98WLM3fAtEfP7VlN9lWPLHGPmWPPHJrbBsgRYnE2twvpUaT83sW1FteLqpc+9Nq69elcsLMz0MgAAADaNMu4bHY/YdUMMD35jrLL6qg4Sc6yZY07VV5zVzO8stqxMorJlIn60u79iKp75Va6FtW/v9nj5C66Lo8eXYm5uphQeAACAzSDXu1o8FnPXf3MMtl+Vg8DcOL3XcuqOOcbMsWYdd8IZCbBYSV6+NA8kf1TaO2MNqfjLnn8grrxsR5xYGJlKCAAAcFHoqq92XhPD675p+smV1Nk+OcbMsWaOFHPsCWckwGIWNXb64WgPNDPFUDmNMNfCOnD1rnjBM66JEycywJrppQAAAPRZThUcHY3hta+Jwe5b2rWvZp8+mAPDHFvmGLM+hrOa+d3FllbT8XeX9nvd/cXT9jiLrA19+QsPxPy8YxIAAMBFIQOr4Y6Yu+5b80HXZpJjyRwc5tgyx5irnuXD1iTAYhZ1fvJCtFckTDO9d5qKq/LqR163N570mMviyNHFGKrCAgAA2Lxy7aulwzG4/CUx2PfkbttMQ8SUO+ag8MejHWPm/ZnTL7aumd9hbHk1EX9raR+P9r2z4kGmLua+ffswXvuqm2Lb/KD8oBVfBgAAQF810wW3xdxN31NGhjtXu3h7jiU/UdovdNtUXzETARazygPNXGnHSvt33baZFtkbDgfN8ewZT7yitCvj2LGlZhsAAACbTFd9NbzqlTG88pXRDBVnr76qY8h/G+3YMseYKhyYyczvMohTUwl/rrR7oj3YzJSWZxVWVmO97tU3xfZtwxg1CT0AAACbR06xybWvdsbw5r/fTbmZaUiYcsccQ94d7ZjS1EFWRYDFatTF3D9T2s/EKg44WXGVVyR83C3746XPPxCHjyzG3JwqLAAAgE0jq68WD8Xw4BtjuP+5ZTS41G6bTS2IeHO0Y0qLt7MqAixWqx50frS0I939mUKsXNA9Zw5mFdaBq3bFiYVRu8g7AAAA/ZbTBEfHY7D7ETH3qO9rH88+nsugKnf+fGn/vLs/0zgSKgEWq1WrsHIh97xqxMypeR7bsgrr4NW74w1fdXMcO760iuMdAAAAF04ZvC0djblb/u8Y7L6lrb6aPVKoi7e/qbQ7uvszjSOhmvndBhPyQJMHoB8o7QvRvo9mSs/bBd3H8bLnH4yXPu9APHRkIeYs6A4AANBfg/mIhQdiePAbYnjdN7brXq1u6mCOGXPs+K+6bcIrVk2AxVrUKxJ+NtqphJlAzXRFwtagCa2+642Pi5tv2BtHjy+6KiEAAEAfdeteDfY+KeYf/yNtmLW64VuOFfMV/ybaMaQrD7ImAizWqqbo/y7aBfhmviJhnUq475Jt8Xe/7Qmxc8d8LC6OYmg+IQAAQH80616diJjfE/NP/qmI7VeudupgvfJgjhn/baxi9g5Mm/ldmKK7TgAAIABJREFUB1PqInx3lfZPu/szH4jqVQlvuWlffM+3PD5G43HTZFgAAAB9MGjDqvEo5p/44zG49Bnt49mnDqZ6EbAcM+bYMe/PVPgA0wRYnIu6oPubSnt3tMn6zFMJa4j1omddE9/1xltjYXHUTqUWYgEAAFxAXaHU6ETMP+FHYnjg69YSXuXYMF+QY8U3hYXbOUcCLM5Frbg6Udr/WtqxWGVJaIZYS0vjePWLr4vvfMNj40SGWGMhFgAAwIXRFUmNjsTc4384hjd8R7m/uNrwqi45k2PEHCvmmLFuhzURYHGu6pzm95f2g9Ee7Wauwkpzc20l1pe/5Ib4jtc/Jk4s1BBLigUAAHDe5JpXmTEtHYu5x/1wzN34t9rKq+H89J4rqQu35xgxx4ozr5kMZyLAYj3UEOv7S/uD0vLotqoQq04n/MqX39hUYi0sjGKpPHZ1QgAAgPMgK6zGi2V0d6yZNjh309/upg2uOjbIsWCOCXNsmGNE4RXrYtXvRFhGloFmO1Lat5f2YKxyUfdUpxN+xUtviO/+5lsjy7BOLCwJsQAAADZShldLR5sx2NwTfiyGN35XG2Y14dWqxmN10fYcE+bYMMeIdbwI50SAxXqpVVgfKu17Yo0L9NXphK980XXxD/7mk2LfJdvjyNFFIRYAAMC6K+OswXzE4qEY7Lgy5p/6szF3w7d1lVdZRLXqcVi90Feue5VjQ9VXrBsBFuupXmXiTaX9SHd/cXKHWdTphM992tXxz77vGfGER++PQ4cXmkOnIAsAAGAd1PWuFu6PwWUviPln/1YMr/nKLrxa1YLtVY798oU5Fvyp7v6qlpaBsxFgsd5qJdbfK+1/Rjv3ec0h1nXX7ol/+r1Pj9d8yY2xuDSOY8fbKYXWdwcAAFiLrLrKKYNHmmmCw5u+O7Y96x0x2PPocw2vcuyXY8DvC5VXbAABFuutzm/Oy6R+Y2kfiDUs6p6aEKv8pB3b5+JvvvFx8f/8b0+Lm66/JA4fXYzFxXaBd0EWAADALLrgarwQsfhADPY+Keaf+asx//h/HTG3u2wfrTW8qou259gvx4DHw7pXbAABFhuhznu+q7SvLe0zscYEPmcMNke+8n9PufXy+P6/94z4ttc9Oi67dHs8dHihWfRdkAUAAHAmNbhajFh4IAY7ron5x35/zD/7N2J4xUujHaaNuymFq1aXkckxX479cgy4pvWQYSVreofCDOpUwttKe01pn4/2/bbqSqzMpjKgyimFl+zZFl/7pTfFD/3DZ8fXfdkj45Ld25ogS0UWAADApOGpiqsMrrZdGnM3f1/MP/d3Y3jz3y+PL2unDDbDtDUNpGp4lWO9HPPl2G9NhQswCwEWG6ke0P64tNeWdl/3eNUhVsqAKiuxMsi64rId8W1f++j4gX/wzCbQyoqsw0cW4sTCqAmxhFkAAMDW01Vb5e3oaFdxdW0Mb/7fY/45vxNzj/tnMdh5fTtdsKm6WtOUwVTHejnGy7FejvnWPNaDWQzGmQjAxqoLuT+vtLeVdm2cOuCtSb5t871br0r4+S8ci99+7+dKuzM+/dnDsbA4atbOmp8fNsflcTf92tud8ynfn0eOLjZX0vzB/+NZTfi68pU0801a9lk6HCd+61Hlk/NgtJcw9uYFAGBaBlb1/DJDqxNtcDXYHoNLbo3hwdfH8MAbYrDrxnaXZpH2NVdcVXUs99low6v3xhov3gWrIcDifKkHtGeU9tbSbiptobRtE/usWr5/8y1cQ4GFhaV4/4fvjd9+z53xwdvui3vuPVaO54OYmxvE/Nywuc3j+8m3/US4VflIsF7yfXn06GI8XoAFW9BKn3UAWI0Mqrrb+rgZzJQh1ai0XN8qBzK7ro/h5S9qQqvhFS+PmNvZ7t5MFcyfcc6TsOoY7pOlfU1p7w/hFeeJAIvzqZaU3lTaW0p7bvf4nL8CmK7ISlmV9YG/uDf+8IP3xMc/fSgOPbQQDxw6EYtL4ybImuumGQ4H7W0GXcnUQ9ZLvh/zqplPfPT++KF/9GwBFmwlzUABAM5Fnv81A53uNvuW0alNOYbZdnkMtl8Rg31PjeFVXxqDK156qtqq+RF5ZcG8c87BVf6JdZ3j95T2DdGGWKYNct4IsDjf6gHu8tJ+PNqS07rI3zkfVVOGBBlGTQZRGVzdeffRJtS694ETcfcXjsa99x+PQ4cX4qEji800rxOLo+aqhouL1hxkfdQKrFtvuTT+6fc+Q4AFW0b5DOflyAHgXOT6VMMdMRjuipjfG7Htsmbh9cHO60q7IWLHgTas2n1zDLZfNfHCTLgyuFrzii3TJsdruSTMt5d2bwivOM8EWFwIk5dV/T9L+8fdtiw7zZH6uqjTC9PZQoMMrTJYGDX7nnoNrId8O2WV347ts+azAizYvMpnN6dwlEHG9hd9sJzW74mTn2kAWJXaf+SVBLurCdbF2ZdzsvI3y7JynzPst3p1jJbjt39c2j/ptk+O6eC8EGBxodTRfB70vrq0Hynthu7x5PProk4xrO/2zLPqlEHoFwEWbF41wNoX21/yydLZdOuOAMB6aq4gWIdNObA55xVZljM5LvtMaX+ntF/qHk8+D+eNAIsLrZadZnj1L6NdCDCty9pYa+ETwXpb3ZtYgAWb10SA9cUfVYEFwDo7L/1Jdlx1rav0i6X93dI+3W0zZZALRoBFH0weCL8l2rLU67vHefBc12os6DcBFmxekwHWxwRYAGw2k2Ov26Nd7uVN3WPhFRecYIA+mKy2elO0Vyf8yTh1AM2zfwdLAACA9ZdjrRxz1XWtciz2vGjHZjlGy+3GY1xwAiz6Ig+UedDMUpM7Svvrpb28tHdFe9CsiX/dDwAAgLWpUwVzjFVXh8+xV47BciyWFVh1GoD1rugFARZ9k1e5yPdltjyAvqy015f2B9EeWGulVv2WAAAAgNnU2S21sirHWDnWyjFXjr1yDFbHYzk2g94QYNFH9bIaeTDNA+zPlfaS0r6+tHd3+9RvCfLgq5wVAADgzOq4qc5uSTm2yuAqx1o55sqxVz5Xx2PQKwIs+qwGU3kQPV7az5f2RaW9orSfKe1Q91w9ANeDsoMtAACwldXpgZNjqmw5hsqxVI6pcmyVwVWOtSbHVNBLrkLIZlFLXCfXwLqxtDeU9qpoD76Tl3maXIgwt7sEFJtEvm3L29VVCGETGrgKIQAXSnY4db2qySqr+tzvlPaO0t5S2qe67cuNsaC3BFhsRrWstb558/ETS/vSrj22tKu65ybV+d5pMtSavoULSIAFm5cAC4ANUU8EJ28nx0LLdTR3l/aR0n6ttP9e2p/H6WMhVxZk0xFgsZnVbxamFxcso/54VmlPL+35pT2ptEti5SmztSPwoWC91ZOEGQiwYPOaCLBe/Felh9odAizYbMrndTBjl306FSxshPql+0odSb7/Hirtg6X9fmnvL+19pX1scqdorypYZ6rApiPA4mIweWDPN/TkGlh5BrI/2qqsrNJ6XGkHupZVWpd2Lb8mX9PZCqwvARZsXjXAujS2v+xz008CwFpl6HSktAe6ltVV2dFkyyqrrK66rbT74uFjoTpG8kU9m54Ai4tRvezr2a6ekc/vK21X13aUtq3bPjlfHM5FvpfyhOPW0v5ztO/HFYJSARZsbuWzOpiLwSVPXGsVB3BBZAC91Ez93fbMXy69dZ4ezlRBWfv2byztL+JU3w/rId+EOdtkIdqF1o92rZwgnnWcs9JYCDYlARZbwWSFVj2YO7HgfMoA68PRvu9WCEgFWLD5lc/rUn5R7nMLm0cGWOUzO39JW0E5l6tPzBRg1b798dEGWHC+5Puujm1UWLElCLDYqurZyPRZyfRjOBf1W9hcj+0Pu/sCLNgKmuorXQpsHnUK8N5o17Cb+SIMtW9/drTrDqnAYr1NnwTWx9Pb4aInwALYOPUk9hml/VF3X4AFAL1TA6xVX0W09u3PLO2Pu/sCLIANYHEGAAAAAHpNgAUAAABArwmwAAAAAOg1ARYAAAAAvSbAAgAAAKDXBFgAAAAA9JoACwAAAIBeE2ABAAAA0GsCLAAAAAB6TYAFAAAAQK8JsAAAAADoNQEWAAAAAL0mwAIAAACg1wRYAAAAAPSaAAsAAACAXhNgAQAAANBrAiwAAAAAek2ABQAAAECvCbAAAAAA6DUBFgAAAAC9JsACAAAAoNcEWAAAAAD0mgALAAAAgF4TYAEAAADQawIsAAAAAHpNgAUAAABArwmwAAAAAOg1ARYAAAAAvSbAAgAAAKDXBFgAAAAA9JoACwAAAIBeE2ABAAAA0GsCLAAAAAB6TYAFAAAAQK8JsAAAAADoNQEWAAAAAL0mwAIAAACg1wRYAAAAAPSaAAsAAACAXhNgAQAAANBrAiwAAAAAek2ABQAAAECvCbAAAAAA6DUBFgAAAAC9JsACAAAAoNcEWAAAAAD0mgALAAAAgF4TYAEAAADQawIsAAAAAHpNgAUAAABArwmwAAAAAOg1ARYAAAAAvSbAAgAAAKDXBFgAAAAA9JoACwAAAIBeE2ABAAAA0GsCLAAAAAB6TYAFAAAAQK8JsAAAAADoNQEWAAAAAL0mwAIAAACg1wRYAAAAAPSaAAsAAACAXhNgAQAAANBrAiwAAAAAek2ABQAAAECvCbAAAAAA6DUBFgAAAAC9JsACAAAAoNcEWAAAAAD0mgALAAAAgF4TYAEAAADQawIsAAAAAHpNgAUAAABArwmwAAAAAOg1ARYAAAAAvSbAAgAAAKDXBFgAAAAA9JoACwAAAIBeE2ABAAAA0GsCLAAAAAB6TYAFAAAAQK8JsAAAAADoNQEWAAAAAL0mwAIAAACg1wRYAAAAAPSaAAsAAACAXhNgAQAAANBrAiwAAAAAek2ABQAAAECvCbAAAAAA6DUBFgAAAAC9JsACAAAAoNcEWAAAAAD0mgALAAAAgF4TYAEAAADQawIsAAAAAHpNgAUAAABArwmwAAAAAOg1ARYAAAAAvSbAAgAAAKDXBFgAAAAA9JoACwAAAIBeE2ABAAAA0GsCLAAAAAB6TYAFAAAAQK8JsAAAAADoNQEWAAAAAL0mwAIAAACg1wRYAAAAAPSaAAsAAACAXhNgAQAAANBrAiwAAAAAek2ABQAAAECvCbAAAAAA6DUBFgAAAAC9JsACAAAAoNcEWAAAAAD0mgALAAAAgF4TYAEAAADQawIsAAAAAHpNgAUAAABArwmwAAAAAOg1ARYAAAAAvSbAAgAAAKDXBFgAAAAA9JoACwAAAIBeE2ABAAAA0GsCLAAAAAB6TYAFAAAAQK8JsAAAAADoNQEWAAAAAL0mwAIAAACg1wRYAAAAAPSaAAsAAACAXhNgAQAAANBrAiwAAAAAek2ABQAAAECvCbAAAAAA6DUBFgAAAAC9JsACAAAAoNcEWAAAAAD0mgALAAAAgF4TYAEAAADQawIsAACAGEcMBtMbAegJARYAAEAMmgwLgH4SYAFsvLWdDg8cogHg/Cnd9XBbNEHW7OrOS6dtBWDdGR0BbLx6UruKY245Hx7uiLVmXwDAao1jMNy+2mmE0wGWjhtgg6xiMAXAKtWT2MXSRtGe5M52YjsYlv/tKnvPtjsAcI6yyx1sz/+bfuZMmldE28dnXw/ABhJgAWy8o6U9NL3xrAbzEfP74lTuBQBsnC6Hyr43++DVyT7++PRGANaXAAtg42WA9WB3f4WSqi6sGsxFbLu87L0kvwKAjdbUSC+1fW/2wSc3nlXt07OPz74egA0kwALYOPXEdjLAmtEgBtv2x6nZCQDAxmln+Q+2XdbdX5Xs449091f4ogqAtRJgAWy8Q6V9vru/8ontOKcNltPnnddZAwsAzpfS5w52Huzut33xCmonfVe0fT0AG0iABbBx8sQ25yHklYnunNi2ghpg3didP6/6m2AAYFUGTZ+bfW9r1QFWviD7/Bn6eQDWQoAFsLHqcfaO07bOYueB8up8uXNhANhY47bPzb539Wofb2wFsIEcZAE2Vv0K97butq4MexZtxdVg5/Ux2L6/nFMvnNwGAKy3QdPXZp+bfe/JbSurfXrt42cq2wJgbQRYABurlk/9ebQntu0qsWcz6A7Nu2+OwbYry6sWy7aZTqQBgNXKPrb0tU2fW/redtuKw6R6lZXs27OPr9sA2CArHpkBOCf1ZPYjpT00+cSZ5TfBSzHYfnXEvqeU+yfabQDABsh+90TT5zZ97ziXrpy5382+Pfv4JMAC2EACLICNVU9m7yvtA1PbVjR31ZdObwIANsAq+9zal2ffnn385DYANoAAC2Dj1ZXY39M9XnmNjG7K4ODKL4nYeUN5xQnTCAFgvTXTB0sfm+tOZp9bt62s9uXZt2cfb1wFsMEcaAE2Xj3W/vHU47Nol9UY7DwQw8teWO4ejZleBgCswrDpY7OvzT731HKVK1pD3w7AuXCgBdh49Vva95Z2b7TH3hWqsHI9jvYL3eHBN5SH28vjFV4CAKxO9q2ljx0efGM03XPT964YYGWHnH159unZt9dtAGwgARbAxqsnup8o7UPdtpXXyRi0V+ceXvnyGFxya/kpx2OGqyIBALPIPrX0rdnHZl/bbmv73hXUPjz79OzbZ/hiCoBzZSQEcH7Ur3PfcdrWFZXz4eHOGB58fbtGx8rfCgMAM2nXv2r62NLXriGDqn26zhngPBBgAZwf9dvat5e2GKs8/g4P/rUY7HpEW4W1upcCAA/TVV+VvjX72FXKjjj78uzT08pV1QCcM6MggPOjLqrxkWivWJT3l07bY1m5Hkcu5n59DA98XXnFsZjx6kgAwJlkX1r61Oxbs49t15mcaWiUfXd2xLn2VfbpeV+ABXAezHSUBuCc5cltLqyR8wB/deq5GYxjeMN3ROQVkkYLYbYCAKxVTh0sfemOA23furb8Kfvy7NOzb1/TDwBgdQRYAOdPrbh6S2lHYtaT3lxkdjyOwZ5bYu7gN5WfcsRi7gCwVtmHlr507vpvbPrW5sqDs/Wr9cuo7MOzL08zVFMDsB5mOlIDsC7qNMJPlfYr3bbZTny7aYPDm/5ODHbf2K2FpQoLAFYnq6+ON33p8BHf022auT+tfXb24Z8M0wcBzisBFsD5VY+7PxGnFnOf4eQ3z5FzLayDMXfjd7cB1uwn3ABAaqqvjjd9afap7ZUHZ+pPs6+ui7dnH56MpQDOIwddgPMrv73NY++7ol0ANu/PeN3uQbug+43fGYN9T+2mEuZMBgBgRdlnLh2OwaVPKX3pd3QLt88UXqW6ynv23dmH5/3ZqqgBWBcCLIDzL8+W86T3h6efOLt2psJgfl/M3fov2xPx1Z18A8AW1X4JlH3n3K0/XPrSS+PUzP5V+Vdx6kqEAJxHAiyA869+i5tXMPrD7v5s3+I2C7qPYnj5i9srJy0eUoUFACvJvrL0mdl3Zh/ahlkzD4Vq9fT7Snt7d3/G6mkA1svMR20A1k39yvdoaT/Y3Z/xm9yyW659VU685x/7/TG4/EXlhPxBIRYAnEkTXj3Q9JnZd7bh1Sq63lP99A9E23e3JdEAnFeDcV42FoALoZ4Q/3ZpL4z2G94Zk6i2iGt8+LZYeO9LIhbuKQ93ldPp2Qq5AGBLyPBqdDRi25Wx7TnvisGex8SpQuiZ1L753aWVDrd5sQEUwAUw85EbgHVXpyD8n6UtdNtmPCnOqYRLzYn4/BN/rHu8GKuYDgEAF7dm2n17wd/sK5vwqvmiZ+a+svbJ+UP+rzg1lRCAC8ABGODCqd/q/lZpb+7uz76mRrOI+1IMr/7ymHvCvy2vPNFOi5h9SgQAXKTa6fbZN2YfmX1lE16tbsp9dqr5guyjf6u7r9QZ4AIxhRDgwsovEvJAfDDaBd2vndg+m+6EfPSZfx+LH/rb5ZU7w/qyAGxdXR84OhbzT/jXMbzhb641vEp3lvac0u6I9hsinSvABTL7AAmAjVAX4sgT43/U3V/dNws5RWK02Jygz936Q+X+kWh/rEosALaaLmMaHW36xCa8Gq1pin32xfmi7Jtv7+4LrwAuIBVYAP1QT4z/a2lfHata0L3Tfbu89KkfjaW/+LvlJ27vphk63wZgC2jWvFpqpw3e+q9i7hHftZbKq1T74F8q7TUhvALoBQEWQD/Uk+OcQvi+0q7vHq/uK+M6nfDTPxaLH/477Ul7BlmuTgjAxay52mCuBbkU84//kRje+J1rDa9q35tVV8+KdgqhAAugB1Y3MAJgo9SFYvNE+bui/fY3v2FY3bcM3RWX8sR9/qn/uRzld5Sf9FDZPj+9JwBcHLKPy76u9HnZ97Xh1ZqnDWbLPjj74uyTV3eBFQA2zKqP6gBsmDxhzqTp7aX9k1jT1Y4GXVg1iuG1Xxfzz/71GFzyhIiF+7tvoR32AbhYDNu+rfRx2ddln5d9X5M3NX3hqteCrFMHsw/Ovjh/yCr7YQA2iimEAP2TKVMenH+htK8pbTHak+jV6aZOjI9/Lpb+4ntj9Nm3lNPyXW1VVjOl0PEfgM0ov6zJKYPHI5aOxvDgNzQLtg92HFjrtMFU+9q3lfa6aNMvlVcAPSLAAuifGmBdVtqvlfbsOMcQKy195j/G6GP/b4yPfLL8pL3t1AprYwGwmdSLkyweisHum2L4qH8Uczf8jfa5cw+v/rC0V5d2XwiwAHpHgAXQT3X64CNLe2dpN3eP13BmnuffeR4+iPGRj8bSx/5ZjD73lvLTjpSfdokgC4D+q8FVrnU1tyuGB94Yc4/6vhjsviVOLV21pmnytW/9eGkvL+0T3WMdI0DPCLAA+queQD+5tHeUdqB7vIYQq2gWtG2LuMb3vTsWP/7PY3z3O9qrNm27tNsnwy79AgB9kFMF80uWtuIqp8APrnplzN/8vTG47IvaXSb6tjWofWou1v6q0v6seyy8AughARZAv9UT6eeU9qulXdE9XluIldVYedjvrsw0uuuXY+kT/6IJtJonhjvbZo0sAC6YusbVsdLjHWsqrgaXf3HM3fS/xPCqL2t3yVCrWaN9TVVXqfalXygtf+h7u8fCK4CeEmAB9F89oX5Rab9U2uWx1jWxqsl1QsaLMbrn12P0uZ8tt++MOPq58pMzyNqRT3ZVWQCwwZovVwbd4uzHInZcE8NrXxNzN3x7DPY+rTzVXVVw7WtdVTW8uru015b2u91j4RVAjwmwADaHDKsytHpWaW8t7cY4p0qsztQgYHz4thh99s2xdPtPRxz9ZPtcLvjeVG7VNUYAYL1ktVUGU8N2mmD2S7tuirnrvymGB98Ygz2PObXruQdXqfadny7tNaW9P071sQD0mAALYPOoJ9hPKO1nS3ti93jtlViNrLLqwqluYDBeuDtGt/90jO746Rg/+IEyrijbh7vbb8ct+A7AeqgLs4+OlLYUg31PjuF13xTD678pBtuuavdp+pwacnUVWGtX+8w/L+31pX2oeyy8AtgEBFgAm0ud4nBlaf852kVn83E37+Ic1UXc6zfciw/E6PNvj9GnfyxG97+3XfB9Pq9cON8NKvQhAKxGt75VLr6++FDpvbbHcP9zYnjjd8bw6i8vfUy9qEgNrta8xtWk7Kyyg8vOLS+K8o2l3dM99q0MwCYhwALYfOoJ967SfqC07+62n/uUwpOyKiunapwq7hp9/ldjdPt/jNHdv17+pCNlkLGnC7LquAAAzmTYVlE1wdXh0lvtjuFVr4jh9X8jhld3C7On5qqC2ZWd+3cyncm+8UdL+77SjnbbhFcAm4gAC2Bzyq+ka2r0raX9UGmXRTsNYh3P/LtF3CfXybr/PbF0+0/G6M5fjDhxb/PteV4h6uS+AFDVhdmXjrZVvNsvj+G1XxNz139bDPY/99R+zZcm61NM3MlBTgZU+U3MfaV9b2k/1T032YcCsEkIsAA2r7ogSJ6EPznab5Zf1D23jtVYnekF34/8VYzueHNz9cLxQ39ZhgNljDDc1Q5A6lREALagbupfs75VBleLMbjksTE88PpuYfZHn9p1fRZmnzbZB7472krlD0QbXHWLPgKw2QiwADa/ugBtlkH9w9L+Xmk7oj2B7y7ttI6m1skaL9wbozt/IUaf+YkYP/inZaCyYHohwJY0NU1wuC0G+54awxv+egyv/doYbLu83W1917eaVL89yQ7qeGk/WNr/F+2UQYu1A2xyAiyAi8PkdIick5FrY9VqrHWeVtiZXvB9vBDjL/xGLN3+n2J09zsiFu43vRBgK2iCqGG7PmJOE9y2P4ZXvSrmrv/mGFzxsvL8tna/jQuuJqcLpqy6yrWu3tM9NmUQ4CIgwAK4eNRqqzyJz9HCt5f2D0q7oXt+Y4Ks5dbJOvTBWLrjTTG+85djfORj7WBlLquy5roBjL4HYHPLIKo7pmdwVW4Hux8Vg2u/Kuau+5YY7H3SqV3Xf32rqpb51g7oM6V9f2k/XtpCt92cdoCLhAAL4OIz+U3zNaX9rWjX/+jmbmzQ1MJUq6zqt+s5vfCu/xpLd7w5xvf9XvvNfFZkZWVWE3xlH6QfAtgcMrTqll/M43kuzF6O54PLXhBzB98Yw2tfE3FymuBUf7C+JqcKpntK+3el/ZvS7uq2qboCuMgIsAAuTpPVWOmR0a6N9S3RrpWVNqgiK7qBy8T0wjKGGN377hjd8dPt9MKjny1/cnluuLsd3DRVWQD0VlNtVY7toyOlZynH7F0HY3jVK2N48JtieMUXxcnvRDZummCaniqYa1v9+9L+RWm3d9tUXQFcpARYABe36SDrMaV9V2lfV9rBbtv0FIx1lFVWOXWkjjXKwyOfiNFdb4vRZ98c44c+0n6D3yz63mVpwiyAfmiOy91xPBdln9sZgz2Pa64kOLz2a2KwO78b6eTC7fU4vv6yY5icg/jZ0n4+2qqr27ptgiuAi5wAC2BrmA6yri/t9aV9Z2m3dNvqif+GLFTy8KqsaKqxRp97S4zu+uUyOHqw3Ti/r92v6Z7M/gA4v4ZdDzA47bg8vOarYniDx4ISAAAda0lEQVTg9TG86tWndt34aqvsBGr/lT5a2o+V9rOh4gpgyxFgAWwtNZyqQdaOaIOsby7tJXWnePi33etnmSBrfOyOGH3uv8Tozl+K8f2/H+2AaFsZluyOZlziCoYAG2vySoLjXP98HIP9z4/htV8dwwNviMHO607te36Cq8mq4HeV9p+iDa6Od9u68jDfdABsFQIsgK2pG6k062DVxy+NdrH3V0UbbKWNW/A9TV+ZanQsxg+8L5bu+JkY3/PrMTryyRg0VzDcFe00xKzMMlYBWBf1+JvT/5aOxrgcX4e7b4rBFa+IueveGIP9zy5H/53dzt3xd+LLh3VWq6jqH5BB1TtK+9HSfrN7PmVnkPd1BgBbjAALYGubnlqYnlfat0VbmXVJt60GWbWtsxwYTa2VdfzOGH/+7bF058/H+L7fb9dfyYHTfP6VTDEEWJthdxQv/7f4UHvsnd8Tg8ueH3PXfl0Mrv7yGOy49tTuG7u2VR7Ja6vBVflLNZVWP1naH3TbkqmCAFucAAuAVIOsyekYN0cbZL0h2qsYpvr8Bn0FP1FhdfJb/nGMD304Rp97c4zu+Z8xvv+PormMe4Zdc3u611j4HeCsagi1dLgNpcY5RfCZMbzyS2J44I0x2Pv49vlUj6mTFbLrb3qq+idK+y/RBlcf77bV5wVXAAiwAHiY6XVFri7ttaV9R2lPqzvFwwcf6+zhVVmxeChG978nRre/KcZ5e+Tj7R+ea2UNt3UvE2YBNOoXAaOFZm2rPLAPd98cg/3PjeH13xLDchvze0/tv7HVVmm5L0H+pLT/UNrbSvt8t632LQ7oAJwkwALgTHLwkIOMuk5W3v/y0r61tC8trUuMNnp6YRq1lVmTUwxP3B3je/5HjO76lRjd887yt7y/qSiIbXkVw/xrZACWfZx+DtgqyrEvK1TzNo9/9SqC2y6L4ZUvj+E1XxmDK18Zg+1XnXpJE1plXrQxSx1GexCurQZXuUr8fy/tp0p7e5wKqvIgn/cduAF4GAEWACtZ7pvwrMT666V9TWl1sZT6zfoGV2VNTzEsm45+KkZ3/kKM7v71GN/32+VveqIdkGVlVl7NMAdoxkPARSuDq/lorh7YXEWwHCeH22Nw+Yvb4OrA18dg1yNO7X5+pggu1yfcVdpbS/uJaCuvqunKXwB4GAEWALPKAUgORCbXIrm+tNdFW5X15G5bqlVZG/aVfhtmTU0xLNvGD/5pjO7+7zG6820xPvLRiOMPRmzb0e6XYVZ9HcBmVqf6ZWiVIf3C8Ygd+2Kw+5YYXvvaGF71pTHY99R2n2rjpwim2kdMThP8QLTVVhle3d5tW65PAYAzEmABsBbTVVk5UHl1ad9U2leWtqPbXp/f0K/5lw+zyqZ7fydG2e78hRgf+Vh3JcPhxJov+brsB/WFQN9llVUeRrtD6eKhaCqt5nd3odXrYnj5i2Nw+Red9qrzFFpNVk/V4Op4ab9S2k+X9mtxen+h2gqAVRNgAXAupoOs9LjSvjna6YWPntie8/g2eBQ1EUhNTo0ZHY/xoQ/E0md/LsYPvDfG9/1ut79phkDfZXA1MT2wy30Gl70wBpc+J+YOfn0M9j65HM7q9wZ5HMx9pgKvjZEHzTz+T3578Fel/WJp/6m0j0xsF1wBcE4EWACsh+WmglxZ2stL+7bSXljarm57HcBscFVWcXKdl4mZLEtHY/zQB2N013+L0ed/NcZHP9ZOM5zfHs2VDGsVVzMA1EcC51sGT93s6wzW8wqCiyfa6YG7HhXDq7+stK+Iwd4nRczVw2ruu8zxbmMsdww/Wlp+M/CTpb2ztHu67cv1DQCwJgIsANZbDlay1asXpmdFW5H1htJumNhe18ra4DKBWpk1OhVQ1Wfu/e0Y3f+eGN31SzE+9KHyN8ppOeWJ+T3dvl0/WRePB1hvNbDKw2CGVs105/Jwbm8M9j4+hte8Job7n9ssyn6apnK0vPb8VFrVNpmQfaa0/xJtxdX7JrbnwTMPmg6cAKwbARYAG6V+816/rU+5+NRrS/va0l5RWq6qnuq38xtflXUyzBp3g8bujxsvxPjIx2N051tjdP/7Ynzv70YsfKEdGGaQlVMNm8FlZm76TuBc5bGlm1XXXDlwsT02bbsiBpe/MIb7nx3Da78mBrtvjvYCFCmPX+dtemCqx+96PE8Lpf16ab9Q2ttKO9RtrwdU1VYAbAgBFgDnQ/3GfnKtrCeU9vXRhlm5blZVBz8bPg+mcYZpN+PDt8X4wT+L0WffUu5/OEYP/WXpNMsTczvKMC2vaJgFBgItYFYTgVUzNbC0peMxLpuHlzw2BntujeHBN8Rg31PK/cec/tIzHKc2UK2OraFVyvWsMrT6udI+NLF9ueM7AKw7ARYA51MdEE1+Q58rD7+ytNdFewXDS7vt6TxNMUxdVVZWN0xdsWu8cH+M73lHjB/802btrPHx2yMWHmyffNhUw+7nAFtcrZLq7tepgWnbvhjsuD6G13xFDPY9NQZXvioG2/affGV7LCqHv5NVoht8+Dt5AHzYlwcPRHslwbeW9j+ivbJgWu5YDgAbSoAFwIUwGUpNfmt/MNqKrK8o7WUT27Ozml40eAPl4HEiiJqsehgdi/GRj8Xoc78Qo0MfiPF9v1eGdJ/vBqqDdlHlwfZo/rOEWbDF1NCqHDPGJ5qLRpw8nuy4OgaXvSCGe58cwwNfG4PdjypHtJ2nXlqrrE7+jPNwqDvzsfU3Svtv0VZcfXZie1dCdrIBwHkjwALgQutGe02QNdkpPS3aKYZfFadPMcx9ct/Ty6Q2VA5A84/MxZInZ9REE2aNH/rLZu2s8YPvj/Gxz5R2bwzmBu3gNMOvWqHlyoZwkcmwqct+mjWsltqQe2kcg52Xl3ZDDPY9LYbXvi4GlzyuDa0mNceEh1d9brAzHUNziuAvRztF8E8mtp/pGA0A55UAC4A+qQOlySsY5hTDrMb68tJeU9q1E8/VkoXp6oEN1BUeLDPVMAei4/veG+NDfxajL/xmab9RNi1ELBxqdzPdEDa5Wh3V3a/TAvNjvG1vORJti+HlL43hlS+Lwd6nxOCy58Tpy0h1Yfj5mxpY5d+wXkxjcorgnaX919LeHm3VVZ0imPJgJbQCoDcEWAD0UR3ZZZucYpiLxHxZaV8dbah12cRz3fXkz+eoMAejEyHU9ELwC/e1YdZdv9Jc4bCZbnjinlMD4OH20nZ1O9fqLP0y9Ed3OKmVl6OjpZ1o7+dnf/sVMbjshc2VApv1rPY+NQbbJg9Lud8FmRqY6gElDy4ZRlX3RRtWZbVVBlf3TzxniiAAvSXAAqDvcrSXo8fJCoJ0U2lfXNo3lPbM0i6feK6mQeexMqtTr0rYVFpNPXX4o+36Wbkg/H1/EOMTd0Uc/mT75Ny28ppsOU3RlEO4MGpYVW6bKYHlMzheiFhaaJ/ec1MMtl8Tg8ueF8NceH33zTHY8+jTfkIjX9v8rNND7fOgHifrcbO6t7Q/Ku0tpf1WaZ+ceK4eJx1wAOg1ARYAm8mZwqzHRluR9drSXhjttMPqAkwzrDKE6v6qD5tuWJ46+okY3/+eGB++LUZ3vyPGD93WVngsHm13ndtZ/tb5n5I/IzfUn6fvhnM3WRHVfcZGx8sR41j7cH5XUyE5uOQxMbzqVTHY85gY7H9uDHY98vQf03wu6xp59eedV5PHw8nELKcD/m60UwTfWdpfTjwntAJg0xFgAbBZ1QHYdJiVqyTnFMOXl/bi0ro5eo2uLOJChlldv9sMdCcKJMaLMT7xhSbQGt37mzE+dmeMH/jDiCOf7PbN15X9h9uivXJZDbTqf7r+HM6s+7ifXHuqfF5Gx6JZo64WLOXnc/dNMbj02THYcW0Mr3hpG1htvyJOr6jMqqz6eRt0n8/zfDg5ddzL28m/XPmPaiqsMrDKKYIfnXjuTMdMANgUBFgAXAxyYJZtcvH39Jhog6zXlfaUOH2aYXaAXdnEaVNtzp96BbJmEPzwqUbjY7eX4egdMX7owzH6/NvL4083a2iNjnwyBvmyfEkTZmXlR7Y6js0BtvEpW1gTVHUf6zoVMD8XGVqVT/04s+DdN0VsvzIGO2+M4dVfHoNLHh+x87ry+PqJH9SpU4PrZ+3CqAeM6XLOnB74Z6W9Ndrg6raJ51IeGOprAWDTEmABcLHJgd1yl3zPMOvFpb26tJdEuyB8NbHK8sl2nnV/1bru1TJTDlM77fB9MT722Rg/+Mcxuve3y9/+cGnd1MM0V8aruTh8M9DOn1uLLvImb/X9XAxq9VN3v77X8zOUU3GXujw7pwLOZdsTw8tfHIN9z4jBzoMx2P+sZaYDpnEXWOXPr2HVwz+L50H9sNYP7GTKnQuvv6u0XyutHAROC63OdAwEgE1NgAXAxWoyjMrObrL64JrSXlXaK0p7QWmPmHguXYArGk7LQXQdu3b/CSenP01YOhzjhXtj/MD7Y3Tf70Yc/3yMj9wW4wf/pDx3vBvgdz8jK7SyYqsuEt/8GfXX4nyAPuve9yc/A6VlZVVWVDULpnfv8fzMzO2Iwb6nxWD3YyJ2XB3DvErgpU+PwbbLmxDrdPUzMPk5uYAf+5MfzOZ4NX0liE+V9nul/Xpp7yjtronn6i+mvt4HGoCLjgALgK2izimanmaYYVZOL/zK0r442gXhJweO2VFe2KmGk05OO4wuiFrG4qEYH/1UjBe+EONDH47xF94Z42OfKdsfKts/WbYfPbUEV11Pq5mC2MxJ7H5IHdg7T+B86t6LJwOk8h7Maqj6XmzWrYompxps2xWDXTeVT+slMdh5QwyueHkM9j6+bL+ibH9E2b731I+d1AReKd/zF/4jHWeeGph/0Vx4/bdK+5VopwlOhlbJ9EAAtgwBFgBbUY1vUp0+mHIA+fxor2T4ytKeVdruiedrolMHmT0Y/Xb9+MmwKQOAh6+nlcYn7onxg38acexTMT5+d4wP/VmM7n9PE2zF6ET5TRwqt93PGw7baVcnq7Xqf3L98+r5g/MIVqN7H5029S9177EMl3I67KjLY4Zl29zecru9CaqGuaj63qfEYMdVETsfEYN9T43B9iu7nzHl5LpVNRRLk/nQBTNZ9jh5LEpHSntfaf8j2isI/n48/BiVpMsAbDkCLAC2uslyj8mBYm7L1Zy/JNo1s55b2i0Tz6e6f69Gx824dnqtq+WmH6alozFefDDi6MdjdP8fxvjwX5ZtWan1mRgf+mDEiS90YUP9Wd14ezhf7m6PUwFX6kpjTnKOsTVNvM9Ou9pmF1CNT5S3ShYXTWYw+Vy5v/2KGOx9Ugx23RAxd0kM9jw2hvufHbHr5vJW29eGqg+T7/fJAqQMrPLPXeb9fmFMfEAa0wnzx0r7g2grrXJ64O1x+oen7p/bVFoBsGUJsADglMnR9mSYlbLM49bSXhZtqJWLwk+XftSpPPkzelCdNa0O9LPvz0H+9Dh6wuhYjI+WcfTifTHOdbUO3xbj+/+gvTLi6HhErruVC8kvnjiVFWRIlpUy7YP28eTV4Bo1XDMO37wmA6KJkKipeKohZteysi/fc90/+2B+e7OAeuR6VMMd5f51Mdj/vCaoGuy4OmL+shjsuj7aqa1n8LDKqt4EVZPOdiy4J9pF1/OKgdn+ots2SaUVAEwRYAHAmZ0t0MpqrJximNMNM9B6ZJy+dtZUecn0aL8vur/iaaFSDZ7OYHQixsfviHjoI+X2czFePBxRHo8e+otmWmIs5iyoURt0NdPBul9d8xvI0GF7G3SddpXESRPnJs3dGoiwcWroOL1tUvdvlQFS/tuOFk7/Z6lXv2xCzPJvO787BnufHMNLHh+x47oYzO+JwY4DEZc8rtxe1+13BpNrvTXvx/p3mf479UJ9g05+3ic/QFlu9sloq6tyWmBOEfzoxPNJYAUAKxBgAcBs6oA0B6eTaU/aUdrjoq3Oek5pzyjtURPPVzmQrYPbXo7ETxl3odb0eUKGHGcJt5aORFO9deK+iOO3x+ihDzfVW832xQebdbji2B0xPvqJsu1YF0ws82fUP6epEistpyyeNpNq6vaM5zNn2n6xOsPb6rQpddO3GUjlWzMXS59YMP1hv7sMr8q2bftisPvmNpTafkUbWs3vjcElT4jhnlvK9oMx2La/raKam1xCbsqyFwnIf/fJv2tv1WNA3i53NYWcFvj+0t5T2m+U9pHSjk88X48B9RegJBEAViDAAoC1qVODJktFqquirdB6cWlfHG249YjJHTp1LlT9WZtEDYwmQ44Mm2b4TxgvxPjEvREZZI2OxnjpoTKsv6u5SuL48F/F+MhH22Cr7Je3zfO5RtfC/eV+W8l1WjFOc38umrW4TvvzMwiZ3GkyGDlTOLLcOVG37eRTy+2TzrS9OtOf2W0/+fRy+y23LXW//9P+LfJxfa7uVt6ezZX3Mpw69VQ9BRzMld/btsvaECoXTJ/bWTZua24Hu2+JwZ5Ht1f1235NeX5P2W9PDMr95jWzOK2aavrfYtOo/xH5l15u7u2nor1i4LtK++1oK6zuPm2Psx8zAIAVCLAA4NzV0XgOTrNjnZ5ueEW0VVlPLe1F0VZp5fpZkyP4fN3UKH9zjfBbk8FJTUu6cf/D1sNaweKhGC98IeLE3c1Uxcjga7wY46aa64F2Ha68suLxOyMyAFu4v3thBjbZajXRYlthlKFY/p1qDDFtclsNWE6usZT3J/9Z6nMTph9Xpy0wXh/X38144veU97vnJs/PljtVy23NXy3/Htu6CrUuxMuqtYnfdVMNtfOGGOy4ttwvb7vtl5ddLy277Y4m+Nt+WXnuYLm9qjx/RRNkzezkelRp8vdULfeL7r2Jf5BGfRNUuT3XrHpvae8u7U9L++PSvjCxT5oMrCZ/HgCwBgIsAFh/0wPe6UBrX7Rh1gtKe3ppTyrtsaft0aqVGpM/b1MmAqfUoKbeX84y4dBZlV9Rs1h4hlRL5X/HmuquWDrchmCL98c4r6aYYdeJu5tqrua3WEOuk+FWXh1voWzOn5X3cw2vrhpslLf55+TtYrmba0DljLDunyP/7AzWllODokb5b87Fy0trtuU0u/xvbW7bqqd8PtcJG+QaUcNtzf2TIVUNp/JXt21/eeqqiO1XNlP5BvP72/Apq6SGu8qu+TO76rS6LtWslp3eV02GVJv87XjqPzJv62dtuV9UVld9MNppgb8XbWj14Gl7nF6ZVX8eALBOBFgAsPFylF8HxdNhVrq8tBtLe2ZpXxRtuHVdt31aDbXqz9z0CcKZZdBVC1emz1dqiLJc1rAOmjAsK7cy2Foqf428zcCrfXzy+ZP7ZxB24tTjSc2C9RPZRjPdsYZRGVANy39K3uZaX3nbPb8h8r9hMrOp8ndZf6cX8VvqVLCUt2cKq+4t7Y5oQ6qssMpF1z/dbZ9W/2HPlvgBAOtAgAUA519NCer0ouUqNXLdrCeU9uTSnh1tpVZORZxef2d64Fx/9kWdQjzccuczGYBN3D+t2CZNVhFleDNxvxe6v3Pz153h739y03J//+W2XdTqL2z6szEdWGWgnFP/srLqD0v7QGkfinbR9Wk18KqfueXedADABhFgAcCFNx06TYdS6ZLSbo22SisrtDLgyse5YPxyannQZJXWlksxVm/6115128/0dONMT57l137yqTPtc6btTJhM9moYfKYStlxY/S+iDaiywuqPuscPTe7UmbzspcAKAC4wARYA9FOt9siOerlphzlAP1ja9dFWZ2Ww9cRu24GJ/SbVAX7e1moUCQmbyWrew58r7bOl/Xm0QVVWWd3ebZuY/3lSBlb5s85UFQkAXEACLADYHCartLItNwBPN5T2mNJuiXYKYoZaeZvraS1XlTJd7TVZrXWmYAA20mS10/R7c3oKYMrPQq5P9eFoF1rPKYAfLe220j4zsd+k/CxMVlY5IQaAnhNgAcDmNBlmVdNhVLWntEdFe7XDbDeX9siu5bpaZ5KVX7XSZfLPEmyxHiZDqtryvTW9ztukXK/qE137eLSBVbaPlXZ4Yr9qOvQSWAHAJiXAAoCLS51Sle1sU6F2R7t+1jWlPT7aYCtvs4LrymiDreUqtqrJnz0ZcAm3mDQZGNWTzjNd/a/KiqoMqu6JtoKqVlbl7V3RrmN15OTep5ucepvtTO9/AGCTEWABwMVvOmA6W7CVz9/YtQyzsnLr0d1tVm5dVtqOk3s/3JmqwKartwRdm1v9N56+nTRd/TTteGn3RVtJlRVUf9Xd//REW+7npumgajIgAwAuQgIsANiazlQxtdyC8SnDggyucoH4XF8rw6wMta6LUwvH521eLXElefIx+ecs93eZ/ntxfk2eIC4XENUFz1eSV/fLRdPrgup3RBtWZVCV61Tl9gyyzhSoTk8nXO7vAgBsAQIsAGDSZJiULU8UzlRVVWXIcGm01Vm5WPwjSrsp2iquvM2QK5/Ptq+07fmiGdU/e/LPnwy7pm9ZXv39Td4u9zs9W8XUtFxz6lBpD3Qtr/CXVVM57S9vPxXt4upZZZXPnykcTfXPru85QRUAcBoBFgAwq8mwaDLgOlswUWVl1rXRrruVa2zlbT7Oqq1seT/X48rtGXBti9WFKTVom9WZAq8zba9Wen61VjoRO9PzZ9q+nBoMzSp/jwulnYh2valcdyorpbJ6KkOqvJ/bPz9xm1VUK6lVW9Ph1Gr+WwCALUqABQCcq+lga9os4VKGLBla7Yw24MowK9vV0YZauah8VnfVSq6s9tobbUVXhmP5uo00GbacKXiZflxN/06W+31N77PejkU7ne/BaKum7u9aVkZllVQumJ4Lp2dYVVtuy9dlmDXLv99y/w1n+30BAMxMgAUAnA81rJkMbWq4sVI4Mi3DkryK4q6uZXiVtxlkZdCV4dbklMXJ+xl65b61yqveZsurLk62rBg625UYN0JegS8r2vJ2smWIVKui6u3RaMOoDKXqNL7J+zl1L0OpDK5y3wyj8jZbXsVvLb/3WhU3Heg5oQQANpQACwDoi8kKnunqpGw17Fpt8HImGV7VACxbPl6uZYhVpzTW2xpyVfW55UxXMNVQqk7Vq7e5LYOp5VqGTzWAysfroQZS9Xc7HUpVThYBgAtOgAUAbCbTIddy91ey2auGpivZZnGmQGqz/g4AgC1GgAUAbFVnC8BWerycM+0zy8nW9D5nezz9HADARU+ABQAAAECvreby1AAAAABw3gmwAAAAAOg1ARYAAAAAvSbAAgAAAKDXBFgAAAAA9JoACwAAAIBeE2ABAAAA0GsCLAAAAAB6TYAFAAAAQK8JsAAAAADoNQEWAAAAAL0mwAIAAACg1wRYAAAAAPSaAAsAAACAXhNgAQAAANBrAiwAAAAAek2ABQAAAECvCbAAAAAA6DUBFgAAAAC9JsACAAAAoNcEWAAAAAD0mgALAAAAgF4TYAEAAADQawIsAAAAAHpNgAUAAABArwmwAAAAAOg1ARYAAAAAvSbAAgAAAKDXBFgAAAAA9JoACwAAAIBeE2ABAAAA0GsCLAAAAAB6TYAFAAAAQK8JsAAAAADoNQEWAAAAAL0mwAL+/3bsWAAAAABgkL/1NHYURgAAALAmsAAAAABYE1gAAAAArAksAAAAANYEFgAAAABrAgsAAACANYEFAAAAwJrAAgAAAGBNYAEAAACwJrAAAAAAWBNYAAAAAKwJLAAAAADWBBYAAAAAawILAAAAgDWBBQAAAMCawAIAAABgTWABAAAAsCawAAAAAFgTWAAAAACsCSwAAAAA1gQWAAAAAGsCCwAAAIA1gQUAAADAmsACAAAAYE1gAQAAALAmsAAAAABYE1gAAAAArAksAAAAANYEFgAAAABrAgsAAACANYEFAAAAwJrAAgAAAGBNYAEAAACwJrAAAAAAWBNYAAAAAKwJLAAAAADWBBYAAAAAawILAAAAgDWBBQAAAMCawAIAAABgTWABAAAAsCawAAAAAFgTWAAAAACsCSwAAAAA1gQWAAAAAGsCCwAAAIA1gQUAAADAmsACAAAAYE1gAQAAALAmsAAAAABYE1gAAAAArAksAAAAANYEFgAAAABrAgsAAACANYEFAAAAwFqnyqr3NB/xmQAAAABJRU5ErkJggg0K;" vertex="1" parent="8EiXPBe6yDVJfnOFMUdu-15">
          <mxGeometry x="380" y="209.75" width="50" height="50" as="geometry" />
        </mxCell>
        <mxCell id="8EiXPBe6yDVJfnOFMUdu-14" value="&lt;font style=&quot;font-size: 24px;&quot;&gt;Data Architecture&amp;nbsp;&lt;/font&gt;" style="text;html=1;align=center;verticalAlign=middle;whiteSpace=wrap;rounded=0;" vertex="1" parent="8EiXPBe6yDVJfnOFMUdu-15">
          <mxGeometry x="240" y="20" width="340" height="30" as="geometry" />
        </mxCell>
      </root>
    </mxGraphModel>
  </diagram>
  <diagram id="s6mL6WY4JmcPwkcm4BeC" name="Page-2">
    <mxGraphModel dx="1426" dy="781" grid="1" gridSize="10" guides="1" tooltips="1" connect="1" arrows="1" fold="1" page="1" pageScale="1" pageWidth="827" pageHeight="1169" math="0" shadow="0">
      <root>
        <mxCell id="0" />
        <mxCell id="1" parent="0" />
        <mxCell id="jrQtgTCG_K1GW5JG4UNr-187" value="" style="rounded=0;whiteSpace=wrap;html=1;" vertex="1" parent="1">
          <mxGeometry x="280" y="40" width="810" height="920" as="geometry" />
        </mxCell>
        <mxCell id="jrQtgTCG_K1GW5JG4UNr-1" value="Ziko_logistics&amp;nbsp;" style="shape=table;startSize=30;container=1;collapsible=1;childLayout=tableLayout;fixedRows=1;rowLines=0;fontStyle=1;align=center;resizeLast=1;html=1;" vertex="1" parent="1">
          <mxGeometry x="70" y="70" width="180" height="770" as="geometry" />
        </mxCell>
        <mxCell id="jrQtgTCG_K1GW5JG4UNr-2" value="" style="shape=tableRow;horizontal=0;startSize=0;swimlaneHead=0;swimlaneBody=0;fillColor=none;collapsible=0;dropTarget=0;points=[[0,0.5],[1,0.5]];portConstraint=eastwest;top=0;left=0;right=0;bottom=1;" vertex="1" parent="jrQtgTCG_K1GW5JG4UNr-1">
          <mxGeometry y="30" width="180" height="20" as="geometry" />
        </mxCell>
        <mxCell id="jrQtgTCG_K1GW5JG4UNr-3" value="PK" style="shape=partialRectangle;connectable=0;fillColor=none;top=0;left=0;bottom=0;right=0;fontStyle=1;overflow=hidden;whiteSpace=wrap;html=1;" vertex="1" parent="jrQtgTCG_K1GW5JG4UNr-2">
          <mxGeometry width="30" height="20" as="geometry">
            <mxRectangle width="30" height="20" as="alternateBounds" />
          </mxGeometry>
        </mxCell>
        <mxCell id="jrQtgTCG_K1GW5JG4UNr-4" value="&lt;span style=&quot;color: rgb(204, 204, 204); font-family: Consolas, &amp;quot;Courier New&amp;quot;, monospace; font-size: 14px; font-weight: 400; white-space: pre;&quot;&gt;Transaction_ID&lt;/span&gt;" style="shape=partialRectangle;connectable=0;fillColor=none;top=0;left=0;bottom=0;right=0;align=left;spacingLeft=6;fontStyle=5;overflow=hidden;whiteSpace=wrap;html=1;" vertex="1" parent="jrQtgTCG_K1GW5JG4UNr-2">
          <mxGeometry x="30" width="150" height="20" as="geometry">
            <mxRectangle width="150" height="20" as="alternateBounds" />
          </mxGeometry>
        </mxCell>
        <mxCell id="jrQtgTCG_K1GW5JG4UNr-5" value="" style="shape=tableRow;horizontal=0;startSize=0;swimlaneHead=0;swimlaneBody=0;fillColor=none;collapsible=0;dropTarget=0;points=[[0,0.5],[1,0.5]];portConstraint=eastwest;top=0;left=0;right=0;bottom=0;" vertex="1" parent="jrQtgTCG_K1GW5JG4UNr-1">
          <mxGeometry y="50" width="180" height="30" as="geometry" />
        </mxCell>
        <mxCell id="jrQtgTCG_K1GW5JG4UNr-6" value="" style="shape=partialRectangle;connectable=0;fillColor=none;top=0;left=0;bottom=0;right=0;editable=1;overflow=hidden;whiteSpace=wrap;html=1;" vertex="1" parent="jrQtgTCG_K1GW5JG4UNr-5">
          <mxGeometry width="30" height="30" as="geometry">
            <mxRectangle width="30" height="30" as="alternateBounds" />
          </mxGeometry>
        </mxCell>
        <mxCell id="jrQtgTCG_K1GW5JG4UNr-7" value="&lt;span style=&quot;color: rgb(204, 204, 204); font-family: Consolas, &amp;quot;Courier New&amp;quot;, monospace; font-size: 14px; white-space: pre;&quot;&gt;Date&lt;/span&gt;" style="shape=partialRectangle;connectable=0;fillColor=none;top=0;left=0;bottom=0;right=0;align=left;spacingLeft=6;overflow=hidden;whiteSpace=wrap;html=1;" vertex="1" parent="jrQtgTCG_K1GW5JG4UNr-5">
          <mxGeometry x="30" width="150" height="30" as="geometry">
            <mxRectangle width="150" height="30" as="alternateBounds" />
          </mxGeometry>
        </mxCell>
        <mxCell id="jrQtgTCG_K1GW5JG4UNr-8" value="" style="shape=tableRow;horizontal=0;startSize=0;swimlaneHead=0;swimlaneBody=0;fillColor=none;collapsible=0;dropTarget=0;points=[[0,0.5],[1,0.5]];portConstraint=eastwest;top=0;left=0;right=0;bottom=0;" vertex="1" parent="jrQtgTCG_K1GW5JG4UNr-1">
          <mxGeometry y="80" width="180" height="30" as="geometry" />
        </mxCell>
        <mxCell id="jrQtgTCG_K1GW5JG4UNr-9" value="" style="shape=partialRectangle;connectable=0;fillColor=none;top=0;left=0;bottom=0;right=0;editable=1;overflow=hidden;whiteSpace=wrap;html=1;" vertex="1" parent="jrQtgTCG_K1GW5JG4UNr-8">
          <mxGeometry width="30" height="30" as="geometry">
            <mxRectangle width="30" height="30" as="alternateBounds" />
          </mxGeometry>
        </mxCell>
        <mxCell id="jrQtgTCG_K1GW5JG4UNr-10" value="&lt;span style=&quot;color: rgb(204, 204, 204); font-family: Consolas, &amp;quot;Courier New&amp;quot;, monospace; font-size: 14px; white-space: pre;&quot;&gt;Customer_ID&lt;/span&gt;" style="shape=partialRectangle;connectable=0;fillColor=none;top=0;left=0;bottom=0;right=0;align=left;spacingLeft=6;overflow=hidden;whiteSpace=wrap;html=1;" vertex="1" parent="jrQtgTCG_K1GW5JG4UNr-8">
          <mxGeometry x="30" width="150" height="30" as="geometry">
            <mxRectangle width="150" height="30" as="alternateBounds" />
          </mxGeometry>
        </mxCell>
        <mxCell id="jrQtgTCG_K1GW5JG4UNr-11" value="" style="shape=tableRow;horizontal=0;startSize=0;swimlaneHead=0;swimlaneBody=0;fillColor=none;collapsible=0;dropTarget=0;points=[[0,0.5],[1,0.5]];portConstraint=eastwest;top=0;left=0;right=0;bottom=0;" vertex="1" parent="jrQtgTCG_K1GW5JG4UNr-1">
          <mxGeometry y="110" width="180" height="30" as="geometry" />
        </mxCell>
        <mxCell id="jrQtgTCG_K1GW5JG4UNr-12" value="" style="shape=partialRectangle;connectable=0;fillColor=none;top=0;left=0;bottom=0;right=0;editable=1;overflow=hidden;whiteSpace=wrap;html=1;" vertex="1" parent="jrQtgTCG_K1GW5JG4UNr-11">
          <mxGeometry width="30" height="30" as="geometry">
            <mxRectangle width="30" height="30" as="alternateBounds" />
          </mxGeometry>
        </mxCell>
        <mxCell id="jrQtgTCG_K1GW5JG4UNr-13" value="&lt;span style=&quot;color: rgb(204, 204, 204); font-family: Consolas, &amp;quot;Courier New&amp;quot;, monospace; font-size: 14px; white-space: pre;&quot;&gt;Product_ID&lt;/span&gt;" style="shape=partialRectangle;connectable=0;fillColor=none;top=0;left=0;bottom=0;right=0;align=left;spacingLeft=6;overflow=hidden;whiteSpace=wrap;html=1;" vertex="1" parent="jrQtgTCG_K1GW5JG4UNr-11">
          <mxGeometry x="30" width="150" height="30" as="geometry">
            <mxRectangle width="150" height="30" as="alternateBounds" />
          </mxGeometry>
        </mxCell>
        <mxCell id="jrQtgTCG_K1GW5JG4UNr-74" style="shape=tableRow;horizontal=0;startSize=0;swimlaneHead=0;swimlaneBody=0;fillColor=none;collapsible=0;dropTarget=0;points=[[0,0.5],[1,0.5]];portConstraint=eastwest;top=0;left=0;right=0;bottom=0;" vertex="1" parent="jrQtgTCG_K1GW5JG4UNr-1">
          <mxGeometry y="140" width="180" height="30" as="geometry" />
        </mxCell>
        <mxCell id="jrQtgTCG_K1GW5JG4UNr-75" style="shape=partialRectangle;connectable=0;fillColor=none;top=0;left=0;bottom=0;right=0;editable=1;overflow=hidden;whiteSpace=wrap;html=1;" vertex="1" parent="jrQtgTCG_K1GW5JG4UNr-74">
          <mxGeometry width="30" height="30" as="geometry">
            <mxRectangle width="30" height="30" as="alternateBounds" />
          </mxGeometry>
        </mxCell>
        <mxCell id="jrQtgTCG_K1GW5JG4UNr-76" value="&lt;span style=&quot;color: rgb(204, 204, 204); font-family: Consolas, &amp;quot;Courier New&amp;quot;, monospace; font-size: 14px; white-space: pre;&quot;&gt;Quantity&lt;/span&gt;" style="shape=partialRectangle;connectable=0;fillColor=none;top=0;left=0;bottom=0;right=0;align=left;spacingLeft=6;overflow=hidden;whiteSpace=wrap;html=1;" vertex="1" parent="jrQtgTCG_K1GW5JG4UNr-74">
          <mxGeometry x="30" width="150" height="30" as="geometry">
            <mxRectangle width="150" height="30" as="alternateBounds" />
          </mxGeometry>
        </mxCell>
        <mxCell id="jrQtgTCG_K1GW5JG4UNr-71" style="shape=tableRow;horizontal=0;startSize=0;swimlaneHead=0;swimlaneBody=0;fillColor=none;collapsible=0;dropTarget=0;points=[[0,0.5],[1,0.5]];portConstraint=eastwest;top=0;left=0;right=0;bottom=0;" vertex="1" parent="jrQtgTCG_K1GW5JG4UNr-1">
          <mxGeometry y="170" width="180" height="30" as="geometry" />
        </mxCell>
        <mxCell id="jrQtgTCG_K1GW5JG4UNr-72" style="shape=partialRectangle;connectable=0;fillColor=none;top=0;left=0;bottom=0;right=0;editable=1;overflow=hidden;whiteSpace=wrap;html=1;" vertex="1" parent="jrQtgTCG_K1GW5JG4UNr-71">
          <mxGeometry width="30" height="30" as="geometry">
            <mxRectangle width="30" height="30" as="alternateBounds" />
          </mxGeometry>
        </mxCell>
        <mxCell id="jrQtgTCG_K1GW5JG4UNr-73" value="&lt;span style=&quot;color: rgb(204, 204, 204); font-family: Consolas, &amp;quot;Courier New&amp;quot;, monospace; font-size: 14px; white-space: pre;&quot;&gt;Unit_Price&lt;/span&gt;" style="shape=partialRectangle;connectable=0;fillColor=none;top=0;left=0;bottom=0;right=0;align=left;spacingLeft=6;overflow=hidden;whiteSpace=wrap;html=1;" vertex="1" parent="jrQtgTCG_K1GW5JG4UNr-71">
          <mxGeometry x="30" width="150" height="30" as="geometry">
            <mxRectangle width="150" height="30" as="alternateBounds" />
          </mxGeometry>
        </mxCell>
        <mxCell id="jrQtgTCG_K1GW5JG4UNr-68" style="shape=tableRow;horizontal=0;startSize=0;swimlaneHead=0;swimlaneBody=0;fillColor=none;collapsible=0;dropTarget=0;points=[[0,0.5],[1,0.5]];portConstraint=eastwest;top=0;left=0;right=0;bottom=0;" vertex="1" parent="jrQtgTCG_K1GW5JG4UNr-1">
          <mxGeometry y="200" width="180" height="30" as="geometry" />
        </mxCell>
        <mxCell id="jrQtgTCG_K1GW5JG4UNr-69" style="shape=partialRectangle;connectable=0;fillColor=none;top=0;left=0;bottom=0;right=0;editable=1;overflow=hidden;whiteSpace=wrap;html=1;" vertex="1" parent="jrQtgTCG_K1GW5JG4UNr-68">
          <mxGeometry width="30" height="30" as="geometry">
            <mxRectangle width="30" height="30" as="alternateBounds" />
          </mxGeometry>
        </mxCell>
        <mxCell id="jrQtgTCG_K1GW5JG4UNr-70" value="&lt;span style=&quot;color: rgb(204, 204, 204); font-family: Consolas, &amp;quot;Courier New&amp;quot;, monospace; font-size: 14px; white-space: pre;&quot;&gt;Total_Cost&lt;/span&gt;" style="shape=partialRectangle;connectable=0;fillColor=none;top=0;left=0;bottom=0;right=0;align=left;spacingLeft=6;overflow=hidden;whiteSpace=wrap;html=1;" vertex="1" parent="jrQtgTCG_K1GW5JG4UNr-68">
          <mxGeometry x="30" width="150" height="30" as="geometry">
            <mxRectangle width="150" height="30" as="alternateBounds" />
          </mxGeometry>
        </mxCell>
        <mxCell id="jrQtgTCG_K1GW5JG4UNr-65" style="shape=tableRow;horizontal=0;startSize=0;swimlaneHead=0;swimlaneBody=0;fillColor=none;collapsible=0;dropTarget=0;points=[[0,0.5],[1,0.5]];portConstraint=eastwest;top=0;left=0;right=0;bottom=0;" vertex="1" parent="jrQtgTCG_K1GW5JG4UNr-1">
          <mxGeometry y="230" width="180" height="30" as="geometry" />
        </mxCell>
        <mxCell id="jrQtgTCG_K1GW5JG4UNr-66" style="shape=partialRectangle;connectable=0;fillColor=none;top=0;left=0;bottom=0;right=0;editable=1;overflow=hidden;whiteSpace=wrap;html=1;" vertex="1" parent="jrQtgTCG_K1GW5JG4UNr-65">
          <mxGeometry width="30" height="30" as="geometry">
            <mxRectangle width="30" height="30" as="alternateBounds" />
          </mxGeometry>
        </mxCell>
        <mxCell id="jrQtgTCG_K1GW5JG4UNr-67" value="&lt;span style=&quot;color: rgb(204, 204, 204); font-family: Consolas, &amp;quot;Courier New&amp;quot;, monospace; font-size: 14px; white-space: pre;&quot;&gt;Discount_Rate&lt;/span&gt;" style="shape=partialRectangle;connectable=0;fillColor=none;top=0;left=0;bottom=0;right=0;align=left;spacingLeft=6;overflow=hidden;whiteSpace=wrap;html=1;" vertex="1" parent="jrQtgTCG_K1GW5JG4UNr-65">
          <mxGeometry x="30" width="150" height="30" as="geometry">
            <mxRectangle width="150" height="30" as="alternateBounds" />
          </mxGeometry>
        </mxCell>
        <mxCell id="jrQtgTCG_K1GW5JG4UNr-62" style="shape=tableRow;horizontal=0;startSize=0;swimlaneHead=0;swimlaneBody=0;fillColor=none;collapsible=0;dropTarget=0;points=[[0,0.5],[1,0.5]];portConstraint=eastwest;top=0;left=0;right=0;bottom=0;" vertex="1" parent="jrQtgTCG_K1GW5JG4UNr-1">
          <mxGeometry y="260" width="180" height="30" as="geometry" />
        </mxCell>
        <mxCell id="jrQtgTCG_K1GW5JG4UNr-63" style="shape=partialRectangle;connectable=0;fillColor=none;top=0;left=0;bottom=0;right=0;editable=1;overflow=hidden;whiteSpace=wrap;html=1;" vertex="1" parent="jrQtgTCG_K1GW5JG4UNr-62">
          <mxGeometry width="30" height="30" as="geometry">
            <mxRectangle width="30" height="30" as="alternateBounds" />
          </mxGeometry>
        </mxCell>
        <mxCell id="jrQtgTCG_K1GW5JG4UNr-64" value="&lt;span style=&quot;color: rgb(204, 204, 204); font-family: Consolas, &amp;quot;Courier New&amp;quot;, monospace; font-size: 14px; white-space: pre;&quot;&gt;Sales_Channel&lt;/span&gt;" style="shape=partialRectangle;connectable=0;fillColor=none;top=0;left=0;bottom=0;right=0;align=left;spacingLeft=6;overflow=hidden;whiteSpace=wrap;html=1;" vertex="1" parent="jrQtgTCG_K1GW5JG4UNr-62">
          <mxGeometry x="30" width="150" height="30" as="geometry">
            <mxRectangle width="150" height="30" as="alternateBounds" />
          </mxGeometry>
        </mxCell>
        <mxCell id="jrQtgTCG_K1GW5JG4UNr-59" style="shape=tableRow;horizontal=0;startSize=0;swimlaneHead=0;swimlaneBody=0;fillColor=none;collapsible=0;dropTarget=0;points=[[0,0.5],[1,0.5]];portConstraint=eastwest;top=0;left=0;right=0;bottom=0;" vertex="1" parent="jrQtgTCG_K1GW5JG4UNr-1">
          <mxGeometry y="290" width="180" height="30" as="geometry" />
        </mxCell>
        <mxCell id="jrQtgTCG_K1GW5JG4UNr-60" style="shape=partialRectangle;connectable=0;fillColor=none;top=0;left=0;bottom=0;right=0;editable=1;overflow=hidden;whiteSpace=wrap;html=1;" vertex="1" parent="jrQtgTCG_K1GW5JG4UNr-59">
          <mxGeometry width="30" height="30" as="geometry">
            <mxRectangle width="30" height="30" as="alternateBounds" />
          </mxGeometry>
        </mxCell>
        <mxCell id="jrQtgTCG_K1GW5JG4UNr-61" value="&lt;span style=&quot;color: rgb(204, 204, 204); font-family: Consolas, &amp;quot;Courier New&amp;quot;, monospace; font-size: 14px; white-space: pre;&quot;&gt;Customer_Satisfaction&lt;/span&gt;" style="shape=partialRectangle;connectable=0;fillColor=none;top=0;left=0;bottom=0;right=0;align=left;spacingLeft=6;overflow=hidden;whiteSpace=wrap;html=1;" vertex="1" parent="jrQtgTCG_K1GW5JG4UNr-59">
          <mxGeometry x="30" width="150" height="30" as="geometry">
            <mxRectangle width="150" height="30" as="alternateBounds" />
          </mxGeometry>
        </mxCell>
        <mxCell id="jrQtgTCG_K1GW5JG4UNr-56" style="shape=tableRow;horizontal=0;startSize=0;swimlaneHead=0;swimlaneBody=0;fillColor=none;collapsible=0;dropTarget=0;points=[[0,0.5],[1,0.5]];portConstraint=eastwest;top=0;left=0;right=0;bottom=0;" vertex="1" parent="jrQtgTCG_K1GW5JG4UNr-1">
          <mxGeometry y="320" width="180" height="30" as="geometry" />
        </mxCell>
        <mxCell id="jrQtgTCG_K1GW5JG4UNr-57" style="shape=partialRectangle;connectable=0;fillColor=none;top=0;left=0;bottom=0;right=0;editable=1;overflow=hidden;whiteSpace=wrap;html=1;" vertex="1" parent="jrQtgTCG_K1GW5JG4UNr-56">
          <mxGeometry width="30" height="30" as="geometry">
            <mxRectangle width="30" height="30" as="alternateBounds" />
          </mxGeometry>
        </mxCell>
        <mxCell id="jrQtgTCG_K1GW5JG4UNr-58" value="&lt;span style=&quot;color: rgb(204, 204, 204); font-family: Consolas, &amp;quot;Courier New&amp;quot;, monospace; font-size: 14px; white-space: pre;&quot;&gt;Item_Returned&lt;/span&gt;" style="shape=partialRectangle;connectable=0;fillColor=none;top=0;left=0;bottom=0;right=0;align=left;spacingLeft=6;overflow=hidden;whiteSpace=wrap;html=1;" vertex="1" parent="jrQtgTCG_K1GW5JG4UNr-56">
          <mxGeometry x="30" width="150" height="30" as="geometry">
            <mxRectangle width="150" height="30" as="alternateBounds" />
          </mxGeometry>
        </mxCell>
        <mxCell id="jrQtgTCG_K1GW5JG4UNr-53" style="shape=tableRow;horizontal=0;startSize=0;swimlaneHead=0;swimlaneBody=0;fillColor=none;collapsible=0;dropTarget=0;points=[[0,0.5],[1,0.5]];portConstraint=eastwest;top=0;left=0;right=0;bottom=0;" vertex="1" parent="jrQtgTCG_K1GW5JG4UNr-1">
          <mxGeometry y="350" width="180" height="30" as="geometry" />
        </mxCell>
        <mxCell id="jrQtgTCG_K1GW5JG4UNr-54" style="shape=partialRectangle;connectable=0;fillColor=none;top=0;left=0;bottom=0;right=0;editable=1;overflow=hidden;whiteSpace=wrap;html=1;" vertex="1" parent="jrQtgTCG_K1GW5JG4UNr-53">
          <mxGeometry width="30" height="30" as="geometry">
            <mxRectangle width="30" height="30" as="alternateBounds" />
          </mxGeometry>
        </mxCell>
        <mxCell id="jrQtgTCG_K1GW5JG4UNr-55" value="&lt;span style=&quot;color: rgb(204, 204, 204); font-family: Consolas, &amp;quot;Courier New&amp;quot;, monospace; font-size: 14px; white-space: pre;&quot;&gt;Return_Reason&lt;/span&gt;" style="shape=partialRectangle;connectable=0;fillColor=none;top=0;left=0;bottom=0;right=0;align=left;spacingLeft=6;overflow=hidden;whiteSpace=wrap;html=1;" vertex="1" parent="jrQtgTCG_K1GW5JG4UNr-53">
          <mxGeometry x="30" width="150" height="30" as="geometry">
            <mxRectangle width="150" height="30" as="alternateBounds" />
          </mxGeometry>
        </mxCell>
        <mxCell id="jrQtgTCG_K1GW5JG4UNr-50" style="shape=tableRow;horizontal=0;startSize=0;swimlaneHead=0;swimlaneBody=0;fillColor=none;collapsible=0;dropTarget=0;points=[[0,0.5],[1,0.5]];portConstraint=eastwest;top=0;left=0;right=0;bottom=0;" vertex="1" parent="jrQtgTCG_K1GW5JG4UNr-1">
          <mxGeometry y="380" width="180" height="30" as="geometry" />
        </mxCell>
        <mxCell id="jrQtgTCG_K1GW5JG4UNr-51" style="shape=partialRectangle;connectable=0;fillColor=none;top=0;left=0;bottom=0;right=0;editable=1;overflow=hidden;whiteSpace=wrap;html=1;" vertex="1" parent="jrQtgTCG_K1GW5JG4UNr-50">
          <mxGeometry width="30" height="30" as="geometry">
            <mxRectangle width="30" height="30" as="alternateBounds" />
          </mxGeometry>
        </mxCell>
        <mxCell id="jrQtgTCG_K1GW5JG4UNr-52" value="&lt;span style=&quot;color: rgb(204, 204, 204); font-family: Consolas, &amp;quot;Courier New&amp;quot;, monospace; font-size: 14px; white-space: pre;&quot;&gt;Payment_Type&lt;/span&gt;" style="shape=partialRectangle;connectable=0;fillColor=none;top=0;left=0;bottom=0;right=0;align=left;spacingLeft=6;overflow=hidden;whiteSpace=wrap;html=1;" vertex="1" parent="jrQtgTCG_K1GW5JG4UNr-50">
          <mxGeometry x="30" width="150" height="30" as="geometry">
            <mxRectangle width="150" height="30" as="alternateBounds" />
          </mxGeometry>
        </mxCell>
        <mxCell id="jrQtgTCG_K1GW5JG4UNr-47" style="shape=tableRow;horizontal=0;startSize=0;swimlaneHead=0;swimlaneBody=0;fillColor=none;collapsible=0;dropTarget=0;points=[[0,0.5],[1,0.5]];portConstraint=eastwest;top=0;left=0;right=0;bottom=0;" vertex="1" parent="jrQtgTCG_K1GW5JG4UNr-1">
          <mxGeometry y="410" width="180" height="30" as="geometry" />
        </mxCell>
        <mxCell id="jrQtgTCG_K1GW5JG4UNr-48" style="shape=partialRectangle;connectable=0;fillColor=none;top=0;left=0;bottom=0;right=0;editable=1;overflow=hidden;whiteSpace=wrap;html=1;" vertex="1" parent="jrQtgTCG_K1GW5JG4UNr-47">
          <mxGeometry width="30" height="30" as="geometry">
            <mxRectangle width="30" height="30" as="alternateBounds" />
          </mxGeometry>
        </mxCell>
        <mxCell id="jrQtgTCG_K1GW5JG4UNr-49" value="&lt;span style=&quot;color: rgb(204, 204, 204); font-family: Consolas, &amp;quot;Courier New&amp;quot;, monospace; font-size: 14px; white-space: pre;&quot;&gt;Taxable&lt;/span&gt;" style="shape=partialRectangle;connectable=0;fillColor=none;top=0;left=0;bottom=0;right=0;align=left;spacingLeft=6;overflow=hidden;whiteSpace=wrap;html=1;" vertex="1" parent="jrQtgTCG_K1GW5JG4UNr-47">
          <mxGeometry x="30" width="150" height="30" as="geometry">
            <mxRectangle width="150" height="30" as="alternateBounds" />
          </mxGeometry>
        </mxCell>
        <mxCell id="jrQtgTCG_K1GW5JG4UNr-44" style="shape=tableRow;horizontal=0;startSize=0;swimlaneHead=0;swimlaneBody=0;fillColor=none;collapsible=0;dropTarget=0;points=[[0,0.5],[1,0.5]];portConstraint=eastwest;top=0;left=0;right=0;bottom=0;" vertex="1" parent="jrQtgTCG_K1GW5JG4UNr-1">
          <mxGeometry y="440" width="180" height="30" as="geometry" />
        </mxCell>
        <mxCell id="jrQtgTCG_K1GW5JG4UNr-45" style="shape=partialRectangle;connectable=0;fillColor=none;top=0;left=0;bottom=0;right=0;editable=1;overflow=hidden;whiteSpace=wrap;html=1;" vertex="1" parent="jrQtgTCG_K1GW5JG4UNr-44">
          <mxGeometry width="30" height="30" as="geometry">
            <mxRectangle width="30" height="30" as="alternateBounds" />
          </mxGeometry>
        </mxCell>
        <mxCell id="jrQtgTCG_K1GW5JG4UNr-46" value="&lt;span style=&quot;color: rgb(204, 204, 204); font-family: Consolas, &amp;quot;Courier New&amp;quot;, monospace; font-size: 14px; white-space: pre;&quot;&gt;Region&lt;/span&gt;" style="shape=partialRectangle;connectable=0;fillColor=none;top=0;left=0;bottom=0;right=0;align=left;spacingLeft=6;overflow=hidden;whiteSpace=wrap;html=1;" vertex="1" parent="jrQtgTCG_K1GW5JG4UNr-44">
          <mxGeometry x="30" width="150" height="30" as="geometry">
            <mxRectangle width="150" height="30" as="alternateBounds" />
          </mxGeometry>
        </mxCell>
        <mxCell id="jrQtgTCG_K1GW5JG4UNr-41" style="shape=tableRow;horizontal=0;startSize=0;swimlaneHead=0;swimlaneBody=0;fillColor=none;collapsible=0;dropTarget=0;points=[[0,0.5],[1,0.5]];portConstraint=eastwest;top=0;left=0;right=0;bottom=0;" vertex="1" parent="jrQtgTCG_K1GW5JG4UNr-1">
          <mxGeometry y="470" width="180" height="30" as="geometry" />
        </mxCell>
        <mxCell id="jrQtgTCG_K1GW5JG4UNr-42" style="shape=partialRectangle;connectable=0;fillColor=none;top=0;left=0;bottom=0;right=0;editable=1;overflow=hidden;whiteSpace=wrap;html=1;" vertex="1" parent="jrQtgTCG_K1GW5JG4UNr-41">
          <mxGeometry width="30" height="30" as="geometry">
            <mxRectangle width="30" height="30" as="alternateBounds" />
          </mxGeometry>
        </mxCell>
        <mxCell id="jrQtgTCG_K1GW5JG4UNr-43" value="&lt;span style=&quot;color: rgb(204, 204, 204); font-family: Consolas, &amp;quot;Courier New&amp;quot;, monospace; font-size: 14px; white-space: pre;&quot;&gt;Country&lt;/span&gt;" style="shape=partialRectangle;connectable=0;fillColor=none;top=0;left=0;bottom=0;right=0;align=left;spacingLeft=6;overflow=hidden;whiteSpace=wrap;html=1;" vertex="1" parent="jrQtgTCG_K1GW5JG4UNr-41">
          <mxGeometry x="30" width="150" height="30" as="geometry">
            <mxRectangle width="150" height="30" as="alternateBounds" />
          </mxGeometry>
        </mxCell>
        <mxCell id="jrQtgTCG_K1GW5JG4UNr-38" style="shape=tableRow;horizontal=0;startSize=0;swimlaneHead=0;swimlaneBody=0;fillColor=none;collapsible=0;dropTarget=0;points=[[0,0.5],[1,0.5]];portConstraint=eastwest;top=0;left=0;right=0;bottom=0;" vertex="1" parent="jrQtgTCG_K1GW5JG4UNr-1">
          <mxGeometry y="500" width="180" height="30" as="geometry" />
        </mxCell>
        <mxCell id="jrQtgTCG_K1GW5JG4UNr-39" style="shape=partialRectangle;connectable=0;fillColor=none;top=0;left=0;bottom=0;right=0;editable=1;overflow=hidden;whiteSpace=wrap;html=1;" vertex="1" parent="jrQtgTCG_K1GW5JG4UNr-38">
          <mxGeometry width="30" height="30" as="geometry">
            <mxRectangle width="30" height="30" as="alternateBounds" />
          </mxGeometry>
        </mxCell>
        <mxCell id="jrQtgTCG_K1GW5JG4UNr-40" value="&lt;span style=&quot;color: rgb(204, 204, 204); font-family: Consolas, &amp;quot;Courier New&amp;quot;, monospace; font-size: 14px; white-space: pre;&quot;&gt;Customer_Name&lt;/span&gt;" style="shape=partialRectangle;connectable=0;fillColor=none;top=0;left=0;bottom=0;right=0;align=left;spacingLeft=6;overflow=hidden;whiteSpace=wrap;html=1;" vertex="1" parent="jrQtgTCG_K1GW5JG4UNr-38">
          <mxGeometry x="30" width="150" height="30" as="geometry">
            <mxRectangle width="150" height="30" as="alternateBounds" />
          </mxGeometry>
        </mxCell>
        <mxCell id="jrQtgTCG_K1GW5JG4UNr-35" style="shape=tableRow;horizontal=0;startSize=0;swimlaneHead=0;swimlaneBody=0;fillColor=none;collapsible=0;dropTarget=0;points=[[0,0.5],[1,0.5]];portConstraint=eastwest;top=0;left=0;right=0;bottom=0;" vertex="1" parent="jrQtgTCG_K1GW5JG4UNr-1">
          <mxGeometry y="530" width="180" height="30" as="geometry" />
        </mxCell>
        <mxCell id="jrQtgTCG_K1GW5JG4UNr-36" style="shape=partialRectangle;connectable=0;fillColor=none;top=0;left=0;bottom=0;right=0;editable=1;overflow=hidden;whiteSpace=wrap;html=1;" vertex="1" parent="jrQtgTCG_K1GW5JG4UNr-35">
          <mxGeometry width="30" height="30" as="geometry">
            <mxRectangle width="30" height="30" as="alternateBounds" />
          </mxGeometry>
        </mxCell>
        <mxCell id="jrQtgTCG_K1GW5JG4UNr-37" value="&lt;span style=&quot;color: rgb(204, 204, 204); font-family: Consolas, &amp;quot;Courier New&amp;quot;, monospace; font-size: 14px; white-space: pre;&quot;&gt;Customer_Phone&lt;/span&gt;" style="shape=partialRectangle;connectable=0;fillColor=none;top=0;left=0;bottom=0;right=0;align=left;spacingLeft=6;overflow=hidden;whiteSpace=wrap;html=1;" vertex="1" parent="jrQtgTCG_K1GW5JG4UNr-35">
          <mxGeometry x="30" width="150" height="30" as="geometry">
            <mxRectangle width="150" height="30" as="alternateBounds" />
          </mxGeometry>
        </mxCell>
        <mxCell id="jrQtgTCG_K1GW5JG4UNr-32" style="shape=tableRow;horizontal=0;startSize=0;swimlaneHead=0;swimlaneBody=0;fillColor=none;collapsible=0;dropTarget=0;points=[[0,0.5],[1,0.5]];portConstraint=eastwest;top=0;left=0;right=0;bottom=0;" vertex="1" parent="jrQtgTCG_K1GW5JG4UNr-1">
          <mxGeometry y="560" width="180" height="30" as="geometry" />
        </mxCell>
        <mxCell id="jrQtgTCG_K1GW5JG4UNr-33" style="shape=partialRectangle;connectable=0;fillColor=none;top=0;left=0;bottom=0;right=0;editable=1;overflow=hidden;whiteSpace=wrap;html=1;" vertex="1" parent="jrQtgTCG_K1GW5JG4UNr-32">
          <mxGeometry width="30" height="30" as="geometry">
            <mxRectangle width="30" height="30" as="alternateBounds" />
          </mxGeometry>
        </mxCell>
        <mxCell id="jrQtgTCG_K1GW5JG4UNr-34" value="&lt;span style=&quot;color: rgb(204, 204, 204); font-family: Consolas, &amp;quot;Courier New&amp;quot;, monospace; font-size: 14px; white-space: pre;&quot;&gt;Customer_Email&lt;/span&gt;" style="shape=partialRectangle;connectable=0;fillColor=none;top=0;left=0;bottom=0;right=0;align=left;spacingLeft=6;overflow=hidden;whiteSpace=wrap;html=1;" vertex="1" parent="jrQtgTCG_K1GW5JG4UNr-32">
          <mxGeometry x="30" width="150" height="30" as="geometry">
            <mxRectangle width="150" height="30" as="alternateBounds" />
          </mxGeometry>
        </mxCell>
        <mxCell id="jrQtgTCG_K1GW5JG4UNr-29" style="shape=tableRow;horizontal=0;startSize=0;swimlaneHead=0;swimlaneBody=0;fillColor=none;collapsible=0;dropTarget=0;points=[[0,0.5],[1,0.5]];portConstraint=eastwest;top=0;left=0;right=0;bottom=0;" vertex="1" parent="jrQtgTCG_K1GW5JG4UNr-1">
          <mxGeometry y="590" width="180" height="30" as="geometry" />
        </mxCell>
        <mxCell id="jrQtgTCG_K1GW5JG4UNr-30" style="shape=partialRectangle;connectable=0;fillColor=none;top=0;left=0;bottom=0;right=0;editable=1;overflow=hidden;whiteSpace=wrap;html=1;" vertex="1" parent="jrQtgTCG_K1GW5JG4UNr-29">
          <mxGeometry width="30" height="30" as="geometry">
            <mxRectangle width="30" height="30" as="alternateBounds" />
          </mxGeometry>
        </mxCell>
        <mxCell id="jrQtgTCG_K1GW5JG4UNr-31" value="&lt;span style=&quot;color: rgb(204, 204, 204); font-family: Consolas, &amp;quot;Courier New&amp;quot;, monospace; font-size: 14px; white-space: pre;&quot;&gt;Customer_Address&lt;/span&gt;" style="shape=partialRectangle;connectable=0;fillColor=none;top=0;left=0;bottom=0;right=0;align=left;spacingLeft=6;overflow=hidden;whiteSpace=wrap;html=1;" vertex="1" parent="jrQtgTCG_K1GW5JG4UNr-29">
          <mxGeometry x="30" width="150" height="30" as="geometry">
            <mxRectangle width="150" height="30" as="alternateBounds" />
          </mxGeometry>
        </mxCell>
        <mxCell id="jrQtgTCG_K1GW5JG4UNr-26" style="shape=tableRow;horizontal=0;startSize=0;swimlaneHead=0;swimlaneBody=0;fillColor=none;collapsible=0;dropTarget=0;points=[[0,0.5],[1,0.5]];portConstraint=eastwest;top=0;left=0;right=0;bottom=0;" vertex="1" parent="jrQtgTCG_K1GW5JG4UNr-1">
          <mxGeometry y="620" width="180" height="30" as="geometry" />
        </mxCell>
        <mxCell id="jrQtgTCG_K1GW5JG4UNr-27" style="shape=partialRectangle;connectable=0;fillColor=none;top=0;left=0;bottom=0;right=0;editable=1;overflow=hidden;whiteSpace=wrap;html=1;" vertex="1" parent="jrQtgTCG_K1GW5JG4UNr-26">
          <mxGeometry width="30" height="30" as="geometry">
            <mxRectangle width="30" height="30" as="alternateBounds" />
          </mxGeometry>
        </mxCell>
        <mxCell id="jrQtgTCG_K1GW5JG4UNr-28" value="&lt;span style=&quot;color: rgb(204, 204, 204); font-family: Consolas, &amp;quot;Courier New&amp;quot;, monospace; font-size: 14px; white-space: pre;&quot;&gt;Product_List_Title&lt;/span&gt;" style="shape=partialRectangle;connectable=0;fillColor=none;top=0;left=0;bottom=0;right=0;align=left;spacingLeft=6;overflow=hidden;whiteSpace=wrap;html=1;" vertex="1" parent="jrQtgTCG_K1GW5JG4UNr-26">
          <mxGeometry x="30" width="150" height="30" as="geometry">
            <mxRectangle width="150" height="30" as="alternateBounds" />
          </mxGeometry>
        </mxCell>
        <mxCell id="jrQtgTCG_K1GW5JG4UNr-23" style="shape=tableRow;horizontal=0;startSize=0;swimlaneHead=0;swimlaneBody=0;fillColor=none;collapsible=0;dropTarget=0;points=[[0,0.5],[1,0.5]];portConstraint=eastwest;top=0;left=0;right=0;bottom=0;" vertex="1" parent="jrQtgTCG_K1GW5JG4UNr-1">
          <mxGeometry y="650" width="180" height="30" as="geometry" />
        </mxCell>
        <mxCell id="jrQtgTCG_K1GW5JG4UNr-24" style="shape=partialRectangle;connectable=0;fillColor=none;top=0;left=0;bottom=0;right=0;editable=1;overflow=hidden;whiteSpace=wrap;html=1;" vertex="1" parent="jrQtgTCG_K1GW5JG4UNr-23">
          <mxGeometry width="30" height="30" as="geometry">
            <mxRectangle width="30" height="30" as="alternateBounds" />
          </mxGeometry>
        </mxCell>
        <mxCell id="jrQtgTCG_K1GW5JG4UNr-25" value="&lt;span style=&quot;color: rgb(204, 204, 204); font-family: Consolas, &amp;quot;Courier New&amp;quot;, monospace; font-size: 14px; white-space: pre;&quot;&gt;Order_Priority&lt;/span&gt;" style="shape=partialRectangle;connectable=0;fillColor=none;top=0;left=0;bottom=0;right=0;align=left;spacingLeft=6;overflow=hidden;whiteSpace=wrap;html=1;" vertex="1" parent="jrQtgTCG_K1GW5JG4UNr-23">
          <mxGeometry x="30" width="150" height="30" as="geometry">
            <mxRectangle width="150" height="30" as="alternateBounds" />
          </mxGeometry>
        </mxCell>
        <mxCell id="jrQtgTCG_K1GW5JG4UNr-20" style="shape=tableRow;horizontal=0;startSize=0;swimlaneHead=0;swimlaneBody=0;fillColor=none;collapsible=0;dropTarget=0;points=[[0,0.5],[1,0.5]];portConstraint=eastwest;top=0;left=0;right=0;bottom=0;" vertex="1" parent="jrQtgTCG_K1GW5JG4UNr-1">
          <mxGeometry y="680" width="180" height="30" as="geometry" />
        </mxCell>
        <mxCell id="jrQtgTCG_K1GW5JG4UNr-21" style="shape=partialRectangle;connectable=0;fillColor=none;top=0;left=0;bottom=0;right=0;editable=1;overflow=hidden;whiteSpace=wrap;html=1;" vertex="1" parent="jrQtgTCG_K1GW5JG4UNr-20">
          <mxGeometry width="30" height="30" as="geometry">
            <mxRectangle width="30" height="30" as="alternateBounds" />
          </mxGeometry>
        </mxCell>
        <mxCell id="jrQtgTCG_K1GW5JG4UNr-22" value="&lt;span style=&quot;color: rgb(204, 204, 204); font-family: Consolas, &amp;quot;Courier New&amp;quot;, monospace; font-size: 14px; white-space: pre;&quot;&gt;Warehouse_Code&lt;/span&gt;" style="shape=partialRectangle;connectable=0;fillColor=none;top=0;left=0;bottom=0;right=0;align=left;spacingLeft=6;overflow=hidden;whiteSpace=wrap;html=1;" vertex="1" parent="jrQtgTCG_K1GW5JG4UNr-20">
          <mxGeometry x="30" width="150" height="30" as="geometry">
            <mxRectangle width="150" height="30" as="alternateBounds" />
          </mxGeometry>
        </mxCell>
        <mxCell id="jrQtgTCG_K1GW5JG4UNr-17" style="shape=tableRow;horizontal=0;startSize=0;swimlaneHead=0;swimlaneBody=0;fillColor=none;collapsible=0;dropTarget=0;points=[[0,0.5],[1,0.5]];portConstraint=eastwest;top=0;left=0;right=0;bottom=0;" vertex="1" parent="jrQtgTCG_K1GW5JG4UNr-1">
          <mxGeometry y="710" width="180" height="30" as="geometry" />
        </mxCell>
        <mxCell id="jrQtgTCG_K1GW5JG4UNr-18" style="shape=partialRectangle;connectable=0;fillColor=none;top=0;left=0;bottom=0;right=0;editable=1;overflow=hidden;whiteSpace=wrap;html=1;" vertex="1" parent="jrQtgTCG_K1GW5JG4UNr-17">
          <mxGeometry width="30" height="30" as="geometry">
            <mxRectangle width="30" height="30" as="alternateBounds" />
          </mxGeometry>
        </mxCell>
        <mxCell id="jrQtgTCG_K1GW5JG4UNr-19" value="&lt;span style=&quot;color: rgb(204, 204, 204); font-family: Consolas, &amp;quot;Courier New&amp;quot;, monospace; font-size: 14px; white-space: pre;&quot;&gt;Ship_Mode&lt;/span&gt;" style="shape=partialRectangle;connectable=0;fillColor=none;top=0;left=0;bottom=0;right=0;align=left;spacingLeft=6;overflow=hidden;whiteSpace=wrap;html=1;" vertex="1" parent="jrQtgTCG_K1GW5JG4UNr-17">
          <mxGeometry x="30" width="150" height="30" as="geometry">
            <mxRectangle width="150" height="30" as="alternateBounds" />
          </mxGeometry>
        </mxCell>
        <mxCell id="jrQtgTCG_K1GW5JG4UNr-14" style="shape=tableRow;horizontal=0;startSize=0;swimlaneHead=0;swimlaneBody=0;fillColor=none;collapsible=0;dropTarget=0;points=[[0,0.5],[1,0.5]];portConstraint=eastwest;top=0;left=0;right=0;bottom=0;" vertex="1" parent="jrQtgTCG_K1GW5JG4UNr-1">
          <mxGeometry y="740" width="180" height="30" as="geometry" />
        </mxCell>
        <mxCell id="jrQtgTCG_K1GW5JG4UNr-15" style="shape=partialRectangle;connectable=0;fillColor=none;top=0;left=0;bottom=0;right=0;editable=1;overflow=hidden;whiteSpace=wrap;html=1;" vertex="1" parent="jrQtgTCG_K1GW5JG4UNr-14">
          <mxGeometry width="30" height="30" as="geometry">
            <mxRectangle width="30" height="30" as="alternateBounds" />
          </mxGeometry>
        </mxCell>
        <mxCell id="jrQtgTCG_K1GW5JG4UNr-16" value="&lt;span style=&quot;color: rgb(204, 204, 204); font-family: Consolas, &amp;quot;Courier New&amp;quot;, monospace; font-size: 14px; white-space: pre;&quot;&gt;Delivery_Status&lt;/span&gt;" style="shape=partialRectangle;connectable=0;fillColor=none;top=0;left=0;bottom=0;right=0;align=left;spacingLeft=6;overflow=hidden;whiteSpace=wrap;html=1;" vertex="1" parent="jrQtgTCG_K1GW5JG4UNr-14">
          <mxGeometry x="30" width="150" height="30" as="geometry">
            <mxRectangle width="150" height="30" as="alternateBounds" />
          </mxGeometry>
        </mxCell>
        <mxCell id="jrQtgTCG_K1GW5JG4UNr-77" value="Customer&amp;nbsp;" style="shape=table;startSize=30;container=1;collapsible=1;childLayout=tableLayout;fixedRows=1;rowLines=0;fontStyle=1;align=center;resizeLast=1;html=1;" vertex="1" parent="1">
          <mxGeometry x="330" y="70" width="180" height="180" as="geometry" />
        </mxCell>
        <mxCell id="jrQtgTCG_K1GW5JG4UNr-78" value="" style="shape=tableRow;horizontal=0;startSize=0;swimlaneHead=0;swimlaneBody=0;fillColor=none;collapsible=0;dropTarget=0;points=[[0,0.5],[1,0.5]];portConstraint=eastwest;top=0;left=0;right=0;bottom=1;" vertex="1" parent="jrQtgTCG_K1GW5JG4UNr-77">
          <mxGeometry y="30" width="180" height="30" as="geometry" />
        </mxCell>
        <mxCell id="jrQtgTCG_K1GW5JG4UNr-79" value="PK" style="shape=partialRectangle;connectable=0;fillColor=none;top=0;left=0;bottom=0;right=0;fontStyle=1;overflow=hidden;whiteSpace=wrap;html=1;" vertex="1" parent="jrQtgTCG_K1GW5JG4UNr-78">
          <mxGeometry width="30" height="30" as="geometry">
            <mxRectangle width="30" height="30" as="alternateBounds" />
          </mxGeometry>
        </mxCell>
        <mxCell id="jrQtgTCG_K1GW5JG4UNr-80" value="Customer ID" style="shape=partialRectangle;connectable=0;fillColor=none;top=0;left=0;bottom=0;right=0;align=left;spacingLeft=6;fontStyle=5;overflow=hidden;whiteSpace=wrap;html=1;" vertex="1" parent="jrQtgTCG_K1GW5JG4UNr-78">
          <mxGeometry x="30" width="150" height="30" as="geometry">
            <mxRectangle width="150" height="30" as="alternateBounds" />
          </mxGeometry>
        </mxCell>
        <mxCell id="jrQtgTCG_K1GW5JG4UNr-81" value="" style="shape=tableRow;horizontal=0;startSize=0;swimlaneHead=0;swimlaneBody=0;fillColor=none;collapsible=0;dropTarget=0;points=[[0,0.5],[1,0.5]];portConstraint=eastwest;top=0;left=0;right=0;bottom=0;" vertex="1" parent="jrQtgTCG_K1GW5JG4UNr-77">
          <mxGeometry y="60" width="180" height="30" as="geometry" />
        </mxCell>
        <mxCell id="jrQtgTCG_K1GW5JG4UNr-82" value="" style="shape=partialRectangle;connectable=0;fillColor=none;top=0;left=0;bottom=0;right=0;editable=1;overflow=hidden;whiteSpace=wrap;html=1;" vertex="1" parent="jrQtgTCG_K1GW5JG4UNr-81">
          <mxGeometry width="30" height="30" as="geometry">
            <mxRectangle width="30" height="30" as="alternateBounds" />
          </mxGeometry>
        </mxCell>
        <mxCell id="jrQtgTCG_K1GW5JG4UNr-83" value="&lt;span style=&quot;color: rgb(204, 204, 204); font-family: Consolas, &amp;quot;Courier New&amp;quot;, monospace; font-size: 14px; white-space: pre;&quot;&gt;Customer_Name&lt;/span&gt;" style="shape=partialRectangle;connectable=0;fillColor=none;top=0;left=0;bottom=0;right=0;align=left;spacingLeft=6;overflow=hidden;whiteSpace=wrap;html=1;" vertex="1" parent="jrQtgTCG_K1GW5JG4UNr-81">
          <mxGeometry x="30" width="150" height="30" as="geometry">
            <mxRectangle width="150" height="30" as="alternateBounds" />
          </mxGeometry>
        </mxCell>
        <mxCell id="jrQtgTCG_K1GW5JG4UNr-84" value="" style="shape=tableRow;horizontal=0;startSize=0;swimlaneHead=0;swimlaneBody=0;fillColor=none;collapsible=0;dropTarget=0;points=[[0,0.5],[1,0.5]];portConstraint=eastwest;top=0;left=0;right=0;bottom=0;" vertex="1" parent="jrQtgTCG_K1GW5JG4UNr-77">
          <mxGeometry y="90" width="180" height="30" as="geometry" />
        </mxCell>
        <mxCell id="jrQtgTCG_K1GW5JG4UNr-85" value="" style="shape=partialRectangle;connectable=0;fillColor=none;top=0;left=0;bottom=0;right=0;editable=1;overflow=hidden;whiteSpace=wrap;html=1;" vertex="1" parent="jrQtgTCG_K1GW5JG4UNr-84">
          <mxGeometry width="30" height="30" as="geometry">
            <mxRectangle width="30" height="30" as="alternateBounds" />
          </mxGeometry>
        </mxCell>
        <mxCell id="jrQtgTCG_K1GW5JG4UNr-86" value="&lt;span style=&quot;color: rgb(204, 204, 204); font-family: Consolas, &amp;quot;Courier New&amp;quot;, monospace; font-size: 14px; white-space: pre;&quot;&gt;Customer_Phone&lt;/span&gt;" style="shape=partialRectangle;connectable=0;fillColor=none;top=0;left=0;bottom=0;right=0;align=left;spacingLeft=6;overflow=hidden;whiteSpace=wrap;html=1;" vertex="1" parent="jrQtgTCG_K1GW5JG4UNr-84">
          <mxGeometry x="30" width="150" height="30" as="geometry">
            <mxRectangle width="150" height="30" as="alternateBounds" />
          </mxGeometry>
        </mxCell>
        <mxCell id="jrQtgTCG_K1GW5JG4UNr-87" value="" style="shape=tableRow;horizontal=0;startSize=0;swimlaneHead=0;swimlaneBody=0;fillColor=none;collapsible=0;dropTarget=0;points=[[0,0.5],[1,0.5]];portConstraint=eastwest;top=0;left=0;right=0;bottom=0;" vertex="1" parent="jrQtgTCG_K1GW5JG4UNr-77">
          <mxGeometry y="120" width="180" height="30" as="geometry" />
        </mxCell>
        <mxCell id="jrQtgTCG_K1GW5JG4UNr-88" value="" style="shape=partialRectangle;connectable=0;fillColor=none;top=0;left=0;bottom=0;right=0;editable=1;overflow=hidden;whiteSpace=wrap;html=1;" vertex="1" parent="jrQtgTCG_K1GW5JG4UNr-87">
          <mxGeometry width="30" height="30" as="geometry">
            <mxRectangle width="30" height="30" as="alternateBounds" />
          </mxGeometry>
        </mxCell>
        <mxCell id="jrQtgTCG_K1GW5JG4UNr-89" value="&lt;span style=&quot;color: rgb(204, 204, 204); font-family: Consolas, &amp;quot;Courier New&amp;quot;, monospace; font-size: 14px; white-space: pre;&quot;&gt;Customer_Email&lt;/span&gt;" style="shape=partialRectangle;connectable=0;fillColor=none;top=0;left=0;bottom=0;right=0;align=left;spacingLeft=6;overflow=hidden;whiteSpace=wrap;html=1;" vertex="1" parent="jrQtgTCG_K1GW5JG4UNr-87">
          <mxGeometry x="30" width="150" height="30" as="geometry">
            <mxRectangle width="150" height="30" as="alternateBounds" />
          </mxGeometry>
        </mxCell>
        <mxCell id="jrQtgTCG_K1GW5JG4UNr-90" style="shape=tableRow;horizontal=0;startSize=0;swimlaneHead=0;swimlaneBody=0;fillColor=none;collapsible=0;dropTarget=0;points=[[0,0.5],[1,0.5]];portConstraint=eastwest;top=0;left=0;right=0;bottom=0;" vertex="1" parent="jrQtgTCG_K1GW5JG4UNr-77">
          <mxGeometry y="150" width="180" height="30" as="geometry" />
        </mxCell>
        <mxCell id="jrQtgTCG_K1GW5JG4UNr-91" style="shape=partialRectangle;connectable=0;fillColor=none;top=0;left=0;bottom=0;right=0;editable=1;overflow=hidden;whiteSpace=wrap;html=1;" vertex="1" parent="jrQtgTCG_K1GW5JG4UNr-90">
          <mxGeometry width="30" height="30" as="geometry">
            <mxRectangle width="30" height="30" as="alternateBounds" />
          </mxGeometry>
        </mxCell>
        <mxCell id="jrQtgTCG_K1GW5JG4UNr-92" value="&lt;span style=&quot;color: rgb(204, 204, 204); font-family: Consolas, &amp;quot;Courier New&amp;quot;, monospace; font-size: 14px; white-space: pre;&quot;&gt;Customer_Address&lt;/span&gt;" style="shape=partialRectangle;connectable=0;fillColor=none;top=0;left=0;bottom=0;right=0;align=left;spacingLeft=6;overflow=hidden;whiteSpace=wrap;html=1;" vertex="1" parent="jrQtgTCG_K1GW5JG4UNr-90">
          <mxGeometry x="30" width="150" height="30" as="geometry">
            <mxRectangle width="150" height="30" as="alternateBounds" />
          </mxGeometry>
        </mxCell>
        <mxCell id="jrQtgTCG_K1GW5JG4UNr-93" value="Product" style="shape=table;startSize=30;container=1;collapsible=1;childLayout=tableLayout;fixedRows=1;rowLines=0;fontStyle=1;align=center;resizeLast=1;html=1;" vertex="1" parent="1">
          <mxGeometry x="820" y="70" width="180" height="150" as="geometry" />
        </mxCell>
        <mxCell id="jrQtgTCG_K1GW5JG4UNr-94" value="" style="shape=tableRow;horizontal=0;startSize=0;swimlaneHead=0;swimlaneBody=0;fillColor=none;collapsible=0;dropTarget=0;points=[[0,0.5],[1,0.5]];portConstraint=eastwest;top=0;left=0;right=0;bottom=1;" vertex="1" parent="jrQtgTCG_K1GW5JG4UNr-93">
          <mxGeometry y="30" width="180" height="30" as="geometry" />
        </mxCell>
        <mxCell id="jrQtgTCG_K1GW5JG4UNr-95" value="PK" style="shape=partialRectangle;connectable=0;fillColor=none;top=0;left=0;bottom=0;right=0;fontStyle=1;overflow=hidden;whiteSpace=wrap;html=1;" vertex="1" parent="jrQtgTCG_K1GW5JG4UNr-94">
          <mxGeometry width="30" height="30" as="geometry">
            <mxRectangle width="30" height="30" as="alternateBounds" />
          </mxGeometry>
        </mxCell>
        <mxCell id="jrQtgTCG_K1GW5JG4UNr-96" value="Product ID" style="shape=partialRectangle;connectable=0;fillColor=none;top=0;left=0;bottom=0;right=0;align=left;spacingLeft=6;fontStyle=5;overflow=hidden;whiteSpace=wrap;html=1;" vertex="1" parent="jrQtgTCG_K1GW5JG4UNr-94">
          <mxGeometry x="30" width="150" height="30" as="geometry">
            <mxRectangle width="150" height="30" as="alternateBounds" />
          </mxGeometry>
        </mxCell>
        <mxCell id="jrQtgTCG_K1GW5JG4UNr-97" value="" style="shape=tableRow;horizontal=0;startSize=0;swimlaneHead=0;swimlaneBody=0;fillColor=none;collapsible=0;dropTarget=0;points=[[0,0.5],[1,0.5]];portConstraint=eastwest;top=0;left=0;right=0;bottom=0;" vertex="1" parent="jrQtgTCG_K1GW5JG4UNr-93">
          <mxGeometry y="60" width="180" height="30" as="geometry" />
        </mxCell>
        <mxCell id="jrQtgTCG_K1GW5JG4UNr-98" value="" style="shape=partialRectangle;connectable=0;fillColor=none;top=0;left=0;bottom=0;right=0;editable=1;overflow=hidden;whiteSpace=wrap;html=1;" vertex="1" parent="jrQtgTCG_K1GW5JG4UNr-97">
          <mxGeometry width="30" height="30" as="geometry">
            <mxRectangle width="30" height="30" as="alternateBounds" />
          </mxGeometry>
        </mxCell>
        <mxCell id="jrQtgTCG_K1GW5JG4UNr-99" value="&lt;span style=&quot;color: rgb(204, 204, 204); font-family: Consolas, &amp;quot;Courier New&amp;quot;, monospace; font-size: 14px; white-space: pre;&quot;&gt;Product_List_Title&lt;/span&gt;" style="shape=partialRectangle;connectable=0;fillColor=none;top=0;left=0;bottom=0;right=0;align=left;spacingLeft=6;overflow=hidden;whiteSpace=wrap;html=1;" vertex="1" parent="jrQtgTCG_K1GW5JG4UNr-97">
          <mxGeometry x="30" width="150" height="30" as="geometry">
            <mxRectangle width="150" height="30" as="alternateBounds" />
          </mxGeometry>
        </mxCell>
        <mxCell id="jrQtgTCG_K1GW5JG4UNr-100" value="" style="shape=tableRow;horizontal=0;startSize=0;swimlaneHead=0;swimlaneBody=0;fillColor=none;collapsible=0;dropTarget=0;points=[[0,0.5],[1,0.5]];portConstraint=eastwest;top=0;left=0;right=0;bottom=0;" vertex="1" parent="jrQtgTCG_K1GW5JG4UNr-93">
          <mxGeometry y="90" width="180" height="30" as="geometry" />
        </mxCell>
        <mxCell id="jrQtgTCG_K1GW5JG4UNr-101" value="" style="shape=partialRectangle;connectable=0;fillColor=none;top=0;left=0;bottom=0;right=0;editable=1;overflow=hidden;whiteSpace=wrap;html=1;" vertex="1" parent="jrQtgTCG_K1GW5JG4UNr-100">
          <mxGeometry width="30" height="30" as="geometry">
            <mxRectangle width="30" height="30" as="alternateBounds" />
          </mxGeometry>
        </mxCell>
        <mxCell id="jrQtgTCG_K1GW5JG4UNr-102" value="&lt;span style=&quot;color: rgb(204, 204, 204); font-family: Consolas, &amp;quot;Courier New&amp;quot;, monospace; font-size: 14px; white-space: pre;&quot;&gt;Quantity&lt;/span&gt;" style="shape=partialRectangle;connectable=0;fillColor=none;top=0;left=0;bottom=0;right=0;align=left;spacingLeft=6;overflow=hidden;whiteSpace=wrap;html=1;" vertex="1" parent="jrQtgTCG_K1GW5JG4UNr-100">
          <mxGeometry x="30" width="150" height="30" as="geometry">
            <mxRectangle width="150" height="30" as="alternateBounds" />
          </mxGeometry>
        </mxCell>
        <mxCell id="jrQtgTCG_K1GW5JG4UNr-103" value="" style="shape=tableRow;horizontal=0;startSize=0;swimlaneHead=0;swimlaneBody=0;fillColor=none;collapsible=0;dropTarget=0;points=[[0,0.5],[1,0.5]];portConstraint=eastwest;top=0;left=0;right=0;bottom=0;" vertex="1" parent="jrQtgTCG_K1GW5JG4UNr-93">
          <mxGeometry y="120" width="180" height="30" as="geometry" />
        </mxCell>
        <mxCell id="jrQtgTCG_K1GW5JG4UNr-104" value="" style="shape=partialRectangle;connectable=0;fillColor=none;top=0;left=0;bottom=0;right=0;editable=1;overflow=hidden;whiteSpace=wrap;html=1;" vertex="1" parent="jrQtgTCG_K1GW5JG4UNr-103">
          <mxGeometry width="30" height="30" as="geometry">
            <mxRectangle width="30" height="30" as="alternateBounds" />
          </mxGeometry>
        </mxCell>
        <mxCell id="jrQtgTCG_K1GW5JG4UNr-105" value="&lt;span style=&quot;color: rgb(204, 204, 204); font-family: Consolas, &amp;quot;Courier New&amp;quot;, monospace; font-size: 14px; white-space: pre;&quot;&gt;Unit_Price&lt;/span&gt;" style="shape=partialRectangle;connectable=0;fillColor=none;top=0;left=0;bottom=0;right=0;align=left;spacingLeft=6;overflow=hidden;whiteSpace=wrap;html=1;" vertex="1" parent="jrQtgTCG_K1GW5JG4UNr-103">
          <mxGeometry x="30" width="150" height="30" as="geometry">
            <mxRectangle width="150" height="30" as="alternateBounds" />
          </mxGeometry>
        </mxCell>
        <mxCell id="jrQtgTCG_K1GW5JG4UNr-109" value="Ziko_logistics&amp;nbsp;" style="shape=table;startSize=30;container=1;collapsible=1;childLayout=tableLayout;fixedRows=1;rowLines=0;fontStyle=1;align=center;resizeLast=1;html=1;" vertex="1" parent="1">
          <mxGeometry x="590" y="330" width="180" height="560" as="geometry" />
        </mxCell>
        <mxCell id="jrQtgTCG_K1GW5JG4UNr-110" value="" style="shape=tableRow;horizontal=0;startSize=0;swimlaneHead=0;swimlaneBody=0;fillColor=none;collapsible=0;dropTarget=0;points=[[0,0.5],[1,0.5]];portConstraint=eastwest;top=0;left=0;right=0;bottom=1;" vertex="1" parent="jrQtgTCG_K1GW5JG4UNr-109">
          <mxGeometry y="30" width="180" height="20" as="geometry" />
        </mxCell>
        <mxCell id="jrQtgTCG_K1GW5JG4UNr-111" value="PK" style="shape=partialRectangle;connectable=0;fillColor=none;top=0;left=0;bottom=0;right=0;fontStyle=1;overflow=hidden;whiteSpace=wrap;html=1;" vertex="1" parent="jrQtgTCG_K1GW5JG4UNr-110">
          <mxGeometry width="30" height="20" as="geometry">
            <mxRectangle width="30" height="20" as="alternateBounds" />
          </mxGeometry>
        </mxCell>
        <mxCell id="jrQtgTCG_K1GW5JG4UNr-112" value="&lt;span style=&quot;color: rgb(204, 204, 204); font-family: Consolas, &amp;quot;Courier New&amp;quot;, monospace; font-size: 14px; font-weight: 400; white-space: pre;&quot;&gt;Transaction_ID&lt;/span&gt;" style="shape=partialRectangle;connectable=0;fillColor=none;top=0;left=0;bottom=0;right=0;align=left;spacingLeft=6;fontStyle=5;overflow=hidden;whiteSpace=wrap;html=1;" vertex="1" parent="jrQtgTCG_K1GW5JG4UNr-110">
          <mxGeometry x="30" width="150" height="20" as="geometry">
            <mxRectangle width="150" height="20" as="alternateBounds" />
          </mxGeometry>
        </mxCell>
        <mxCell id="jrQtgTCG_K1GW5JG4UNr-113" value="" style="shape=tableRow;horizontal=0;startSize=0;swimlaneHead=0;swimlaneBody=0;fillColor=none;collapsible=0;dropTarget=0;points=[[0,0.5],[1,0.5]];portConstraint=eastwest;top=0;left=0;right=0;bottom=0;" vertex="1" parent="jrQtgTCG_K1GW5JG4UNr-109">
          <mxGeometry y="50" width="180" height="30" as="geometry" />
        </mxCell>
        <mxCell id="jrQtgTCG_K1GW5JG4UNr-114" value="" style="shape=partialRectangle;connectable=0;fillColor=none;top=0;left=0;bottom=0;right=0;editable=1;overflow=hidden;whiteSpace=wrap;html=1;" vertex="1" parent="jrQtgTCG_K1GW5JG4UNr-113">
          <mxGeometry width="30" height="30" as="geometry">
            <mxRectangle width="30" height="30" as="alternateBounds" />
          </mxGeometry>
        </mxCell>
        <mxCell id="jrQtgTCG_K1GW5JG4UNr-115" value="&lt;span style=&quot;color: rgb(204, 204, 204); font-family: Consolas, &amp;quot;Courier New&amp;quot;, monospace; font-size: 14px; white-space: pre;&quot;&gt;Date&lt;/span&gt;" style="shape=partialRectangle;connectable=0;fillColor=none;top=0;left=0;bottom=0;right=0;align=left;spacingLeft=6;overflow=hidden;whiteSpace=wrap;html=1;" vertex="1" parent="jrQtgTCG_K1GW5JG4UNr-113">
          <mxGeometry x="30" width="150" height="30" as="geometry">
            <mxRectangle width="150" height="30" as="alternateBounds" />
          </mxGeometry>
        </mxCell>
        <mxCell id="jrQtgTCG_K1GW5JG4UNr-116" value="" style="shape=tableRow;horizontal=0;startSize=0;swimlaneHead=0;swimlaneBody=0;fillColor=none;collapsible=0;dropTarget=0;points=[[0,0.5],[1,0.5]];portConstraint=eastwest;top=0;left=0;right=0;bottom=0;" vertex="1" parent="jrQtgTCG_K1GW5JG4UNr-109">
          <mxGeometry y="80" width="180" height="30" as="geometry" />
        </mxCell>
        <mxCell id="jrQtgTCG_K1GW5JG4UNr-117" value="FK" style="shape=partialRectangle;connectable=0;fillColor=none;top=0;left=0;bottom=0;right=0;editable=1;overflow=hidden;whiteSpace=wrap;html=1;" vertex="1" parent="jrQtgTCG_K1GW5JG4UNr-116">
          <mxGeometry width="30" height="30" as="geometry">
            <mxRectangle width="30" height="30" as="alternateBounds" />
          </mxGeometry>
        </mxCell>
        <mxCell id="jrQtgTCG_K1GW5JG4UNr-118" value="&lt;span style=&quot;color: rgb(204, 204, 204); font-family: Consolas, &amp;quot;Courier New&amp;quot;, monospace; font-size: 14px; white-space: pre;&quot;&gt;Customer_ID&lt;/span&gt;" style="shape=partialRectangle;connectable=0;fillColor=none;top=0;left=0;bottom=0;right=0;align=left;spacingLeft=6;overflow=hidden;whiteSpace=wrap;html=1;" vertex="1" parent="jrQtgTCG_K1GW5JG4UNr-116">
          <mxGeometry x="30" width="150" height="30" as="geometry">
            <mxRectangle width="150" height="30" as="alternateBounds" />
          </mxGeometry>
        </mxCell>
        <mxCell id="jrQtgTCG_K1GW5JG4UNr-119" value="" style="shape=tableRow;horizontal=0;startSize=0;swimlaneHead=0;swimlaneBody=0;fillColor=none;collapsible=0;dropTarget=0;points=[[0,0.5],[1,0.5]];portConstraint=eastwest;top=0;left=0;right=0;bottom=0;" vertex="1" parent="jrQtgTCG_K1GW5JG4UNr-109">
          <mxGeometry y="110" width="180" height="30" as="geometry" />
        </mxCell>
        <mxCell id="jrQtgTCG_K1GW5JG4UNr-120" value="FK" style="shape=partialRectangle;connectable=0;fillColor=none;top=0;left=0;bottom=0;right=0;editable=1;overflow=hidden;whiteSpace=wrap;html=1;" vertex="1" parent="jrQtgTCG_K1GW5JG4UNr-119">
          <mxGeometry width="30" height="30" as="geometry">
            <mxRectangle width="30" height="30" as="alternateBounds" />
          </mxGeometry>
        </mxCell>
        <mxCell id="jrQtgTCG_K1GW5JG4UNr-121" value="&lt;span style=&quot;color: rgb(204, 204, 204); font-family: Consolas, &amp;quot;Courier New&amp;quot;, monospace; font-size: 14px; white-space: pre;&quot;&gt;Product_ID&lt;/span&gt;" style="shape=partialRectangle;connectable=0;fillColor=none;top=0;left=0;bottom=0;right=0;align=left;spacingLeft=6;overflow=hidden;whiteSpace=wrap;html=1;" vertex="1" parent="jrQtgTCG_K1GW5JG4UNr-119">
          <mxGeometry x="30" width="150" height="30" as="geometry">
            <mxRectangle width="150" height="30" as="alternateBounds" />
          </mxGeometry>
        </mxCell>
        <mxCell id="jrQtgTCG_K1GW5JG4UNr-128" style="shape=tableRow;horizontal=0;startSize=0;swimlaneHead=0;swimlaneBody=0;fillColor=none;collapsible=0;dropTarget=0;points=[[0,0.5],[1,0.5]];portConstraint=eastwest;top=0;left=0;right=0;bottom=0;" vertex="1" parent="jrQtgTCG_K1GW5JG4UNr-109">
          <mxGeometry y="140" width="180" height="30" as="geometry" />
        </mxCell>
        <mxCell id="jrQtgTCG_K1GW5JG4UNr-129" style="shape=partialRectangle;connectable=0;fillColor=none;top=0;left=0;bottom=0;right=0;editable=1;overflow=hidden;whiteSpace=wrap;html=1;" vertex="1" parent="jrQtgTCG_K1GW5JG4UNr-128">
          <mxGeometry width="30" height="30" as="geometry">
            <mxRectangle width="30" height="30" as="alternateBounds" />
          </mxGeometry>
        </mxCell>
        <mxCell id="jrQtgTCG_K1GW5JG4UNr-130" value="&lt;span style=&quot;color: rgb(204, 204, 204); font-family: Consolas, &amp;quot;Courier New&amp;quot;, monospace; font-size: 14px; white-space: pre;&quot;&gt;Total_Cost&lt;/span&gt;" style="shape=partialRectangle;connectable=0;fillColor=none;top=0;left=0;bottom=0;right=0;align=left;spacingLeft=6;overflow=hidden;whiteSpace=wrap;html=1;" vertex="1" parent="jrQtgTCG_K1GW5JG4UNr-128">
          <mxGeometry x="30" width="150" height="30" as="geometry">
            <mxRectangle width="150" height="30" as="alternateBounds" />
          </mxGeometry>
        </mxCell>
        <mxCell id="jrQtgTCG_K1GW5JG4UNr-131" style="shape=tableRow;horizontal=0;startSize=0;swimlaneHead=0;swimlaneBody=0;fillColor=none;collapsible=0;dropTarget=0;points=[[0,0.5],[1,0.5]];portConstraint=eastwest;top=0;left=0;right=0;bottom=0;" vertex="1" parent="jrQtgTCG_K1GW5JG4UNr-109">
          <mxGeometry y="170" width="180" height="30" as="geometry" />
        </mxCell>
        <mxCell id="jrQtgTCG_K1GW5JG4UNr-132" style="shape=partialRectangle;connectable=0;fillColor=none;top=0;left=0;bottom=0;right=0;editable=1;overflow=hidden;whiteSpace=wrap;html=1;" vertex="1" parent="jrQtgTCG_K1GW5JG4UNr-131">
          <mxGeometry width="30" height="30" as="geometry">
            <mxRectangle width="30" height="30" as="alternateBounds" />
          </mxGeometry>
        </mxCell>
        <mxCell id="jrQtgTCG_K1GW5JG4UNr-133" value="&lt;span style=&quot;color: rgb(204, 204, 204); font-family: Consolas, &amp;quot;Courier New&amp;quot;, monospace; font-size: 14px; white-space: pre;&quot;&gt;Discount_Rate&lt;/span&gt;" style="shape=partialRectangle;connectable=0;fillColor=none;top=0;left=0;bottom=0;right=0;align=left;spacingLeft=6;overflow=hidden;whiteSpace=wrap;html=1;" vertex="1" parent="jrQtgTCG_K1GW5JG4UNr-131">
          <mxGeometry x="30" width="150" height="30" as="geometry">
            <mxRectangle width="150" height="30" as="alternateBounds" />
          </mxGeometry>
        </mxCell>
        <mxCell id="jrQtgTCG_K1GW5JG4UNr-134" style="shape=tableRow;horizontal=0;startSize=0;swimlaneHead=0;swimlaneBody=0;fillColor=none;collapsible=0;dropTarget=0;points=[[0,0.5],[1,0.5]];portConstraint=eastwest;top=0;left=0;right=0;bottom=0;" vertex="1" parent="jrQtgTCG_K1GW5JG4UNr-109">
          <mxGeometry y="200" width="180" height="30" as="geometry" />
        </mxCell>
        <mxCell id="jrQtgTCG_K1GW5JG4UNr-135" style="shape=partialRectangle;connectable=0;fillColor=none;top=0;left=0;bottom=0;right=0;editable=1;overflow=hidden;whiteSpace=wrap;html=1;" vertex="1" parent="jrQtgTCG_K1GW5JG4UNr-134">
          <mxGeometry width="30" height="30" as="geometry">
            <mxRectangle width="30" height="30" as="alternateBounds" />
          </mxGeometry>
        </mxCell>
        <mxCell id="jrQtgTCG_K1GW5JG4UNr-136" value="&lt;span style=&quot;color: rgb(204, 204, 204); font-family: Consolas, &amp;quot;Courier New&amp;quot;, monospace; font-size: 14px; white-space: pre;&quot;&gt;Sales_Channel&lt;/span&gt;" style="shape=partialRectangle;connectable=0;fillColor=none;top=0;left=0;bottom=0;right=0;align=left;spacingLeft=6;overflow=hidden;whiteSpace=wrap;html=1;" vertex="1" parent="jrQtgTCG_K1GW5JG4UNr-134">
          <mxGeometry x="30" width="150" height="30" as="geometry">
            <mxRectangle width="150" height="30" as="alternateBounds" />
          </mxGeometry>
        </mxCell>
        <mxCell id="jrQtgTCG_K1GW5JG4UNr-137" style="shape=tableRow;horizontal=0;startSize=0;swimlaneHead=0;swimlaneBody=0;fillColor=none;collapsible=0;dropTarget=0;points=[[0,0.5],[1,0.5]];portConstraint=eastwest;top=0;left=0;right=0;bottom=0;" vertex="1" parent="jrQtgTCG_K1GW5JG4UNr-109">
          <mxGeometry y="230" width="180" height="30" as="geometry" />
        </mxCell>
        <mxCell id="jrQtgTCG_K1GW5JG4UNr-138" style="shape=partialRectangle;connectable=0;fillColor=none;top=0;left=0;bottom=0;right=0;editable=1;overflow=hidden;whiteSpace=wrap;html=1;" vertex="1" parent="jrQtgTCG_K1GW5JG4UNr-137">
          <mxGeometry width="30" height="30" as="geometry">
            <mxRectangle width="30" height="30" as="alternateBounds" />
          </mxGeometry>
        </mxCell>
        <mxCell id="jrQtgTCG_K1GW5JG4UNr-139" value="&lt;span style=&quot;color: rgb(204, 204, 204); font-family: Consolas, &amp;quot;Courier New&amp;quot;, monospace; font-size: 14px; white-space: pre;&quot;&gt;Customer_Satisfaction&lt;/span&gt;" style="shape=partialRectangle;connectable=0;fillColor=none;top=0;left=0;bottom=0;right=0;align=left;spacingLeft=6;overflow=hidden;whiteSpace=wrap;html=1;" vertex="1" parent="jrQtgTCG_K1GW5JG4UNr-137">
          <mxGeometry x="30" width="150" height="30" as="geometry">
            <mxRectangle width="150" height="30" as="alternateBounds" />
          </mxGeometry>
        </mxCell>
        <mxCell id="jrQtgTCG_K1GW5JG4UNr-140" style="shape=tableRow;horizontal=0;startSize=0;swimlaneHead=0;swimlaneBody=0;fillColor=none;collapsible=0;dropTarget=0;points=[[0,0.5],[1,0.5]];portConstraint=eastwest;top=0;left=0;right=0;bottom=0;" vertex="1" parent="jrQtgTCG_K1GW5JG4UNr-109">
          <mxGeometry y="260" width="180" height="30" as="geometry" />
        </mxCell>
        <mxCell id="jrQtgTCG_K1GW5JG4UNr-141" style="shape=partialRectangle;connectable=0;fillColor=none;top=0;left=0;bottom=0;right=0;editable=1;overflow=hidden;whiteSpace=wrap;html=1;" vertex="1" parent="jrQtgTCG_K1GW5JG4UNr-140">
          <mxGeometry width="30" height="30" as="geometry">
            <mxRectangle width="30" height="30" as="alternateBounds" />
          </mxGeometry>
        </mxCell>
        <mxCell id="jrQtgTCG_K1GW5JG4UNr-142" value="&lt;span style=&quot;color: rgb(204, 204, 204); font-family: Consolas, &amp;quot;Courier New&amp;quot;, monospace; font-size: 14px; white-space: pre;&quot;&gt;Item_Returned&lt;/span&gt;" style="shape=partialRectangle;connectable=0;fillColor=none;top=0;left=0;bottom=0;right=0;align=left;spacingLeft=6;overflow=hidden;whiteSpace=wrap;html=1;" vertex="1" parent="jrQtgTCG_K1GW5JG4UNr-140">
          <mxGeometry x="30" width="150" height="30" as="geometry">
            <mxRectangle width="150" height="30" as="alternateBounds" />
          </mxGeometry>
        </mxCell>
        <mxCell id="jrQtgTCG_K1GW5JG4UNr-143" style="shape=tableRow;horizontal=0;startSize=0;swimlaneHead=0;swimlaneBody=0;fillColor=none;collapsible=0;dropTarget=0;points=[[0,0.5],[1,0.5]];portConstraint=eastwest;top=0;left=0;right=0;bottom=0;" vertex="1" parent="jrQtgTCG_K1GW5JG4UNr-109">
          <mxGeometry y="290" width="180" height="30" as="geometry" />
        </mxCell>
        <mxCell id="jrQtgTCG_K1GW5JG4UNr-144" style="shape=partialRectangle;connectable=0;fillColor=none;top=0;left=0;bottom=0;right=0;editable=1;overflow=hidden;whiteSpace=wrap;html=1;" vertex="1" parent="jrQtgTCG_K1GW5JG4UNr-143">
          <mxGeometry width="30" height="30" as="geometry">
            <mxRectangle width="30" height="30" as="alternateBounds" />
          </mxGeometry>
        </mxCell>
        <mxCell id="jrQtgTCG_K1GW5JG4UNr-145" value="&lt;span style=&quot;color: rgb(204, 204, 204); font-family: Consolas, &amp;quot;Courier New&amp;quot;, monospace; font-size: 14px; white-space: pre;&quot;&gt;Return_Reason&lt;/span&gt;" style="shape=partialRectangle;connectable=0;fillColor=none;top=0;left=0;bottom=0;right=0;align=left;spacingLeft=6;overflow=hidden;whiteSpace=wrap;html=1;" vertex="1" parent="jrQtgTCG_K1GW5JG4UNr-143">
          <mxGeometry x="30" width="150" height="30" as="geometry">
            <mxRectangle width="150" height="30" as="alternateBounds" />
          </mxGeometry>
        </mxCell>
        <mxCell id="jrQtgTCG_K1GW5JG4UNr-146" style="shape=tableRow;horizontal=0;startSize=0;swimlaneHead=0;swimlaneBody=0;fillColor=none;collapsible=0;dropTarget=0;points=[[0,0.5],[1,0.5]];portConstraint=eastwest;top=0;left=0;right=0;bottom=0;" vertex="1" parent="jrQtgTCG_K1GW5JG4UNr-109">
          <mxGeometry y="320" width="180" height="30" as="geometry" />
        </mxCell>
        <mxCell id="jrQtgTCG_K1GW5JG4UNr-147" style="shape=partialRectangle;connectable=0;fillColor=none;top=0;left=0;bottom=0;right=0;editable=1;overflow=hidden;whiteSpace=wrap;html=1;" vertex="1" parent="jrQtgTCG_K1GW5JG4UNr-146">
          <mxGeometry width="30" height="30" as="geometry">
            <mxRectangle width="30" height="30" as="alternateBounds" />
          </mxGeometry>
        </mxCell>
        <mxCell id="jrQtgTCG_K1GW5JG4UNr-148" value="&lt;span style=&quot;color: rgb(204, 204, 204); font-family: Consolas, &amp;quot;Courier New&amp;quot;, monospace; font-size: 14px; white-space: pre;&quot;&gt;Payment_Type&lt;/span&gt;" style="shape=partialRectangle;connectable=0;fillColor=none;top=0;left=0;bottom=0;right=0;align=left;spacingLeft=6;overflow=hidden;whiteSpace=wrap;html=1;" vertex="1" parent="jrQtgTCG_K1GW5JG4UNr-146">
          <mxGeometry x="30" width="150" height="30" as="geometry">
            <mxRectangle width="150" height="30" as="alternateBounds" />
          </mxGeometry>
        </mxCell>
        <mxCell id="jrQtgTCG_K1GW5JG4UNr-149" style="shape=tableRow;horizontal=0;startSize=0;swimlaneHead=0;swimlaneBody=0;fillColor=none;collapsible=0;dropTarget=0;points=[[0,0.5],[1,0.5]];portConstraint=eastwest;top=0;left=0;right=0;bottom=0;" vertex="1" parent="jrQtgTCG_K1GW5JG4UNr-109">
          <mxGeometry y="350" width="180" height="30" as="geometry" />
        </mxCell>
        <mxCell id="jrQtgTCG_K1GW5JG4UNr-150" style="shape=partialRectangle;connectable=0;fillColor=none;top=0;left=0;bottom=0;right=0;editable=1;overflow=hidden;whiteSpace=wrap;html=1;" vertex="1" parent="jrQtgTCG_K1GW5JG4UNr-149">
          <mxGeometry width="30" height="30" as="geometry">
            <mxRectangle width="30" height="30" as="alternateBounds" />
          </mxGeometry>
        </mxCell>
        <mxCell id="jrQtgTCG_K1GW5JG4UNr-151" value="&lt;span style=&quot;color: rgb(204, 204, 204); font-family: Consolas, &amp;quot;Courier New&amp;quot;, monospace; font-size: 14px; white-space: pre;&quot;&gt;Taxable&lt;/span&gt;" style="shape=partialRectangle;connectable=0;fillColor=none;top=0;left=0;bottom=0;right=0;align=left;spacingLeft=6;overflow=hidden;whiteSpace=wrap;html=1;" vertex="1" parent="jrQtgTCG_K1GW5JG4UNr-149">
          <mxGeometry x="30" width="150" height="30" as="geometry">
            <mxRectangle width="150" height="30" as="alternateBounds" />
          </mxGeometry>
        </mxCell>
        <mxCell id="jrQtgTCG_K1GW5JG4UNr-152" style="shape=tableRow;horizontal=0;startSize=0;swimlaneHead=0;swimlaneBody=0;fillColor=none;collapsible=0;dropTarget=0;points=[[0,0.5],[1,0.5]];portConstraint=eastwest;top=0;left=0;right=0;bottom=0;" vertex="1" parent="jrQtgTCG_K1GW5JG4UNr-109">
          <mxGeometry y="380" width="180" height="30" as="geometry" />
        </mxCell>
        <mxCell id="jrQtgTCG_K1GW5JG4UNr-153" style="shape=partialRectangle;connectable=0;fillColor=none;top=0;left=0;bottom=0;right=0;editable=1;overflow=hidden;whiteSpace=wrap;html=1;" vertex="1" parent="jrQtgTCG_K1GW5JG4UNr-152">
          <mxGeometry width="30" height="30" as="geometry">
            <mxRectangle width="30" height="30" as="alternateBounds" />
          </mxGeometry>
        </mxCell>
        <mxCell id="jrQtgTCG_K1GW5JG4UNr-154" value="&lt;span style=&quot;color: rgb(204, 204, 204); font-family: Consolas, &amp;quot;Courier New&amp;quot;, monospace; font-size: 14px; white-space: pre;&quot;&gt;Region&lt;/span&gt;" style="shape=partialRectangle;connectable=0;fillColor=none;top=0;left=0;bottom=0;right=0;align=left;spacingLeft=6;overflow=hidden;whiteSpace=wrap;html=1;" vertex="1" parent="jrQtgTCG_K1GW5JG4UNr-152">
          <mxGeometry x="30" width="150" height="30" as="geometry">
            <mxRectangle width="150" height="30" as="alternateBounds" />
          </mxGeometry>
        </mxCell>
        <mxCell id="jrQtgTCG_K1GW5JG4UNr-155" style="shape=tableRow;horizontal=0;startSize=0;swimlaneHead=0;swimlaneBody=0;fillColor=none;collapsible=0;dropTarget=0;points=[[0,0.5],[1,0.5]];portConstraint=eastwest;top=0;left=0;right=0;bottom=0;" vertex="1" parent="jrQtgTCG_K1GW5JG4UNr-109">
          <mxGeometry y="410" width="180" height="30" as="geometry" />
        </mxCell>
        <mxCell id="jrQtgTCG_K1GW5JG4UNr-156" style="shape=partialRectangle;connectable=0;fillColor=none;top=0;left=0;bottom=0;right=0;editable=1;overflow=hidden;whiteSpace=wrap;html=1;" vertex="1" parent="jrQtgTCG_K1GW5JG4UNr-155">
          <mxGeometry width="30" height="30" as="geometry">
            <mxRectangle width="30" height="30" as="alternateBounds" />
          </mxGeometry>
        </mxCell>
        <mxCell id="jrQtgTCG_K1GW5JG4UNr-157" value="&lt;span style=&quot;color: rgb(204, 204, 204); font-family: Consolas, &amp;quot;Courier New&amp;quot;, monospace; font-size: 14px; white-space: pre;&quot;&gt;Country&lt;/span&gt;" style="shape=partialRectangle;connectable=0;fillColor=none;top=0;left=0;bottom=0;right=0;align=left;spacingLeft=6;overflow=hidden;whiteSpace=wrap;html=1;" vertex="1" parent="jrQtgTCG_K1GW5JG4UNr-155">
          <mxGeometry x="30" width="150" height="30" as="geometry">
            <mxRectangle width="150" height="30" as="alternateBounds" />
          </mxGeometry>
        </mxCell>
        <mxCell id="jrQtgTCG_K1GW5JG4UNr-173" style="shape=tableRow;horizontal=0;startSize=0;swimlaneHead=0;swimlaneBody=0;fillColor=none;collapsible=0;dropTarget=0;points=[[0,0.5],[1,0.5]];portConstraint=eastwest;top=0;left=0;right=0;bottom=0;" vertex="1" parent="jrQtgTCG_K1GW5JG4UNr-109">
          <mxGeometry y="440" width="180" height="30" as="geometry" />
        </mxCell>
        <mxCell id="jrQtgTCG_K1GW5JG4UNr-174" style="shape=partialRectangle;connectable=0;fillColor=none;top=0;left=0;bottom=0;right=0;editable=1;overflow=hidden;whiteSpace=wrap;html=1;" vertex="1" parent="jrQtgTCG_K1GW5JG4UNr-173">
          <mxGeometry width="30" height="30" as="geometry">
            <mxRectangle width="30" height="30" as="alternateBounds" />
          </mxGeometry>
        </mxCell>
        <mxCell id="jrQtgTCG_K1GW5JG4UNr-175" value="&lt;span style=&quot;color: rgb(204, 204, 204); font-family: Consolas, &amp;quot;Courier New&amp;quot;, monospace; font-size: 14px; white-space: pre;&quot;&gt;Order_Priority&lt;/span&gt;" style="shape=partialRectangle;connectable=0;fillColor=none;top=0;left=0;bottom=0;right=0;align=left;spacingLeft=6;overflow=hidden;whiteSpace=wrap;html=1;" vertex="1" parent="jrQtgTCG_K1GW5JG4UNr-173">
          <mxGeometry x="30" width="150" height="30" as="geometry">
            <mxRectangle width="150" height="30" as="alternateBounds" />
          </mxGeometry>
        </mxCell>
        <mxCell id="jrQtgTCG_K1GW5JG4UNr-176" style="shape=tableRow;horizontal=0;startSize=0;swimlaneHead=0;swimlaneBody=0;fillColor=none;collapsible=0;dropTarget=0;points=[[0,0.5],[1,0.5]];portConstraint=eastwest;top=0;left=0;right=0;bottom=0;" vertex="1" parent="jrQtgTCG_K1GW5JG4UNr-109">
          <mxGeometry y="470" width="180" height="30" as="geometry" />
        </mxCell>
        <mxCell id="jrQtgTCG_K1GW5JG4UNr-177" style="shape=partialRectangle;connectable=0;fillColor=none;top=0;left=0;bottom=0;right=0;editable=1;overflow=hidden;whiteSpace=wrap;html=1;" vertex="1" parent="jrQtgTCG_K1GW5JG4UNr-176">
          <mxGeometry width="30" height="30" as="geometry">
            <mxRectangle width="30" height="30" as="alternateBounds" />
          </mxGeometry>
        </mxCell>
        <mxCell id="jrQtgTCG_K1GW5JG4UNr-178" value="&lt;span style=&quot;color: rgb(204, 204, 204); font-family: Consolas, &amp;quot;Courier New&amp;quot;, monospace; font-size: 14px; white-space: pre;&quot;&gt;Warehouse_Code&lt;/span&gt;" style="shape=partialRectangle;connectable=0;fillColor=none;top=0;left=0;bottom=0;right=0;align=left;spacingLeft=6;overflow=hidden;whiteSpace=wrap;html=1;" vertex="1" parent="jrQtgTCG_K1GW5JG4UNr-176">
          <mxGeometry x="30" width="150" height="30" as="geometry">
            <mxRectangle width="150" height="30" as="alternateBounds" />
          </mxGeometry>
        </mxCell>
        <mxCell id="jrQtgTCG_K1GW5JG4UNr-179" style="shape=tableRow;horizontal=0;startSize=0;swimlaneHead=0;swimlaneBody=0;fillColor=none;collapsible=0;dropTarget=0;points=[[0,0.5],[1,0.5]];portConstraint=eastwest;top=0;left=0;right=0;bottom=0;" vertex="1" parent="jrQtgTCG_K1GW5JG4UNr-109">
          <mxGeometry y="500" width="180" height="30" as="geometry" />
        </mxCell>
        <mxCell id="jrQtgTCG_K1GW5JG4UNr-180" style="shape=partialRectangle;connectable=0;fillColor=none;top=0;left=0;bottom=0;right=0;editable=1;overflow=hidden;whiteSpace=wrap;html=1;" vertex="1" parent="jrQtgTCG_K1GW5JG4UNr-179">
          <mxGeometry width="30" height="30" as="geometry">
            <mxRectangle width="30" height="30" as="alternateBounds" />
          </mxGeometry>
        </mxCell>
        <mxCell id="jrQtgTCG_K1GW5JG4UNr-181" value="&lt;span style=&quot;color: rgb(204, 204, 204); font-family: Consolas, &amp;quot;Courier New&amp;quot;, monospace; font-size: 14px; white-space: pre;&quot;&gt;Ship_Mode&lt;/span&gt;" style="shape=partialRectangle;connectable=0;fillColor=none;top=0;left=0;bottom=0;right=0;align=left;spacingLeft=6;overflow=hidden;whiteSpace=wrap;html=1;" vertex="1" parent="jrQtgTCG_K1GW5JG4UNr-179">
          <mxGeometry x="30" width="150" height="30" as="geometry">
            <mxRectangle width="150" height="30" as="alternateBounds" />
          </mxGeometry>
        </mxCell>
        <mxCell id="jrQtgTCG_K1GW5JG4UNr-182" style="shape=tableRow;horizontal=0;startSize=0;swimlaneHead=0;swimlaneBody=0;fillColor=none;collapsible=0;dropTarget=0;points=[[0,0.5],[1,0.5]];portConstraint=eastwest;top=0;left=0;right=0;bottom=0;" vertex="1" parent="jrQtgTCG_K1GW5JG4UNr-109">
          <mxGeometry y="530" width="180" height="30" as="geometry" />
        </mxCell>
        <mxCell id="jrQtgTCG_K1GW5JG4UNr-183" style="shape=partialRectangle;connectable=0;fillColor=none;top=0;left=0;bottom=0;right=0;editable=1;overflow=hidden;whiteSpace=wrap;html=1;" vertex="1" parent="jrQtgTCG_K1GW5JG4UNr-182">
          <mxGeometry width="30" height="30" as="geometry">
            <mxRectangle width="30" height="30" as="alternateBounds" />
          </mxGeometry>
        </mxCell>
        <mxCell id="jrQtgTCG_K1GW5JG4UNr-184" value="&lt;span style=&quot;color: rgb(204, 204, 204); font-family: Consolas, &amp;quot;Courier New&amp;quot;, monospace; font-size: 14px; white-space: pre;&quot;&gt;Delivery_Status&lt;/span&gt;" style="shape=partialRectangle;connectable=0;fillColor=none;top=0;left=0;bottom=0;right=0;align=left;spacingLeft=6;overflow=hidden;whiteSpace=wrap;html=1;" vertex="1" parent="jrQtgTCG_K1GW5JG4UNr-182">
          <mxGeometry x="30" width="150" height="30" as="geometry">
            <mxRectangle width="150" height="30" as="alternateBounds" />
          </mxGeometry>
        </mxCell>
        <mxCell id="jrQtgTCG_K1GW5JG4UNr-185" style="edgeStyle=orthogonalEdgeStyle;rounded=0;orthogonalLoop=1;jettySize=auto;html=1;entryX=-0.006;entryY=0.3;entryDx=0;entryDy=0;entryPerimeter=0;" edge="1" parent="1" source="jrQtgTCG_K1GW5JG4UNr-78" target="jrQtgTCG_K1GW5JG4UNr-116">
          <mxGeometry relative="1" as="geometry" />
        </mxCell>
        <mxCell id="jrQtgTCG_K1GW5JG4UNr-186" style="edgeStyle=orthogonalEdgeStyle;rounded=0;orthogonalLoop=1;jettySize=auto;html=1;entryX=1.044;entryY=0.467;entryDx=0;entryDy=0;entryPerimeter=0;" edge="1" parent="1" source="jrQtgTCG_K1GW5JG4UNr-94" target="jrQtgTCG_K1GW5JG4UNr-119">
          <mxGeometry relative="1" as="geometry" />
        </mxCell>
      </root>
    </mxGraphModel>
  </diagram>
  <diagram id="GzuwUy8tfuYH_Sfqn7Av" name="Page-3">
    <mxGraphModel dx="1426" dy="781" grid="1" gridSize="10" guides="1" tooltips="1" connect="1" arrows="1" fold="1" page="1" pageScale="1" pageWidth="827" pageHeight="1169" math="0" shadow="0">
      <root>
        <mxCell id="0" />
        <mxCell id="1" parent="0" />
        <mxCell id="MtJXJ2jCX4OPjKlauZeT-1" value="" style="rounded=0;whiteSpace=wrap;html=1;" vertex="1" parent="1">
          <mxGeometry x="280" y="40" width="810" height="920" as="geometry" />
        </mxCell>
        <mxCell id="MtJXJ2jCX4OPjKlauZeT-2" value="Customer&amp;nbsp;" style="shape=table;startSize=30;container=1;collapsible=1;childLayout=tableLayout;fixedRows=1;rowLines=0;fontStyle=1;align=center;resizeLast=1;html=1;" vertex="1" parent="1">
          <mxGeometry x="330" y="70" width="180" height="180" as="geometry" />
        </mxCell>
        <mxCell id="MtJXJ2jCX4OPjKlauZeT-3" value="" style="shape=tableRow;horizontal=0;startSize=0;swimlaneHead=0;swimlaneBody=0;fillColor=none;collapsible=0;dropTarget=0;points=[[0,0.5],[1,0.5]];portConstraint=eastwest;top=0;left=0;right=0;bottom=1;" vertex="1" parent="MtJXJ2jCX4OPjKlauZeT-2">
          <mxGeometry y="30" width="180" height="30" as="geometry" />
        </mxCell>
        <mxCell id="MtJXJ2jCX4OPjKlauZeT-4" value="PK" style="shape=partialRectangle;connectable=0;fillColor=none;top=0;left=0;bottom=0;right=0;fontStyle=1;overflow=hidden;whiteSpace=wrap;html=1;" vertex="1" parent="MtJXJ2jCX4OPjKlauZeT-3">
          <mxGeometry width="30" height="30" as="geometry">
            <mxRectangle width="30" height="30" as="alternateBounds" />
          </mxGeometry>
        </mxCell>
        <mxCell id="MtJXJ2jCX4OPjKlauZeT-5" value="Customer ID" style="shape=partialRectangle;connectable=0;fillColor=none;top=0;left=0;bottom=0;right=0;align=left;spacingLeft=6;fontStyle=5;overflow=hidden;whiteSpace=wrap;html=1;" vertex="1" parent="MtJXJ2jCX4OPjKlauZeT-3">
          <mxGeometry x="30" width="150" height="30" as="geometry">
            <mxRectangle width="150" height="30" as="alternateBounds" />
          </mxGeometry>
        </mxCell>
        <mxCell id="MtJXJ2jCX4OPjKlauZeT-6" value="" style="shape=tableRow;horizontal=0;startSize=0;swimlaneHead=0;swimlaneBody=0;fillColor=none;collapsible=0;dropTarget=0;points=[[0,0.5],[1,0.5]];portConstraint=eastwest;top=0;left=0;right=0;bottom=0;" vertex="1" parent="MtJXJ2jCX4OPjKlauZeT-2">
          <mxGeometry y="60" width="180" height="30" as="geometry" />
        </mxCell>
        <mxCell id="MtJXJ2jCX4OPjKlauZeT-7" value="" style="shape=partialRectangle;connectable=0;fillColor=none;top=0;left=0;bottom=0;right=0;editable=1;overflow=hidden;whiteSpace=wrap;html=1;" vertex="1" parent="MtJXJ2jCX4OPjKlauZeT-6">
          <mxGeometry width="30" height="30" as="geometry">
            <mxRectangle width="30" height="30" as="alternateBounds" />
          </mxGeometry>
        </mxCell>
        <mxCell id="MtJXJ2jCX4OPjKlauZeT-8" value="&lt;span style=&quot;color: rgb(204, 204, 204); font-family: Consolas, &amp;quot;Courier New&amp;quot;, monospace; font-size: 14px; white-space: pre;&quot;&gt;Customer_Name&lt;/span&gt;" style="shape=partialRectangle;connectable=0;fillColor=none;top=0;left=0;bottom=0;right=0;align=left;spacingLeft=6;overflow=hidden;whiteSpace=wrap;html=1;" vertex="1" parent="MtJXJ2jCX4OPjKlauZeT-6">
          <mxGeometry x="30" width="150" height="30" as="geometry">
            <mxRectangle width="150" height="30" as="alternateBounds" />
          </mxGeometry>
        </mxCell>
        <mxCell id="MtJXJ2jCX4OPjKlauZeT-9" value="" style="shape=tableRow;horizontal=0;startSize=0;swimlaneHead=0;swimlaneBody=0;fillColor=none;collapsible=0;dropTarget=0;points=[[0,0.5],[1,0.5]];portConstraint=eastwest;top=0;left=0;right=0;bottom=0;" vertex="1" parent="MtJXJ2jCX4OPjKlauZeT-2">
          <mxGeometry y="90" width="180" height="30" as="geometry" />
        </mxCell>
        <mxCell id="MtJXJ2jCX4OPjKlauZeT-10" value="" style="shape=partialRectangle;connectable=0;fillColor=none;top=0;left=0;bottom=0;right=0;editable=1;overflow=hidden;whiteSpace=wrap;html=1;" vertex="1" parent="MtJXJ2jCX4OPjKlauZeT-9">
          <mxGeometry width="30" height="30" as="geometry">
            <mxRectangle width="30" height="30" as="alternateBounds" />
          </mxGeometry>
        </mxCell>
        <mxCell id="MtJXJ2jCX4OPjKlauZeT-11" value="&lt;span style=&quot;color: rgb(204, 204, 204); font-family: Consolas, &amp;quot;Courier New&amp;quot;, monospace; font-size: 14px; white-space: pre;&quot;&gt;Customer_Phone&lt;/span&gt;" style="shape=partialRectangle;connectable=0;fillColor=none;top=0;left=0;bottom=0;right=0;align=left;spacingLeft=6;overflow=hidden;whiteSpace=wrap;html=1;" vertex="1" parent="MtJXJ2jCX4OPjKlauZeT-9">
          <mxGeometry x="30" width="150" height="30" as="geometry">
            <mxRectangle width="150" height="30" as="alternateBounds" />
          </mxGeometry>
        </mxCell>
        <mxCell id="MtJXJ2jCX4OPjKlauZeT-12" value="" style="shape=tableRow;horizontal=0;startSize=0;swimlaneHead=0;swimlaneBody=0;fillColor=none;collapsible=0;dropTarget=0;points=[[0,0.5],[1,0.5]];portConstraint=eastwest;top=0;left=0;right=0;bottom=0;" vertex="1" parent="MtJXJ2jCX4OPjKlauZeT-2">
          <mxGeometry y="120" width="180" height="30" as="geometry" />
        </mxCell>
        <mxCell id="MtJXJ2jCX4OPjKlauZeT-13" value="" style="shape=partialRectangle;connectable=0;fillColor=none;top=0;left=0;bottom=0;right=0;editable=1;overflow=hidden;whiteSpace=wrap;html=1;" vertex="1" parent="MtJXJ2jCX4OPjKlauZeT-12">
          <mxGeometry width="30" height="30" as="geometry">
            <mxRectangle width="30" height="30" as="alternateBounds" />
          </mxGeometry>
        </mxCell>
        <mxCell id="MtJXJ2jCX4OPjKlauZeT-14" value="&lt;span style=&quot;color: rgb(204, 204, 204); font-family: Consolas, &amp;quot;Courier New&amp;quot;, monospace; font-size: 14px; white-space: pre;&quot;&gt;Customer_Email&lt;/span&gt;" style="shape=partialRectangle;connectable=0;fillColor=none;top=0;left=0;bottom=0;right=0;align=left;spacingLeft=6;overflow=hidden;whiteSpace=wrap;html=1;" vertex="1" parent="MtJXJ2jCX4OPjKlauZeT-12">
          <mxGeometry x="30" width="150" height="30" as="geometry">
            <mxRectangle width="150" height="30" as="alternateBounds" />
          </mxGeometry>
        </mxCell>
        <mxCell id="MtJXJ2jCX4OPjKlauZeT-15" style="shape=tableRow;horizontal=0;startSize=0;swimlaneHead=0;swimlaneBody=0;fillColor=none;collapsible=0;dropTarget=0;points=[[0,0.5],[1,0.5]];portConstraint=eastwest;top=0;left=0;right=0;bottom=0;" vertex="1" parent="MtJXJ2jCX4OPjKlauZeT-2">
          <mxGeometry y="150" width="180" height="30" as="geometry" />
        </mxCell>
        <mxCell id="MtJXJ2jCX4OPjKlauZeT-16" style="shape=partialRectangle;connectable=0;fillColor=none;top=0;left=0;bottom=0;right=0;editable=1;overflow=hidden;whiteSpace=wrap;html=1;" vertex="1" parent="MtJXJ2jCX4OPjKlauZeT-15">
          <mxGeometry width="30" height="30" as="geometry">
            <mxRectangle width="30" height="30" as="alternateBounds" />
          </mxGeometry>
        </mxCell>
        <mxCell id="MtJXJ2jCX4OPjKlauZeT-17" value="&lt;span style=&quot;color: rgb(204, 204, 204); font-family: Consolas, &amp;quot;Courier New&amp;quot;, monospace; font-size: 14px; white-space: pre;&quot;&gt;Customer_Address&lt;/span&gt;" style="shape=partialRectangle;connectable=0;fillColor=none;top=0;left=0;bottom=0;right=0;align=left;spacingLeft=6;overflow=hidden;whiteSpace=wrap;html=1;" vertex="1" parent="MtJXJ2jCX4OPjKlauZeT-15">
          <mxGeometry x="30" width="150" height="30" as="geometry">
            <mxRectangle width="150" height="30" as="alternateBounds" />
          </mxGeometry>
        </mxCell>
        <mxCell id="MtJXJ2jCX4OPjKlauZeT-18" value="Product" style="shape=table;startSize=30;container=1;collapsible=1;childLayout=tableLayout;fixedRows=1;rowLines=0;fontStyle=1;align=center;resizeLast=1;html=1;" vertex="1" parent="1">
          <mxGeometry x="820" y="70" width="180" height="150" as="geometry" />
        </mxCell>
        <mxCell id="MtJXJ2jCX4OPjKlauZeT-19" value="" style="shape=tableRow;horizontal=0;startSize=0;swimlaneHead=0;swimlaneBody=0;fillColor=none;collapsible=0;dropTarget=0;points=[[0,0.5],[1,0.5]];portConstraint=eastwest;top=0;left=0;right=0;bottom=1;" vertex="1" parent="MtJXJ2jCX4OPjKlauZeT-18">
          <mxGeometry y="30" width="180" height="30" as="geometry" />
        </mxCell>
        <mxCell id="MtJXJ2jCX4OPjKlauZeT-20" value="PK" style="shape=partialRectangle;connectable=0;fillColor=none;top=0;left=0;bottom=0;right=0;fontStyle=1;overflow=hidden;whiteSpace=wrap;html=1;" vertex="1" parent="MtJXJ2jCX4OPjKlauZeT-19">
          <mxGeometry width="30" height="30" as="geometry">
            <mxRectangle width="30" height="30" as="alternateBounds" />
          </mxGeometry>
        </mxCell>
        <mxCell id="MtJXJ2jCX4OPjKlauZeT-21" value="Product ID" style="shape=partialRectangle;connectable=0;fillColor=none;top=0;left=0;bottom=0;right=0;align=left;spacingLeft=6;fontStyle=5;overflow=hidden;whiteSpace=wrap;html=1;" vertex="1" parent="MtJXJ2jCX4OPjKlauZeT-19">
          <mxGeometry x="30" width="150" height="30" as="geometry">
            <mxRectangle width="150" height="30" as="alternateBounds" />
          </mxGeometry>
        </mxCell>
        <mxCell id="MtJXJ2jCX4OPjKlauZeT-22" value="" style="shape=tableRow;horizontal=0;startSize=0;swimlaneHead=0;swimlaneBody=0;fillColor=none;collapsible=0;dropTarget=0;points=[[0,0.5],[1,0.5]];portConstraint=eastwest;top=0;left=0;right=0;bottom=0;" vertex="1" parent="MtJXJ2jCX4OPjKlauZeT-18">
          <mxGeometry y="60" width="180" height="30" as="geometry" />
        </mxCell>
        <mxCell id="MtJXJ2jCX4OPjKlauZeT-23" value="" style="shape=partialRectangle;connectable=0;fillColor=none;top=0;left=0;bottom=0;right=0;editable=1;overflow=hidden;whiteSpace=wrap;html=1;" vertex="1" parent="MtJXJ2jCX4OPjKlauZeT-22">
          <mxGeometry width="30" height="30" as="geometry">
            <mxRectangle width="30" height="30" as="alternateBounds" />
          </mxGeometry>
        </mxCell>
        <mxCell id="MtJXJ2jCX4OPjKlauZeT-24" value="&lt;span style=&quot;color: rgb(204, 204, 204); font-family: Consolas, &amp;quot;Courier New&amp;quot;, monospace; font-size: 14px; white-space: pre;&quot;&gt;Product_List_Title&lt;/span&gt;" style="shape=partialRectangle;connectable=0;fillColor=none;top=0;left=0;bottom=0;right=0;align=left;spacingLeft=6;overflow=hidden;whiteSpace=wrap;html=1;" vertex="1" parent="MtJXJ2jCX4OPjKlauZeT-22">
          <mxGeometry x="30" width="150" height="30" as="geometry">
            <mxRectangle width="150" height="30" as="alternateBounds" />
          </mxGeometry>
        </mxCell>
        <mxCell id="MtJXJ2jCX4OPjKlauZeT-25" value="" style="shape=tableRow;horizontal=0;startSize=0;swimlaneHead=0;swimlaneBody=0;fillColor=none;collapsible=0;dropTarget=0;points=[[0,0.5],[1,0.5]];portConstraint=eastwest;top=0;left=0;right=0;bottom=0;" vertex="1" parent="MtJXJ2jCX4OPjKlauZeT-18">
          <mxGeometry y="90" width="180" height="30" as="geometry" />
        </mxCell>
        <mxCell id="MtJXJ2jCX4OPjKlauZeT-26" value="" style="shape=partialRectangle;connectable=0;fillColor=none;top=0;left=0;bottom=0;right=0;editable=1;overflow=hidden;whiteSpace=wrap;html=1;" vertex="1" parent="MtJXJ2jCX4OPjKlauZeT-25">
          <mxGeometry width="30" height="30" as="geometry">
            <mxRectangle width="30" height="30" as="alternateBounds" />
          </mxGeometry>
        </mxCell>
        <mxCell id="MtJXJ2jCX4OPjKlauZeT-27" value="&lt;span style=&quot;color: rgb(204, 204, 204); font-family: Consolas, &amp;quot;Courier New&amp;quot;, monospace; font-size: 14px; white-space: pre;&quot;&gt;Quantity&lt;/span&gt;" style="shape=partialRectangle;connectable=0;fillColor=none;top=0;left=0;bottom=0;right=0;align=left;spacingLeft=6;overflow=hidden;whiteSpace=wrap;html=1;" vertex="1" parent="MtJXJ2jCX4OPjKlauZeT-25">
          <mxGeometry x="30" width="150" height="30" as="geometry">
            <mxRectangle width="150" height="30" as="alternateBounds" />
          </mxGeometry>
        </mxCell>
        <mxCell id="MtJXJ2jCX4OPjKlauZeT-28" value="" style="shape=tableRow;horizontal=0;startSize=0;swimlaneHead=0;swimlaneBody=0;fillColor=none;collapsible=0;dropTarget=0;points=[[0,0.5],[1,0.5]];portConstraint=eastwest;top=0;left=0;right=0;bottom=0;" vertex="1" parent="MtJXJ2jCX4OPjKlauZeT-18">
          <mxGeometry y="120" width="180" height="30" as="geometry" />
        </mxCell>
        <mxCell id="MtJXJ2jCX4OPjKlauZeT-29" value="" style="shape=partialRectangle;connectable=0;fillColor=none;top=0;left=0;bottom=0;right=0;editable=1;overflow=hidden;whiteSpace=wrap;html=1;" vertex="1" parent="MtJXJ2jCX4OPjKlauZeT-28">
          <mxGeometry width="30" height="30" as="geometry">
            <mxRectangle width="30" height="30" as="alternateBounds" />
          </mxGeometry>
        </mxCell>
        <mxCell id="MtJXJ2jCX4OPjKlauZeT-30" value="&lt;span style=&quot;color: rgb(204, 204, 204); font-family: Consolas, &amp;quot;Courier New&amp;quot;, monospace; font-size: 14px; white-space: pre;&quot;&gt;Unit_Price&lt;/span&gt;" style="shape=partialRectangle;connectable=0;fillColor=none;top=0;left=0;bottom=0;right=0;align=left;spacingLeft=6;overflow=hidden;whiteSpace=wrap;html=1;" vertex="1" parent="MtJXJ2jCX4OPjKlauZeT-28">
          <mxGeometry x="30" width="150" height="30" as="geometry">
            <mxRectangle width="150" height="30" as="alternateBounds" />
          </mxGeometry>
        </mxCell>
        <mxCell id="MtJXJ2jCX4OPjKlauZeT-31" value="Ziko_logistics&amp;nbsp;" style="shape=table;startSize=30;container=1;collapsible=1;childLayout=tableLayout;fixedRows=1;rowLines=0;fontStyle=1;align=center;resizeLast=1;html=1;" vertex="1" parent="1">
          <mxGeometry x="590" y="330" width="180" height="560" as="geometry" />
        </mxCell>
        <mxCell id="MtJXJ2jCX4OPjKlauZeT-32" value="" style="shape=tableRow;horizontal=0;startSize=0;swimlaneHead=0;swimlaneBody=0;fillColor=none;collapsible=0;dropTarget=0;points=[[0,0.5],[1,0.5]];portConstraint=eastwest;top=0;left=0;right=0;bottom=1;" vertex="1" parent="MtJXJ2jCX4OPjKlauZeT-31">
          <mxGeometry y="30" width="180" height="20" as="geometry" />
        </mxCell>
        <mxCell id="MtJXJ2jCX4OPjKlauZeT-33" value="PK" style="shape=partialRectangle;connectable=0;fillColor=none;top=0;left=0;bottom=0;right=0;fontStyle=1;overflow=hidden;whiteSpace=wrap;html=1;" vertex="1" parent="MtJXJ2jCX4OPjKlauZeT-32">
          <mxGeometry width="30" height="20" as="geometry">
            <mxRectangle width="30" height="20" as="alternateBounds" />
          </mxGeometry>
        </mxCell>
        <mxCell id="MtJXJ2jCX4OPjKlauZeT-34" value="&lt;span style=&quot;color: rgb(204, 204, 204); font-family: Consolas, &amp;quot;Courier New&amp;quot;, monospace; font-size: 14px; font-weight: 400; white-space: pre;&quot;&gt;Transaction_ID&lt;/span&gt;" style="shape=partialRectangle;connectable=0;fillColor=none;top=0;left=0;bottom=0;right=0;align=left;spacingLeft=6;fontStyle=5;overflow=hidden;whiteSpace=wrap;html=1;" vertex="1" parent="MtJXJ2jCX4OPjKlauZeT-32">
          <mxGeometry x="30" width="150" height="20" as="geometry">
            <mxRectangle width="150" height="20" as="alternateBounds" />
          </mxGeometry>
        </mxCell>
        <mxCell id="MtJXJ2jCX4OPjKlauZeT-35" value="" style="shape=tableRow;horizontal=0;startSize=0;swimlaneHead=0;swimlaneBody=0;fillColor=none;collapsible=0;dropTarget=0;points=[[0,0.5],[1,0.5]];portConstraint=eastwest;top=0;left=0;right=0;bottom=0;" vertex="1" parent="MtJXJ2jCX4OPjKlauZeT-31">
          <mxGeometry y="50" width="180" height="30" as="geometry" />
        </mxCell>
        <mxCell id="MtJXJ2jCX4OPjKlauZeT-36" value="" style="shape=partialRectangle;connectable=0;fillColor=none;top=0;left=0;bottom=0;right=0;editable=1;overflow=hidden;whiteSpace=wrap;html=1;" vertex="1" parent="MtJXJ2jCX4OPjKlauZeT-35">
          <mxGeometry width="30" height="30" as="geometry">
            <mxRectangle width="30" height="30" as="alternateBounds" />
          </mxGeometry>
        </mxCell>
        <mxCell id="MtJXJ2jCX4OPjKlauZeT-37" value="&lt;span style=&quot;color: rgb(204, 204, 204); font-family: Consolas, &amp;quot;Courier New&amp;quot;, monospace; font-size: 14px; white-space: pre;&quot;&gt;Date&lt;/span&gt;" style="shape=partialRectangle;connectable=0;fillColor=none;top=0;left=0;bottom=0;right=0;align=left;spacingLeft=6;overflow=hidden;whiteSpace=wrap;html=1;" vertex="1" parent="MtJXJ2jCX4OPjKlauZeT-35">
          <mxGeometry x="30" width="150" height="30" as="geometry">
            <mxRectangle width="150" height="30" as="alternateBounds" />
          </mxGeometry>
        </mxCell>
        <mxCell id="MtJXJ2jCX4OPjKlauZeT-38" value="" style="shape=tableRow;horizontal=0;startSize=0;swimlaneHead=0;swimlaneBody=0;fillColor=none;collapsible=0;dropTarget=0;points=[[0,0.5],[1,0.5]];portConstraint=eastwest;top=0;left=0;right=0;bottom=0;" vertex="1" parent="MtJXJ2jCX4OPjKlauZeT-31">
          <mxGeometry y="80" width="180" height="30" as="geometry" />
        </mxCell>
        <mxCell id="MtJXJ2jCX4OPjKlauZeT-39" value="FK" style="shape=partialRectangle;connectable=0;fillColor=none;top=0;left=0;bottom=0;right=0;editable=1;overflow=hidden;whiteSpace=wrap;html=1;" vertex="1" parent="MtJXJ2jCX4OPjKlauZeT-38">
          <mxGeometry width="30" height="30" as="geometry">
            <mxRectangle width="30" height="30" as="alternateBounds" />
          </mxGeometry>
        </mxCell>
        <mxCell id="MtJXJ2jCX4OPjKlauZeT-40" value="&lt;span style=&quot;color: rgb(204, 204, 204); font-family: Consolas, &amp;quot;Courier New&amp;quot;, monospace; font-size: 14px; white-space: pre;&quot;&gt;Customer_ID&lt;/span&gt;" style="shape=partialRectangle;connectable=0;fillColor=none;top=0;left=0;bottom=0;right=0;align=left;spacingLeft=6;overflow=hidden;whiteSpace=wrap;html=1;" vertex="1" parent="MtJXJ2jCX4OPjKlauZeT-38">
          <mxGeometry x="30" width="150" height="30" as="geometry">
            <mxRectangle width="150" height="30" as="alternateBounds" />
          </mxGeometry>
        </mxCell>
        <mxCell id="MtJXJ2jCX4OPjKlauZeT-41" value="" style="shape=tableRow;horizontal=0;startSize=0;swimlaneHead=0;swimlaneBody=0;fillColor=none;collapsible=0;dropTarget=0;points=[[0,0.5],[1,0.5]];portConstraint=eastwest;top=0;left=0;right=0;bottom=0;" vertex="1" parent="MtJXJ2jCX4OPjKlauZeT-31">
          <mxGeometry y="110" width="180" height="30" as="geometry" />
        </mxCell>
        <mxCell id="MtJXJ2jCX4OPjKlauZeT-42" value="FK" style="shape=partialRectangle;connectable=0;fillColor=none;top=0;left=0;bottom=0;right=0;editable=1;overflow=hidden;whiteSpace=wrap;html=1;" vertex="1" parent="MtJXJ2jCX4OPjKlauZeT-41">
          <mxGeometry width="30" height="30" as="geometry">
            <mxRectangle width="30" height="30" as="alternateBounds" />
          </mxGeometry>
        </mxCell>
        <mxCell id="MtJXJ2jCX4OPjKlauZeT-43" value="&lt;span style=&quot;color: rgb(204, 204, 204); font-family: Consolas, &amp;quot;Courier New&amp;quot;, monospace; font-size: 14px; white-space: pre;&quot;&gt;Product_ID&lt;/span&gt;" style="shape=partialRectangle;connectable=0;fillColor=none;top=0;left=0;bottom=0;right=0;align=left;spacingLeft=6;overflow=hidden;whiteSpace=wrap;html=1;" vertex="1" parent="MtJXJ2jCX4OPjKlauZeT-41">
          <mxGeometry x="30" width="150" height="30" as="geometry">
            <mxRectangle width="150" height="30" as="alternateBounds" />
          </mxGeometry>
        </mxCell>
        <mxCell id="MtJXJ2jCX4OPjKlauZeT-44" style="shape=tableRow;horizontal=0;startSize=0;swimlaneHead=0;swimlaneBody=0;fillColor=none;collapsible=0;dropTarget=0;points=[[0,0.5],[1,0.5]];portConstraint=eastwest;top=0;left=0;right=0;bottom=0;" vertex="1" parent="MtJXJ2jCX4OPjKlauZeT-31">
          <mxGeometry y="140" width="180" height="30" as="geometry" />
        </mxCell>
        <mxCell id="MtJXJ2jCX4OPjKlauZeT-45" style="shape=partialRectangle;connectable=0;fillColor=none;top=0;left=0;bottom=0;right=0;editable=1;overflow=hidden;whiteSpace=wrap;html=1;" vertex="1" parent="MtJXJ2jCX4OPjKlauZeT-44">
          <mxGeometry width="30" height="30" as="geometry">
            <mxRectangle width="30" height="30" as="alternateBounds" />
          </mxGeometry>
        </mxCell>
        <mxCell id="MtJXJ2jCX4OPjKlauZeT-46" value="&lt;span style=&quot;color: rgb(204, 204, 204); font-family: Consolas, &amp;quot;Courier New&amp;quot;, monospace; font-size: 14px; white-space: pre;&quot;&gt;Total_Cost&lt;/span&gt;" style="shape=partialRectangle;connectable=0;fillColor=none;top=0;left=0;bottom=0;right=0;align=left;spacingLeft=6;overflow=hidden;whiteSpace=wrap;html=1;" vertex="1" parent="MtJXJ2jCX4OPjKlauZeT-44">
          <mxGeometry x="30" width="150" height="30" as="geometry">
            <mxRectangle width="150" height="30" as="alternateBounds" />
          </mxGeometry>
        </mxCell>
        <mxCell id="MtJXJ2jCX4OPjKlauZeT-47" style="shape=tableRow;horizontal=0;startSize=0;swimlaneHead=0;swimlaneBody=0;fillColor=none;collapsible=0;dropTarget=0;points=[[0,0.5],[1,0.5]];portConstraint=eastwest;top=0;left=0;right=0;bottom=0;" vertex="1" parent="MtJXJ2jCX4OPjKlauZeT-31">
          <mxGeometry y="170" width="180" height="30" as="geometry" />
        </mxCell>
        <mxCell id="MtJXJ2jCX4OPjKlauZeT-48" style="shape=partialRectangle;connectable=0;fillColor=none;top=0;left=0;bottom=0;right=0;editable=1;overflow=hidden;whiteSpace=wrap;html=1;" vertex="1" parent="MtJXJ2jCX4OPjKlauZeT-47">
          <mxGeometry width="30" height="30" as="geometry">
            <mxRectangle width="30" height="30" as="alternateBounds" />
          </mxGeometry>
        </mxCell>
        <mxCell id="MtJXJ2jCX4OPjKlauZeT-49" value="&lt;span style=&quot;color: rgb(204, 204, 204); font-family: Consolas, &amp;quot;Courier New&amp;quot;, monospace; font-size: 14px; white-space: pre;&quot;&gt;Discount_Rate&lt;/span&gt;" style="shape=partialRectangle;connectable=0;fillColor=none;top=0;left=0;bottom=0;right=0;align=left;spacingLeft=6;overflow=hidden;whiteSpace=wrap;html=1;" vertex="1" parent="MtJXJ2jCX4OPjKlauZeT-47">
          <mxGeometry x="30" width="150" height="30" as="geometry">
            <mxRectangle width="150" height="30" as="alternateBounds" />
          </mxGeometry>
        </mxCell>
        <mxCell id="MtJXJ2jCX4OPjKlauZeT-50" style="shape=tableRow;horizontal=0;startSize=0;swimlaneHead=0;swimlaneBody=0;fillColor=none;collapsible=0;dropTarget=0;points=[[0,0.5],[1,0.5]];portConstraint=eastwest;top=0;left=0;right=0;bottom=0;" vertex="1" parent="MtJXJ2jCX4OPjKlauZeT-31">
          <mxGeometry y="200" width="180" height="30" as="geometry" />
        </mxCell>
        <mxCell id="MtJXJ2jCX4OPjKlauZeT-51" style="shape=partialRectangle;connectable=0;fillColor=none;top=0;left=0;bottom=0;right=0;editable=1;overflow=hidden;whiteSpace=wrap;html=1;" vertex="1" parent="MtJXJ2jCX4OPjKlauZeT-50">
          <mxGeometry width="30" height="30" as="geometry">
            <mxRectangle width="30" height="30" as="alternateBounds" />
          </mxGeometry>
        </mxCell>
        <mxCell id="MtJXJ2jCX4OPjKlauZeT-52" value="&lt;span style=&quot;color: rgb(204, 204, 204); font-family: Consolas, &amp;quot;Courier New&amp;quot;, monospace; font-size: 14px; white-space: pre;&quot;&gt;Sales_Channel&lt;/span&gt;" style="shape=partialRectangle;connectable=0;fillColor=none;top=0;left=0;bottom=0;right=0;align=left;spacingLeft=6;overflow=hidden;whiteSpace=wrap;html=1;" vertex="1" parent="MtJXJ2jCX4OPjKlauZeT-50">
          <mxGeometry x="30" width="150" height="30" as="geometry">
            <mxRectangle width="150" height="30" as="alternateBounds" />
          </mxGeometry>
        </mxCell>
        <mxCell id="MtJXJ2jCX4OPjKlauZeT-53" style="shape=tableRow;horizontal=0;startSize=0;swimlaneHead=0;swimlaneBody=0;fillColor=none;collapsible=0;dropTarget=0;points=[[0,0.5],[1,0.5]];portConstraint=eastwest;top=0;left=0;right=0;bottom=0;" vertex="1" parent="MtJXJ2jCX4OPjKlauZeT-31">
          <mxGeometry y="230" width="180" height="30" as="geometry" />
        </mxCell>
        <mxCell id="MtJXJ2jCX4OPjKlauZeT-54" style="shape=partialRectangle;connectable=0;fillColor=none;top=0;left=0;bottom=0;right=0;editable=1;overflow=hidden;whiteSpace=wrap;html=1;" vertex="1" parent="MtJXJ2jCX4OPjKlauZeT-53">
          <mxGeometry width="30" height="30" as="geometry">
            <mxRectangle width="30" height="30" as="alternateBounds" />
          </mxGeometry>
        </mxCell>
        <mxCell id="MtJXJ2jCX4OPjKlauZeT-55" value="&lt;span style=&quot;color: rgb(204, 204, 204); font-family: Consolas, &amp;quot;Courier New&amp;quot;, monospace; font-size: 14px; white-space: pre;&quot;&gt;Customer_Satisfaction&lt;/span&gt;" style="shape=partialRectangle;connectable=0;fillColor=none;top=0;left=0;bottom=0;right=0;align=left;spacingLeft=6;overflow=hidden;whiteSpace=wrap;html=1;" vertex="1" parent="MtJXJ2jCX4OPjKlauZeT-53">
          <mxGeometry x="30" width="150" height="30" as="geometry">
            <mxRectangle width="150" height="30" as="alternateBounds" />
          </mxGeometry>
        </mxCell>
        <mxCell id="MtJXJ2jCX4OPjKlauZeT-56" style="shape=tableRow;horizontal=0;startSize=0;swimlaneHead=0;swimlaneBody=0;fillColor=none;collapsible=0;dropTarget=0;points=[[0,0.5],[1,0.5]];portConstraint=eastwest;top=0;left=0;right=0;bottom=0;" vertex="1" parent="MtJXJ2jCX4OPjKlauZeT-31">
          <mxGeometry y="260" width="180" height="30" as="geometry" />
        </mxCell>
        <mxCell id="MtJXJ2jCX4OPjKlauZeT-57" style="shape=partialRectangle;connectable=0;fillColor=none;top=0;left=0;bottom=0;right=0;editable=1;overflow=hidden;whiteSpace=wrap;html=1;" vertex="1" parent="MtJXJ2jCX4OPjKlauZeT-56">
          <mxGeometry width="30" height="30" as="geometry">
            <mxRectangle width="30" height="30" as="alternateBounds" />
          </mxGeometry>
        </mxCell>
        <mxCell id="MtJXJ2jCX4OPjKlauZeT-58" value="&lt;span style=&quot;color: rgb(204, 204, 204); font-family: Consolas, &amp;quot;Courier New&amp;quot;, monospace; font-size: 14px; white-space: pre;&quot;&gt;Item_Returned&lt;/span&gt;" style="shape=partialRectangle;connectable=0;fillColor=none;top=0;left=0;bottom=0;right=0;align=left;spacingLeft=6;overflow=hidden;whiteSpace=wrap;html=1;" vertex="1" parent="MtJXJ2jCX4OPjKlauZeT-56">
          <mxGeometry x="30" width="150" height="30" as="geometry">
            <mxRectangle width="150" height="30" as="alternateBounds" />
          </mxGeometry>
        </mxCell>
        <mxCell id="MtJXJ2jCX4OPjKlauZeT-59" style="shape=tableRow;horizontal=0;startSize=0;swimlaneHead=0;swimlaneBody=0;fillColor=none;collapsible=0;dropTarget=0;points=[[0,0.5],[1,0.5]];portConstraint=eastwest;top=0;left=0;right=0;bottom=0;" vertex="1" parent="MtJXJ2jCX4OPjKlauZeT-31">
          <mxGeometry y="290" width="180" height="30" as="geometry" />
        </mxCell>
        <mxCell id="MtJXJ2jCX4OPjKlauZeT-60" style="shape=partialRectangle;connectable=0;fillColor=none;top=0;left=0;bottom=0;right=0;editable=1;overflow=hidden;whiteSpace=wrap;html=1;" vertex="1" parent="MtJXJ2jCX4OPjKlauZeT-59">
          <mxGeometry width="30" height="30" as="geometry">
            <mxRectangle width="30" height="30" as="alternateBounds" />
          </mxGeometry>
        </mxCell>
        <mxCell id="MtJXJ2jCX4OPjKlauZeT-61" value="&lt;span style=&quot;color: rgb(204, 204, 204); font-family: Consolas, &amp;quot;Courier New&amp;quot;, monospace; font-size: 14px; white-space: pre;&quot;&gt;Return_Reason&lt;/span&gt;" style="shape=partialRectangle;connectable=0;fillColor=none;top=0;left=0;bottom=0;right=0;align=left;spacingLeft=6;overflow=hidden;whiteSpace=wrap;html=1;" vertex="1" parent="MtJXJ2jCX4OPjKlauZeT-59">
          <mxGeometry x="30" width="150" height="30" as="geometry">
            <mxRectangle width="150" height="30" as="alternateBounds" />
          </mxGeometry>
        </mxCell>
        <mxCell id="MtJXJ2jCX4OPjKlauZeT-62" style="shape=tableRow;horizontal=0;startSize=0;swimlaneHead=0;swimlaneBody=0;fillColor=none;collapsible=0;dropTarget=0;points=[[0,0.5],[1,0.5]];portConstraint=eastwest;top=0;left=0;right=0;bottom=0;" vertex="1" parent="MtJXJ2jCX4OPjKlauZeT-31">
          <mxGeometry y="320" width="180" height="30" as="geometry" />
        </mxCell>
        <mxCell id="MtJXJ2jCX4OPjKlauZeT-63" style="shape=partialRectangle;connectable=0;fillColor=none;top=0;left=0;bottom=0;right=0;editable=1;overflow=hidden;whiteSpace=wrap;html=1;" vertex="1" parent="MtJXJ2jCX4OPjKlauZeT-62">
          <mxGeometry width="30" height="30" as="geometry">
            <mxRectangle width="30" height="30" as="alternateBounds" />
          </mxGeometry>
        </mxCell>
        <mxCell id="MtJXJ2jCX4OPjKlauZeT-64" value="&lt;span style=&quot;color: rgb(204, 204, 204); font-family: Consolas, &amp;quot;Courier New&amp;quot;, monospace; font-size: 14px; white-space: pre;&quot;&gt;Payment_Type&lt;/span&gt;" style="shape=partialRectangle;connectable=0;fillColor=none;top=0;left=0;bottom=0;right=0;align=left;spacingLeft=6;overflow=hidden;whiteSpace=wrap;html=1;" vertex="1" parent="MtJXJ2jCX4OPjKlauZeT-62">
          <mxGeometry x="30" width="150" height="30" as="geometry">
            <mxRectangle width="150" height="30" as="alternateBounds" />
          </mxGeometry>
        </mxCell>
        <mxCell id="MtJXJ2jCX4OPjKlauZeT-65" style="shape=tableRow;horizontal=0;startSize=0;swimlaneHead=0;swimlaneBody=0;fillColor=none;collapsible=0;dropTarget=0;points=[[0,0.5],[1,0.5]];portConstraint=eastwest;top=0;left=0;right=0;bottom=0;" vertex="1" parent="MtJXJ2jCX4OPjKlauZeT-31">
          <mxGeometry y="350" width="180" height="30" as="geometry" />
        </mxCell>
        <mxCell id="MtJXJ2jCX4OPjKlauZeT-66" style="shape=partialRectangle;connectable=0;fillColor=none;top=0;left=0;bottom=0;right=0;editable=1;overflow=hidden;whiteSpace=wrap;html=1;" vertex="1" parent="MtJXJ2jCX4OPjKlauZeT-65">
          <mxGeometry width="30" height="30" as="geometry">
            <mxRectangle width="30" height="30" as="alternateBounds" />
          </mxGeometry>
        </mxCell>
        <mxCell id="MtJXJ2jCX4OPjKlauZeT-67" value="&lt;span style=&quot;color: rgb(204, 204, 204); font-family: Consolas, &amp;quot;Courier New&amp;quot;, monospace; font-size: 14px; white-space: pre;&quot;&gt;Taxable&lt;/span&gt;" style="shape=partialRectangle;connectable=0;fillColor=none;top=0;left=0;bottom=0;right=0;align=left;spacingLeft=6;overflow=hidden;whiteSpace=wrap;html=1;" vertex="1" parent="MtJXJ2jCX4OPjKlauZeT-65">
          <mxGeometry x="30" width="150" height="30" as="geometry">
            <mxRectangle width="150" height="30" as="alternateBounds" />
          </mxGeometry>
        </mxCell>
        <mxCell id="MtJXJ2jCX4OPjKlauZeT-68" style="shape=tableRow;horizontal=0;startSize=0;swimlaneHead=0;swimlaneBody=0;fillColor=none;collapsible=0;dropTarget=0;points=[[0,0.5],[1,0.5]];portConstraint=eastwest;top=0;left=0;right=0;bottom=0;" vertex="1" parent="MtJXJ2jCX4OPjKlauZeT-31">
          <mxGeometry y="380" width="180" height="30" as="geometry" />
        </mxCell>
        <mxCell id="MtJXJ2jCX4OPjKlauZeT-69" style="shape=partialRectangle;connectable=0;fillColor=none;top=0;left=0;bottom=0;right=0;editable=1;overflow=hidden;whiteSpace=wrap;html=1;" vertex="1" parent="MtJXJ2jCX4OPjKlauZeT-68">
          <mxGeometry width="30" height="30" as="geometry">
            <mxRectangle width="30" height="30" as="alternateBounds" />
          </mxGeometry>
        </mxCell>
        <mxCell id="MtJXJ2jCX4OPjKlauZeT-70" value="&lt;span style=&quot;color: rgb(204, 204, 204); font-family: Consolas, &amp;quot;Courier New&amp;quot;, monospace; font-size: 14px; white-space: pre;&quot;&gt;Region&lt;/span&gt;" style="shape=partialRectangle;connectable=0;fillColor=none;top=0;left=0;bottom=0;right=0;align=left;spacingLeft=6;overflow=hidden;whiteSpace=wrap;html=1;" vertex="1" parent="MtJXJ2jCX4OPjKlauZeT-68">
          <mxGeometry x="30" width="150" height="30" as="geometry">
            <mxRectangle width="150" height="30" as="alternateBounds" />
          </mxGeometry>
        </mxCell>
        <mxCell id="MtJXJ2jCX4OPjKlauZeT-71" style="shape=tableRow;horizontal=0;startSize=0;swimlaneHead=0;swimlaneBody=0;fillColor=none;collapsible=0;dropTarget=0;points=[[0,0.5],[1,0.5]];portConstraint=eastwest;top=0;left=0;right=0;bottom=0;" vertex="1" parent="MtJXJ2jCX4OPjKlauZeT-31">
          <mxGeometry y="410" width="180" height="30" as="geometry" />
        </mxCell>
        <mxCell id="MtJXJ2jCX4OPjKlauZeT-72" style="shape=partialRectangle;connectable=0;fillColor=none;top=0;left=0;bottom=0;right=0;editable=1;overflow=hidden;whiteSpace=wrap;html=1;" vertex="1" parent="MtJXJ2jCX4OPjKlauZeT-71">
          <mxGeometry width="30" height="30" as="geometry">
            <mxRectangle width="30" height="30" as="alternateBounds" />
          </mxGeometry>
        </mxCell>
        <mxCell id="MtJXJ2jCX4OPjKlauZeT-73" value="&lt;span style=&quot;color: rgb(204, 204, 204); font-family: Consolas, &amp;quot;Courier New&amp;quot;, monospace; font-size: 14px; white-space: pre;&quot;&gt;Country&lt;/span&gt;" style="shape=partialRectangle;connectable=0;fillColor=none;top=0;left=0;bottom=0;right=0;align=left;spacingLeft=6;overflow=hidden;whiteSpace=wrap;html=1;" vertex="1" parent="MtJXJ2jCX4OPjKlauZeT-71">
          <mxGeometry x="30" width="150" height="30" as="geometry">
            <mxRectangle width="150" height="30" as="alternateBounds" />
          </mxGeometry>
        </mxCell>
        <mxCell id="MtJXJ2jCX4OPjKlauZeT-74" style="shape=tableRow;horizontal=0;startSize=0;swimlaneHead=0;swimlaneBody=0;fillColor=none;collapsible=0;dropTarget=0;points=[[0,0.5],[1,0.5]];portConstraint=eastwest;top=0;left=0;right=0;bottom=0;" vertex="1" parent="MtJXJ2jCX4OPjKlauZeT-31">
          <mxGeometry y="440" width="180" height="30" as="geometry" />
        </mxCell>
        <mxCell id="MtJXJ2jCX4OPjKlauZeT-75" style="shape=partialRectangle;connectable=0;fillColor=none;top=0;left=0;bottom=0;right=0;editable=1;overflow=hidden;whiteSpace=wrap;html=1;" vertex="1" parent="MtJXJ2jCX4OPjKlauZeT-74">
          <mxGeometry width="30" height="30" as="geometry">
            <mxRectangle width="30" height="30" as="alternateBounds" />
          </mxGeometry>
        </mxCell>
        <mxCell id="MtJXJ2jCX4OPjKlauZeT-76" value="&lt;span style=&quot;color: rgb(204, 204, 204); font-family: Consolas, &amp;quot;Courier New&amp;quot;, monospace; font-size: 14px; white-space: pre;&quot;&gt;Order_Priority&lt;/span&gt;" style="shape=partialRectangle;connectable=0;fillColor=none;top=0;left=0;bottom=0;right=0;align=left;spacingLeft=6;overflow=hidden;whiteSpace=wrap;html=1;" vertex="1" parent="MtJXJ2jCX4OPjKlauZeT-74">
          <mxGeometry x="30" width="150" height="30" as="geometry">
            <mxRectangle width="150" height="30" as="alternateBounds" />
          </mxGeometry>
        </mxCell>
        <mxCell id="MtJXJ2jCX4OPjKlauZeT-77" style="shape=tableRow;horizontal=0;startSize=0;swimlaneHead=0;swimlaneBody=0;fillColor=none;collapsible=0;dropTarget=0;points=[[0,0.5],[1,0.5]];portConstraint=eastwest;top=0;left=0;right=0;bottom=0;" vertex="1" parent="MtJXJ2jCX4OPjKlauZeT-31">
          <mxGeometry y="470" width="180" height="30" as="geometry" />
        </mxCell>
        <mxCell id="MtJXJ2jCX4OPjKlauZeT-78" style="shape=partialRectangle;connectable=0;fillColor=none;top=0;left=0;bottom=0;right=0;editable=1;overflow=hidden;whiteSpace=wrap;html=1;" vertex="1" parent="MtJXJ2jCX4OPjKlauZeT-77">
          <mxGeometry width="30" height="30" as="geometry">
            <mxRectangle width="30" height="30" as="alternateBounds" />
          </mxGeometry>
        </mxCell>
        <mxCell id="MtJXJ2jCX4OPjKlauZeT-79" value="&lt;span style=&quot;color: rgb(204, 204, 204); font-family: Consolas, &amp;quot;Courier New&amp;quot;, monospace; font-size: 14px; white-space: pre;&quot;&gt;Warehouse_Code&lt;/span&gt;" style="shape=partialRectangle;connectable=0;fillColor=none;top=0;left=0;bottom=0;right=0;align=left;spacingLeft=6;overflow=hidden;whiteSpace=wrap;html=1;" vertex="1" parent="MtJXJ2jCX4OPjKlauZeT-77">
          <mxGeometry x="30" width="150" height="30" as="geometry">
            <mxRectangle width="150" height="30" as="alternateBounds" />
          </mxGeometry>
        </mxCell>
        <mxCell id="MtJXJ2jCX4OPjKlauZeT-80" style="shape=tableRow;horizontal=0;startSize=0;swimlaneHead=0;swimlaneBody=0;fillColor=none;collapsible=0;dropTarget=0;points=[[0,0.5],[1,0.5]];portConstraint=eastwest;top=0;left=0;right=0;bottom=0;" vertex="1" parent="MtJXJ2jCX4OPjKlauZeT-31">
          <mxGeometry y="500" width="180" height="30" as="geometry" />
        </mxCell>
        <mxCell id="MtJXJ2jCX4OPjKlauZeT-81" style="shape=partialRectangle;connectable=0;fillColor=none;top=0;left=0;bottom=0;right=0;editable=1;overflow=hidden;whiteSpace=wrap;html=1;" vertex="1" parent="MtJXJ2jCX4OPjKlauZeT-80">
          <mxGeometry width="30" height="30" as="geometry">
            <mxRectangle width="30" height="30" as="alternateBounds" />
          </mxGeometry>
        </mxCell>
        <mxCell id="MtJXJ2jCX4OPjKlauZeT-82" value="&lt;span style=&quot;color: rgb(204, 204, 204); font-family: Consolas, &amp;quot;Courier New&amp;quot;, monospace; font-size: 14px; white-space: pre;&quot;&gt;Ship_Mode&lt;/span&gt;" style="shape=partialRectangle;connectable=0;fillColor=none;top=0;left=0;bottom=0;right=0;align=left;spacingLeft=6;overflow=hidden;whiteSpace=wrap;html=1;" vertex="1" parent="MtJXJ2jCX4OPjKlauZeT-80">
          <mxGeometry x="30" width="150" height="30" as="geometry">
            <mxRectangle width="150" height="30" as="alternateBounds" />
          </mxGeometry>
        </mxCell>
        <mxCell id="MtJXJ2jCX4OPjKlauZeT-83" style="shape=tableRow;horizontal=0;startSize=0;swimlaneHead=0;swimlaneBody=0;fillColor=none;collapsible=0;dropTarget=0;points=[[0,0.5],[1,0.5]];portConstraint=eastwest;top=0;left=0;right=0;bottom=0;" vertex="1" parent="MtJXJ2jCX4OPjKlauZeT-31">
          <mxGeometry y="530" width="180" height="30" as="geometry" />
        </mxCell>
        <mxCell id="MtJXJ2jCX4OPjKlauZeT-84" style="shape=partialRectangle;connectable=0;fillColor=none;top=0;left=0;bottom=0;right=0;editable=1;overflow=hidden;whiteSpace=wrap;html=1;" vertex="1" parent="MtJXJ2jCX4OPjKlauZeT-83">
          <mxGeometry width="30" height="30" as="geometry">
            <mxRectangle width="30" height="30" as="alternateBounds" />
          </mxGeometry>
        </mxCell>
        <mxCell id="MtJXJ2jCX4OPjKlauZeT-85" value="&lt;span style=&quot;color: rgb(204, 204, 204); font-family: Consolas, &amp;quot;Courier New&amp;quot;, monospace; font-size: 14px; white-space: pre;&quot;&gt;Delivery_Status&lt;/span&gt;" style="shape=partialRectangle;connectable=0;fillColor=none;top=0;left=0;bottom=0;right=0;align=left;spacingLeft=6;overflow=hidden;whiteSpace=wrap;html=1;" vertex="1" parent="MtJXJ2jCX4OPjKlauZeT-83">
          <mxGeometry x="30" width="150" height="30" as="geometry">
            <mxRectangle width="150" height="30" as="alternateBounds" />
          </mxGeometry>
        </mxCell>
        <mxCell id="MtJXJ2jCX4OPjKlauZeT-86" style="edgeStyle=orthogonalEdgeStyle;rounded=0;orthogonalLoop=1;jettySize=auto;html=1;entryX=-0.006;entryY=0.3;entryDx=0;entryDy=0;entryPerimeter=0;" edge="1" parent="1" source="MtJXJ2jCX4OPjKlauZeT-3" target="MtJXJ2jCX4OPjKlauZeT-38">
          <mxGeometry relative="1" as="geometry" />
        </mxCell>
        <mxCell id="MtJXJ2jCX4OPjKlauZeT-87" style="edgeStyle=orthogonalEdgeStyle;rounded=0;orthogonalLoop=1;jettySize=auto;html=1;entryX=1.044;entryY=0.467;entryDx=0;entryDy=0;entryPerimeter=0;" edge="1" parent="1" source="MtJXJ2jCX4OPjKlauZeT-19" target="MtJXJ2jCX4OPjKlauZeT-41">
          <mxGeometry relative="1" as="geometry" />
        </mxCell>
      </root>
    </mxGraphModel>
  </diagram>
</mxfile>
